{"glyphs":{"0":{"ha":832,"x_min":43,"x_max":789,"o":"m 789 494 q 693 114 789 244 q 415 -17 598 -17 q 135 103 228 -17 q 43 475 43 223 q 143 858 43 727 q 432 989 243 989 q 789 494 789 989 m 504 494 q 484 709 504 640 q 418 778 463 778 q 329 481 329 778 q 350 265 329 335 q 415 195 370 195 q 504 494 504 195 z "},"1":{"ha":671,"x_min":54,"x_max":557,"o":"m 268 0 l 268 700 q 170 657 220 672 q 54 636 119 643 l 54 853 q 225 902 146 869 q 387 994 304 936 l 557 994 l 557 0 l 268 0 z "},"2":{"ha":832,"x_min":61,"x_max":746,"o":"m 61 0 l 61 78 q 81 222 61 161 q 145 336 102 283 q 298 474 189 390 q 400 562 375 535 q 438 614 426 589 q 451 668 451 639 q 334 765 451 765 q 110 679 216 765 l 110 916 q 261 972 191 956 q 405 989 331 989 q 650 913 564 989 q 737 700 737 837 q 692 522 737 595 q 523 369 646 448 q 398 280 429 308 q 366 232 367 252 l 746 232 l 746 0 l 61 0 z "},"3":{"ha":832,"x_min":81,"x_max":732,"o":"m 732 278 q 631 60 732 138 q 340 -17 529 -17 q 200 -5 269 -17 q 81 26 131 7 l 81 253 q 185 210 127 226 q 303 195 243 195 q 409 219 372 195 q 446 290 446 244 q 401 363 446 337 q 274 390 355 390 l 180 390 l 180 603 l 263 603 q 384 628 345 603 q 423 694 423 654 q 394 755 423 733 q 303 778 364 778 q 115 724 209 778 l 115 940 q 363 989 233 989 q 616 923 524 989 q 707 741 707 857 q 658 588 707 650 q 520 507 609 526 l 520 504 q 675 429 618 490 q 732 278 732 368 z "},"4":{"ha":862,"x_min":31,"x_max":835,"o":"m 697 972 l 697 359 l 835 359 l 835 167 l 696 167 l 696 0 l 442 0 l 442 167 l 31 167 l 31 367 q 247 656 139 492 q 421 972 354 821 l 697 972 m 441 359 l 441 644 q 270 359 379 507 l 441 359 z "},"5":{"ha":832,"x_min":87,"x_max":739,"o":"m 739 329 q 692 150 739 229 q 556 27 645 71 q 347 -17 467 -17 q 207 -5 279 -17 q 87 24 134 6 l 87 249 q 302 195 189 195 q 415 222 376 195 q 453 298 453 249 q 275 406 453 406 q 111 389 186 406 l 147 972 l 696 972 l 696 747 l 371 747 l 361 611 q 435 615 401 615 q 659 538 578 615 q 739 329 739 461 z "},"6":{"ha":832,"x_min":65,"x_max":791,"o":"m 791 336 q 746 158 791 239 q 619 31 701 77 q 436 -16 536 -16 q 161 103 258 -16 q 65 439 65 222 q 123 730 65 603 q 287 923 182 857 q 538 989 393 989 q 717 964 649 989 l 717 737 q 558 778 650 778 q 407 717 465 778 q 343 557 349 656 l 347 557 q 543 640 416 640 q 725 556 658 640 q 791 336 791 472 m 517 323 q 496 408 517 377 q 433 439 475 439 q 372 407 393 439 q 350 319 350 374 q 373 235 350 268 q 433 201 397 201 q 494 234 472 201 q 517 323 517 267 z "},"7":{"ha":832,"x_min":66,"x_max":778,"o":"m 185 0 q 243 249 205 134 q 332 471 280 364 q 490 747 384 578 l 66 747 l 66 972 l 778 972 l 778 802 q 631 513 681 629 q 545 272 581 397 q 486 0 509 146 l 185 0 z "},"8":{"ha":832,"x_min":45,"x_max":786,"o":"m 45 264 q 91 415 45 354 q 224 515 136 476 q 113 610 151 552 q 76 739 76 669 q 120 866 76 808 q 244 956 165 924 q 418 989 323 989 q 597 957 518 989 q 720 867 677 924 q 764 738 764 809 q 724 610 764 669 q 607 513 684 550 q 744 411 702 472 q 786 267 786 349 q 739 120 786 185 q 607 20 692 55 q 416 -16 522 -16 q 149 63 252 -16 q 45 264 45 142 m 308 288 q 338 206 308 236 q 416 176 368 176 q 496 208 466 176 q 526 288 526 240 q 494 369 526 337 q 416 401 463 401 q 339 370 370 401 q 308 288 308 338 m 332 705 q 358 635 332 665 q 420 604 383 604 q 484 635 458 604 q 509 705 509 665 q 484 778 509 749 q 420 807 458 807 q 357 778 382 807 q 332 705 332 749 z "},"9":{"ha":832,"x_min":46,"x_max":774,"o":"m 774 526 q 655 127 774 271 q 328 -17 536 -17 q 104 21 199 -17 l 104 244 q 188 209 133 224 q 288 195 243 195 q 443 251 389 195 q 498 416 497 307 l 494 416 q 309 335 431 335 q 175 373 236 335 q 80 478 115 410 q 46 632 46 545 q 91 821 46 739 q 219 945 136 902 q 408 989 301 989 q 604 931 519 989 q 731 771 689 873 q 774 526 774 669 m 488 653 q 465 738 488 703 q 406 772 443 772 q 345 743 369 772 q 321 652 321 713 q 345 564 321 594 q 404 534 368 534 q 466 567 445 534 q 488 653 488 600 z "},"\r":{"ha":0,"x_min":0,"x_max":0,"o":""}," ":{"ha":386,"x_min":0,"x_max":0,"o":""},"!":{"ha":509,"x_min":93,"x_max":415,"o":"m 368 328 l 136 328 l 100 972 l 404 972 l 368 328 m 415 121 q 371 22 415 60 q 254 -17 328 -17 q 138 22 183 -17 q 93 121 93 62 q 137 217 93 180 q 254 254 180 254 q 371 217 326 254 q 415 121 415 180 z "},"\"":{"ha":806,"x_min":118,"x_max":688,"o":"m 654 694 l 479 694 l 444 996 l 688 996 l 654 694 m 326 694 l 149 694 l 118 996 l 359 996 l 326 694 z "},"#":{"ha":832,"x_min":33,"x_max":799,"o":"m 764 586 l 681 586 l 646 436 l 742 436 l 703 277 l 611 277 l 566 72 l 397 72 l 440 277 l 292 277 l 248 72 l 77 72 l 119 277 l 33 277 l 66 436 l 154 436 l 189 586 l 92 586 l 123 746 l 222 746 l 268 961 l 441 961 l 396 746 l 542 746 l 587 961 l 761 961 l 715 746 l 799 746 l 764 586 m 359 586 l 325 436 l 473 436 l 509 586 l 359 586 z "},"$":{"ha":832,"x_min":78,"x_max":746,"o":"m 746 300 q 718 181 746 236 q 636 84 690 125 q 505 24 583 43 l 505 -132 l 345 -132 l 345 5 q 191 24 269 7 q 90 61 113 41 l 90 315 q 363 212 231 212 q 419 230 399 212 q 440 278 440 248 q 427 319 440 304 q 385 351 414 334 q 297 390 355 367 q 78 669 78 477 q 149 857 78 781 q 345 956 220 933 l 345 1090 l 505 1090 l 505 962 q 699 932 625 956 l 699 685 q 582 737 646 718 q 454 757 517 757 q 394 740 417 757 q 371 696 371 722 q 398 641 371 663 q 488 593 426 618 q 684 467 622 538 q 746 300 746 396 z "},"%":{"ha":1247,"x_min":69,"x_max":1178,"o":"m 1178 249 q 1108 58 1178 130 q 920 -14 1038 -14 q 744 54 810 -14 q 677 231 677 121 q 748 422 677 351 q 936 493 819 493 q 1113 429 1048 493 q 1178 249 1178 364 m 1000 240 q 982 316 1000 288 q 932 343 964 343 q 878 314 897 343 q 859 236 859 286 q 876 163 859 189 q 928 136 893 136 q 982 163 963 136 q 1000 240 1000 191 m 419 0 l 205 0 l 831 972 l 1044 972 l 419 0 m 568 741 q 498 549 568 620 q 311 478 428 478 q 135 545 201 478 q 69 722 69 612 q 138 914 69 842 q 326 986 207 986 q 504 920 439 986 q 568 741 568 854 m 390 733 q 373 807 390 780 q 323 835 355 835 q 269 806 288 835 q 250 728 250 777 q 268 654 250 681 q 319 628 285 628 q 372 655 353 628 q 390 733 390 682 z "},"&":{"ha":1026,"x_min":41,"x_max":1035,"o":"m 733 -1 l 676 65 q 549 6 631 30 q 392 -17 467 -17 q 134 55 226 -17 q 41 257 41 127 q 97 404 41 334 q 267 530 153 473 q 170 745 170 637 q 255 921 170 853 q 476 989 340 989 q 685 928 606 989 q 764 766 764 867 q 717 627 764 686 q 568 522 670 569 l 707 366 q 737 530 737 427 l 958 530 q 930 354 958 432 q 840 211 903 275 l 1035 -1 l 733 -1 m 541 751 q 519 801 541 781 q 469 822 498 822 q 415 804 435 822 q 395 753 395 785 q 407 710 395 732 q 465 636 420 688 q 524 689 507 662 q 541 751 541 717 m 368 412 q 320 365 340 399 q 301 290 301 332 q 339 198 301 233 q 433 163 378 163 q 500 174 468 163 q 554 203 532 185 l 368 412 z "},"'":{"ha":478,"x_min":118,"x_max":359,"o":"m 326 696 l 149 696 l 118 996 l 359 996 l 326 696 z "},"(":{"ha":585,"x_min":119,"x_max":575,"o":"m 347 -221 q 175 50 231 -95 q 119 372 119 195 q 346 972 119 703 l 574 972 q 423 682 472 830 q 374 372 374 534 q 423 61 374 205 q 575 -221 473 -82 l 347 -221 z "},")":{"ha":585,"x_min":9,"x_max":465,"o":"m 465 372 q 409 49 465 194 q 237 -221 353 -96 l 9 -221 q 212 372 212 51 q 164 679 212 530 q 11 972 115 827 l 239 972 q 465 372 465 704 z "},"*":{"ha":672,"x_min":41,"x_max":631,"o":"m 440 671 l 581 539 l 424 432 l 336 602 l 249 433 l 92 539 l 232 671 l 41 689 l 103 863 l 273 782 l 233 972 l 439 972 l 399 782 l 570 863 l 631 689 l 440 671 z "},"+":{"ha":993,"x_min":161,"x_max":833,"o":"m 581 309 l 581 56 l 412 56 l 412 309 l 161 309 l 161 476 l 412 476 l 412 728 l 581 728 l 581 476 l 833 476 l 833 309 l 581 309 z "},",":{"ha":444,"x_min":29,"x_max":359,"o":"m 262 -161 l 29 -161 l 98 184 l 359 184 l 262 -161 z "},"-":{"ha":566,"x_min":97,"x_max":468,"o":"m 97 267 l 97 461 l 468 461 l 468 267 l 97 267 z "},".":{"ha":444,"x_min":61,"x_max":383,"o":"m 383 121 q 340 21 383 59 q 220 -17 296 -17 q 105 23 150 -17 q 61 121 61 62 q 105 217 61 180 q 222 254 149 254 q 339 217 294 254 q 383 121 383 180 z "},"/":{"ha":669,"x_min":-46,"x_max":689,"o":"m 208 -161 l -46 -161 l 435 972 l 689 972 l 208 -161 z "},":":{"ha":444,"x_min":61,"x_max":383,"o":"m 383 561 q 339 461 383 499 q 220 424 296 424 q 106 463 151 424 q 61 561 61 503 q 105 657 61 621 q 222 694 149 694 q 339 657 294 694 q 383 561 383 621 m 383 121 q 340 21 383 59 q 220 -17 296 -17 q 105 23 150 -17 q 61 121 61 62 q 105 217 61 180 q 222 254 149 254 q 339 217 294 254 q 383 121 383 180 z "},";":{"ha":444,"x_min":29,"x_max":390,"o":"m 390 561 q 346 461 390 499 q 227 424 302 424 q 113 463 157 424 q 68 561 68 503 q 112 657 68 621 q 229 694 155 694 q 346 657 301 694 q 390 561 390 621 m 262 -161 l 29 -161 l 98 184 l 359 184 l 262 -161 z "},"<":{"ha":993,"x_min":161,"x_max":833,"o":"m 161 296 l 161 458 l 833 734 l 833 536 l 357 376 l 357 374 l 833 214 l 833 16 l 161 296 z "},"=":{"ha":993,"x_min":161,"x_max":833,"o":"m 161 452 l 161 619 l 833 619 l 833 452 l 161 452 m 161 160 l 161 328 l 833 328 l 833 160 l 161 160 z "},">":{"ha":993,"x_min":161,"x_max":833,"o":"m 161 29 l 161 229 l 636 387 l 636 390 l 161 549 l 161 749 l 833 472 l 833 310 l 161 29 z "},"?":{"ha":587,"x_min":20,"x_max":615,"o":"m 615 746 q 469 481 615 595 q 399 412 420 441 q 379 338 379 382 l 379 314 l 151 314 l 151 374 q 233 568 151 498 q 302 631 287 614 q 324 663 317 648 q 330 700 330 679 q 308 743 330 726 q 249 761 285 761 q 20 673 140 761 l 20 940 q 139 983 64 965 q 273 1002 214 1002 q 527 936 439 1002 q 615 746 615 871 m 435 121 q 391 22 435 60 q 273 -17 347 -17 q 157 23 202 -17 q 113 121 113 62 q 156 217 113 180 q 273 254 200 254 q 390 217 346 254 q 435 121 435 180 z "},"@":{"ha":1318,"x_min":68,"x_max":1250,"o":"m 1250 519 q 1205 312 1250 402 q 1078 172 1160 222 q 896 122 996 122 q 790 151 836 122 q 733 224 744 180 l 729 224 q 665 150 705 178 q 575 122 624 122 q 422 192 479 122 q 366 380 366 261 q 397 556 366 479 q 492 681 429 633 q 623 728 555 728 q 745 654 715 728 l 747 654 l 753 713 l 957 713 q 938 505 950 650 q 926 329 926 359 l 926 315 q 935 287 926 298 q 961 275 944 275 q 1028 337 1002 275 q 1054 517 1054 398 q 1015 682 1054 610 q 900 794 975 754 q 720 835 825 835 q 493 776 595 835 q 330 611 390 717 q 269 386 269 506 q 374 116 269 210 q 673 21 479 21 q 814 38 740 21 q 946 83 888 56 l 946 -77 q 643 -127 826 -127 q 337 -61 471 -127 q 136 121 204 5 q 68 396 68 238 q 150 693 68 555 q 375 908 232 832 q 697 985 517 985 q 990 929 865 985 q 1182 767 1115 873 q 1250 519 1250 661 m 741 485 q 721 554 741 529 q 668 579 701 579 q 596 522 625 579 q 567 386 567 464 q 584 301 567 332 q 633 271 602 271 q 711 331 682 271 q 741 485 741 391 z "},"A":{"ha":1042,"x_min":9,"x_max":1023,"o":"m 705 0 l 663 179 l 372 179 l 326 0 l 9 0 l 345 972 l 708 972 l 1023 0 l 705 0 m 521 761 l 514 761 q 505 707 513 745 q 422 387 496 670 l 608 387 l 541 652 q 521 761 526 710 z "},"B":{"ha":960,"x_min":96,"x_max":926,"o":"m 926 298 q 826 78 926 155 q 539 0 726 0 l 96 0 l 96 972 l 509 972 q 896 737 896 972 q 871 644 896 686 q 797 570 847 602 q 688 526 747 538 l 688 524 q 812 483 757 515 q 897 400 867 450 q 926 298 926 351 m 585 686 q 443 777 585 777 l 389 777 l 389 593 l 473 593 q 553 619 522 593 q 585 686 585 645 m 615 300 q 585 369 615 342 q 504 396 554 396 l 389 396 l 389 197 l 486 197 q 581 225 546 197 q 615 300 615 252 z "},"C":{"ha":875,"x_min":41,"x_max":819,"o":"m 819 26 q 541 -17 699 -17 q 273 42 385 -17 q 101 211 160 102 q 41 464 41 321 q 108 738 41 618 q 296 923 174 858 q 575 989 417 989 q 819 958 701 989 l 819 688 q 722 726 779 712 q 608 739 666 739 q 420 671 489 739 q 351 485 351 602 q 420 301 351 368 q 604 233 489 233 q 819 288 711 233 l 819 26 z "},"D":{"ha":1054,"x_min":96,"x_max":1013,"o":"m 1013 498 q 950 237 1013 351 q 773 62 888 123 q 507 0 658 0 l 96 0 l 96 972 l 498 972 q 1013 498 1013 972 m 701 496 q 672 624 701 567 q 590 712 644 681 q 464 743 536 743 l 389 743 l 389 229 l 471 229 q 638 301 576 229 q 701 496 701 374 z "},"E":{"ha":766,"x_min":96,"x_max":724,"o":"m 96 0 l 96 972 l 701 972 l 701 743 l 389 743 l 389 602 l 682 602 l 682 372 l 389 372 l 389 229 l 724 229 l 724 0 l 96 0 z "},"F":{"ha":751,"x_min":96,"x_max":705,"o":"m 389 743 l 389 568 l 677 568 l 677 339 l 389 339 l 389 0 l 96 0 l 96 972 l 705 972 l 705 743 l 389 743 z "},"G":{"ha":1010,"x_min":41,"x_max":947,"o":"m 947 64 q 783 8 892 33 q 575 -17 674 -17 q 180 111 319 -17 q 41 469 41 239 q 112 744 41 624 q 309 926 182 864 q 610 989 437 989 q 880 953 736 989 l 880 697 q 751 740 813 728 q 616 751 690 751 q 424 679 496 751 q 353 479 353 606 q 413 290 353 358 q 581 221 473 221 q 654 227 631 221 l 654 366 l 468 366 l 468 587 l 947 587 l 947 64 z "},"H":{"ha":1114,"x_min":96,"x_max":1018,"o":"m 725 0 l 725 363 l 389 363 l 389 0 l 96 0 l 96 972 l 389 972 l 389 612 l 725 612 l 725 972 l 1018 972 l 1018 0 l 725 0 z "},"I":{"ha":484,"x_min":96,"x_max":389,"o":"m 96 0 l 96 972 l 389 972 l 389 0 l 96 0 z "},"J":{"ha":710,"x_min":28,"x_max":625,"o":"m 625 415 q 205 -17 625 -17 q 124 -9 172 -17 q 28 16 77 -1 l 28 286 q 105 248 62 262 q 175 233 147 233 q 293 282 254 233 q 332 432 332 330 l 332 972 l 625 972 l 625 415 z "},"K":{"ha":958,"x_min":96,"x_max":989,"o":"m 633 0 l 418 411 q 392 478 396 460 l 389 478 l 389 0 l 96 0 l 96 972 l 389 972 l 389 510 l 392 510 q 421 578 405 547 l 615 972 l 962 972 l 686 509 l 989 0 l 633 0 z "},"L":{"ha":751,"x_min":96,"x_max":724,"o":"m 96 0 l 96 972 l 389 972 l 389 229 l 724 229 l 724 0 l 96 0 z "},"M":{"ha":1371,"x_min":96,"x_max":1275,"o":"m 986 0 l 986 533 q 991 699 986 608 l 993 743 l 985 743 q 951 585 963 629 l 808 0 l 533 0 l 383 578 q 351 743 377 600 l 343 743 q 353 458 353 515 l 353 0 l 96 0 l 96 972 l 534 972 l 668 444 q 681 378 673 428 q 690 301 688 328 l 694 301 q 718 447 702 363 l 843 972 l 1275 972 l 1275 0 l 986 0 z "},"N":{"ha":1128,"x_min":96,"x_max":1032,"o":"m 775 0 l 432 469 q 366 570 391 525 l 363 570 q 367 408 367 498 l 367 0 l 96 0 l 96 972 l 372 972 l 701 526 q 716 505 707 517 q 734 480 725 493 q 750 455 743 467 q 762 433 758 443 l 765 433 q 761 536 761 463 l 761 972 l 1032 972 l 1032 0 l 775 0 z "},"O":{"ha":1063,"x_min":41,"x_max":1021,"o":"m 1021 489 q 958 227 1021 342 q 781 47 895 111 q 528 -17 668 -17 q 278 45 391 -17 q 104 219 166 107 q 41 473 41 332 q 104 741 41 622 q 281 924 168 859 q 541 989 395 989 q 790 927 680 989 q 961 750 901 865 q 1021 489 1021 635 m 710 481 q 664 670 710 601 q 538 739 618 739 q 401 673 450 739 q 353 485 353 606 q 401 300 353 366 q 533 233 450 233 q 625 263 584 233 q 688 349 665 293 q 710 481 710 404 z "},"P":{"ha":911,"x_min":96,"x_max":890,"o":"m 890 652 q 840 475 890 552 q 696 355 789 397 q 478 313 602 313 l 389 313 l 389 0 l 96 0 l 96 972 l 494 972 q 795 895 700 972 q 890 652 890 817 m 581 642 q 546 732 581 701 q 444 762 511 762 l 389 762 l 389 522 l 454 522 q 581 642 581 522 z "},"Q":{"ha":1063,"x_min":41,"x_max":1132,"o":"m 1021 489 q 875 117 1021 263 l 1132 -131 l 764 -131 l 641 -5 q 528 -17 587 -17 q 278 45 391 -17 q 104 219 166 107 q 41 473 41 332 q 104 741 41 622 q 281 924 168 859 q 541 989 395 989 q 790 927 680 989 q 961 750 901 865 q 1021 489 1021 635 m 710 481 q 664 670 710 601 q 538 739 618 739 q 401 673 450 739 q 353 485 353 606 q 401 300 353 366 q 533 233 450 233 q 661 300 612 233 q 710 481 710 368 z "},"R":{"ha":947,"x_min":96,"x_max":930,"o":"m 600 0 l 528 210 q 473 307 507 271 q 400 342 439 342 l 389 342 l 389 0 l 96 0 l 96 972 l 485 972 q 786 906 689 972 q 884 705 884 839 q 827 537 884 605 q 659 439 770 469 l 659 436 q 761 374 720 417 q 835 248 802 332 l 930 0 l 600 0 m 572 664 q 543 741 572 713 q 449 770 513 770 l 389 770 l 389 547 l 441 547 q 536 581 500 547 q 572 664 572 614 z "},"S":{"ha":794,"x_min":56,"x_max":771,"o":"m 771 294 q 719 125 771 197 q 574 18 667 54 q 349 -17 480 -17 q 69 35 196 -17 l 69 301 q 204 229 130 256 q 342 201 278 201 q 416 219 390 201 q 443 269 443 236 q 430 311 443 293 q 390 345 416 329 q 290 387 363 360 q 56 679 56 477 q 163 904 56 820 q 450 989 270 989 q 544 985 501 989 q 622 975 587 981 q 720 951 656 968 l 720 704 q 478 771 597 771 q 399 753 429 771 q 370 703 370 734 q 394 652 370 672 q 494 600 418 632 q 708 467 646 539 q 771 294 771 394 z "},"T":{"ha":884,"x_min":21,"x_max":863,"o":"m 587 743 l 587 0 l 293 0 l 293 743 l 21 743 l 21 972 l 863 972 l 863 743 l 587 743 z "},"U":{"ha":1028,"x_min":85,"x_max":943,"o":"m 943 444 q 837 97 943 210 q 507 -17 730 -17 q 192 97 300 -17 q 85 439 85 210 l 85 972 l 379 972 l 379 428 q 414 284 379 334 q 514 233 449 233 q 614 281 580 233 q 648 421 648 328 l 648 972 l 943 972 l 943 444 z "},"V":{"ha":975,"x_min":7,"x_max":968,"o":"m 650 0 l 321 0 l 7 972 l 322 972 l 471 374 q 490 265 488 301 l 497 265 q 518 378 501 311 l 663 972 l 968 972 l 650 0 z "},"W":{"ha":1463,"x_min":14,"x_max":1449,"o":"m 1203 0 l 892 0 l 757 554 q 743 672 751 578 l 741 672 q 721 554 730 589 l 575 0 l 245 0 l 14 972 l 335 972 l 416 400 q 422 337 418 389 l 427 281 l 431 281 q 439 341 432 298 q 452 404 446 383 l 602 972 l 921 972 l 1046 396 l 1055 338 l 1061 282 l 1064 282 l 1066 306 l 1075 400 l 1160 972 l 1449 972 l 1203 0 z "},"X":{"ha":975,"x_min":0,"x_max":975,"o":"m 631 0 l 510 267 q 495 316 498 292 q 489 355 491 340 l 486 355 q 477 313 482 339 q 461 261 471 286 l 349 0 l 0 0 l 292 485 l 26 972 l 380 972 l 475 715 q 498 621 488 680 l 501 621 q 526 717 512 687 l 636 972 l 962 972 l 689 490 l 975 0 l 631 0 z "},"Y":{"ha":903,"x_min":0,"x_max":903,"o":"m 593 338 l 593 0 l 300 0 l 300 334 l 0 972 l 336 972 l 441 667 q 457 612 452 635 q 467 566 461 589 l 469 566 q 489 661 478 627 l 593 972 l 903 972 l 593 338 z "},"Z":{"ha":890,"x_min":41,"x_max":857,"o":"m 418 229 l 857 229 l 857 0 l 41 0 l 41 205 l 490 743 l 69 743 l 69 972 l 843 972 l 843 768 l 418 229 z "},"[":{"ha":585,"x_min":158,"x_max":526,"o":"m 158 -221 l 158 972 l 526 972 l 526 798 l 390 798 l 390 -46 l 526 -46 l 526 -221 l 158 -221 z "},"\\":{"ha":669,"x_min":14,"x_max":739,"o":"m 488 -161 l 14 972 l 267 972 l 739 -161 l 488 -161 z "},"]":{"ha":585,"x_min":58,"x_max":427,"o":"m 58 -221 l 58 -46 l 195 -46 l 195 798 l 58 798 l 58 972 l 427 972 l 427 -221 l 58 -221 z "},"^":{"ha":993,"x_min":127,"x_max":865,"o":"m 659 427 l 498 802 l 494 802 l 335 427 l 127 427 l 415 989 l 578 989 l 865 427 l 659 427 z "},"_":{"ha":576,"x_min":0,"x_max":576,"o":"m 0 -201 l 0 -121 l 576 -121 l 576 -201 l 0 -201 z "},"`":{"ha":482,"x_min":20,"x_max":465,"o":"m 261 804 l 20 1022 l 262 1022 l 465 804 l 261 804 z "},"a":{"ha":779,"x_min":31,"x_max":718,"o":"m 454 0 l 454 106 l 452 106 q 240 -17 382 -17 q 86 41 142 -17 q 31 197 31 100 q 282 435 31 402 l 454 457 q 424 513 454 491 q 342 534 393 534 q 96 468 225 534 l 96 656 q 237 696 152 680 q 382 711 321 711 q 638 636 559 711 q 718 383 718 560 l 718 0 l 454 0 m 283 236 q 301 189 283 208 q 353 171 319 171 q 426 205 398 171 q 454 292 454 239 l 454 318 l 357 304 q 283 236 283 292 z "},"b":{"ha":892,"x_min":69,"x_max":852,"o":"m 852 368 q 815 166 852 254 q 708 31 777 79 q 551 -17 639 -17 q 436 8 484 -17 q 361 72 389 33 l 358 72 l 358 0 l 69 0 l 69 1028 l 358 1028 l 358 600 l 361 600 q 453 682 395 652 q 581 711 511 711 q 782 624 712 711 q 852 368 852 536 m 559 359 q 533 465 559 429 q 456 500 506 500 q 382 463 412 500 q 353 367 353 426 l 353 325 q 379 230 353 265 q 450 195 406 195 q 531 238 503 195 q 559 359 559 281 z "},"c":{"ha":688,"x_min":39,"x_max":642,"o":"m 642 20 q 554 -7 614 3 q 416 -17 494 -17 q 220 27 307 -17 q 86 152 134 72 q 39 332 39 232 q 89 536 39 451 q 233 666 140 621 q 450 711 327 711 q 572 703 518 711 q 642 682 626 694 l 642 457 q 579 487 620 474 q 504 500 538 500 q 375 459 419 500 q 332 346 332 419 q 375 234 332 274 q 493 195 418 195 q 642 233 574 195 l 642 20 z "},"d":{"ha":892,"x_min":39,"x_max":822,"o":"m 533 0 l 533 81 l 530 81 q 440 9 496 35 q 330 -17 385 -17 q 174 27 241 -17 q 72 149 106 71 q 39 335 39 228 q 79 531 39 446 q 191 664 119 616 q 354 711 264 711 q 433 699 397 711 q 496 666 469 687 q 530 625 523 646 l 533 625 l 533 1028 l 822 1028 l 822 0 l 533 0 m 539 368 q 512 465 539 431 q 437 500 484 500 q 361 457 391 500 q 332 342 332 414 q 433 195 332 195 q 510 234 481 195 q 539 350 539 274 l 539 368 z "},"e":{"ha":778,"x_min":39,"x_max":747,"o":"m 318 265 q 370 195 326 220 q 486 170 414 170 q 677 208 587 170 l 677 25 q 422 -17 572 -17 q 140 76 241 -17 q 39 332 39 169 q 83 529 39 444 q 215 663 127 614 q 407 711 302 711 q 591 669 515 711 q 708 551 668 627 q 747 374 747 475 l 747 265 l 318 265 m 492 416 q 406 536 492 536 q 345 504 370 536 q 317 416 321 471 l 492 416 z "},"f":{"ha":599,"x_min":21,"x_max":604,"o":"m 604 818 q 521 833 559 833 q 450 809 473 833 q 427 742 427 784 l 427 694 l 587 694 l 587 494 l 427 494 l 427 0 l 138 0 l 138 494 l 21 494 l 21 694 l 138 694 l 138 758 q 177 908 138 843 q 291 1008 216 972 q 473 1044 366 1044 q 604 1029 551 1044 l 604 818 z "},"g":{"ha":892,"x_min":39,"x_max":822,"o":"m 822 97 q 696 -215 822 -103 q 329 -326 570 -326 q 203 -316 264 -326 q 115 -293 142 -306 l 115 -66 q 217 -110 159 -94 q 321 -126 275 -126 q 476 -79 418 -126 q 534 45 534 -33 l 534 87 l 532 87 q 446 12 500 40 q 329 -17 391 -17 q 117 76 195 -17 q 39 334 39 170 q 79 532 39 446 q 193 665 120 618 q 353 711 265 711 q 532 623 473 711 l 534 623 l 534 694 l 822 694 l 822 97 m 539 367 q 512 464 539 428 q 439 500 484 500 q 361 456 390 500 q 332 340 332 413 q 356 234 332 273 q 433 195 380 195 q 511 235 483 195 q 539 343 539 275 l 539 367 z "},"h":{"ha":857,"x_min":69,"x_max":796,"o":"m 517 0 l 517 396 q 437 500 517 500 q 378 470 399 500 q 358 395 358 441 l 358 0 l 69 0 l 69 1028 l 358 1028 l 358 600 l 361 600 q 451 683 398 654 q 566 711 505 711 q 737 639 678 711 q 796 427 796 567 l 796 0 l 517 0 z "},"i":{"ha":428,"x_min":53,"x_max":375,"o":"m 375 882 q 331 783 375 821 q 214 745 286 745 q 98 784 143 745 q 53 882 53 823 q 97 978 53 941 q 214 1015 140 1015 q 331 978 286 1015 q 375 882 375 941 m 69 0 l 69 694 l 358 694 l 358 0 l 69 0 z "},"j":{"ha":428,"x_min":-65,"x_max":375,"o":"m 375 882 q 331 783 375 821 q 214 745 286 745 q 98 784 143 745 q 53 882 53 823 q 97 978 53 941 q 214 1015 140 1015 q 331 978 286 1015 q 375 882 375 941 m 358 -7 q 322 -174 358 -98 q 216 -288 286 -250 q 50 -326 146 -326 q -65 -306 -3 -326 l -65 -94 q 4 -115 -27 -115 q 55 -91 40 -115 q 69 -18 69 -67 l 69 694 l 358 694 l 358 -7 z "},"k":{"ha":823,"x_min":69,"x_max":838,"o":"m 515 0 l 361 357 l 358 357 l 358 0 l 69 0 l 69 1028 l 358 1028 l 358 368 l 361 368 l 501 694 l 827 694 l 639 376 l 838 0 l 515 0 z "},"l":{"ha":428,"x_min":69,"x_max":358,"o":"m 69 0 l 69 1028 l 358 1028 l 358 0 l 69 0 z "},"m":{"ha":1320,"x_min":69,"x_max":1258,"o":"m 970 0 l 970 400 q 952 475 970 450 q 893 500 934 500 q 831 470 853 500 q 808 386 808 439 l 808 0 l 519 0 l 519 393 q 447 500 519 500 q 380 469 403 500 q 358 380 358 438 l 358 0 l 69 0 l 69 694 l 358 694 l 358 585 l 361 585 q 413 644 377 614 q 493 693 448 674 q 590 711 538 711 q 714 682 664 711 q 799 590 765 653 q 897 680 836 648 q 1032 711 958 711 q 1200 640 1141 711 q 1258 435 1258 569 l 1258 0 l 970 0 z "},"n":{"ha":869,"x_min":69,"x_max":808,"o":"m 519 0 l 519 379 q 500 472 519 444 q 437 500 481 500 q 379 471 400 500 q 358 396 358 441 l 358 0 l 69 0 l 69 694 l 358 694 l 358 586 l 361 586 q 454 679 395 646 q 581 711 512 711 q 808 424 808 711 l 808 0 l 519 0 z "},"o":{"ha":880,"x_min":39,"x_max":842,"o":"m 842 359 q 735 83 842 184 q 439 -17 629 -17 q 144 81 250 -17 q 39 351 39 179 q 88 543 39 462 q 229 668 138 625 q 440 711 321 711 q 654 666 564 711 q 793 540 745 621 q 842 359 842 459 m 549 358 q 440 500 549 500 q 332 351 332 500 q 441 195 332 195 q 549 358 549 195 z "},"p":{"ha":892,"x_min":69,"x_max":852,"o":"m 852 368 q 814 167 852 254 q 705 31 775 79 q 546 -17 634 -17 q 361 72 424 -17 l 358 72 l 358 -319 l 69 -319 l 69 694 l 358 694 l 358 600 l 361 600 q 450 682 395 652 q 575 711 505 711 q 781 622 709 711 q 852 368 852 532 m 559 359 q 534 463 559 425 q 456 500 509 500 q 381 460 410 500 q 353 353 353 421 l 353 339 q 377 234 353 273 q 450 195 401 195 q 531 238 503 195 q 559 359 559 281 z "},"q":{"ha":892,"x_min":39,"x_max":822,"o":"m 533 -319 l 533 79 l 530 79 q 443 9 498 36 q 329 -17 387 -17 q 177 24 243 -17 q 75 142 112 64 q 39 334 39 220 q 79 532 39 446 q 193 665 120 618 q 353 711 265 711 q 530 623 471 711 l 533 623 l 533 694 l 822 694 l 822 -319 l 533 -319 m 539 366 q 512 464 539 429 q 439 500 484 500 q 361 456 391 500 q 332 340 332 413 q 357 234 332 273 q 432 195 382 195 q 511 234 482 195 q 539 343 539 273 l 539 366 z "},"r":{"ha":606,"x_min":69,"x_max":591,"o":"m 591 447 q 547 460 575 454 q 501 467 519 467 q 358 301 358 467 l 358 0 l 69 0 l 69 694 l 358 694 l 358 572 l 361 572 q 436 672 387 638 q 550 707 485 707 q 591 699 574 707 l 591 447 z "},"s":{"ha":671,"x_min":65,"x_max":633,"o":"m 633 231 q 544 48 633 113 q 293 -17 454 -17 q 177 -7 246 -17 q 65 16 109 2 l 65 218 q 279 161 193 161 q 364 205 364 161 q 345 236 364 224 q 241 275 325 248 q 107 353 149 304 q 65 478 65 401 q 151 649 65 586 q 392 711 237 711 q 585 685 483 711 l 585 490 q 491 521 542 509 q 406 533 440 533 q 360 524 377 533 q 343 497 343 514 q 361 465 343 477 q 435 436 380 453 q 587 356 541 405 q 633 231 633 307 z "},"t":{"ha":579,"x_min":20,"x_max":558,"o":"m 558 9 q 494 -8 538 0 q 386 -17 449 -17 q 197 50 265 -17 q 129 239 129 116 l 129 494 l 20 494 l 20 694 l 129 694 l 129 831 l 414 909 l 414 694 l 558 694 l 558 494 l 414 494 l 414 286 q 486 195 414 195 q 558 210 520 195 l 558 9 z "},"u":{"ha":869,"x_min":61,"x_max":800,"o":"m 511 0 l 511 107 l 509 107 q 444 35 473 58 q 379 -3 415 12 q 294 -17 342 -17 q 121 57 180 -17 q 61 275 61 131 l 61 694 l 350 694 l 350 297 q 427 195 350 195 q 490 222 469 195 q 511 301 511 250 l 511 694 l 800 694 l 800 0 l 511 0 z "},"v":{"ha":817,"x_min":0,"x_max":817,"o":"m 575 0 l 232 0 l 0 694 l 301 694 l 386 315 q 408 178 406 224 l 412 178 q 416 205 414 191 q 517 694 418 220 l 817 694 l 575 0 z "},"w":{"ha":1174,"x_min":9,"x_max":1164,"o":"m 970 0 l 669 0 l 600 338 q 587 446 587 399 l 583 446 q 568 342 576 374 l 493 0 l 193 0 l 9 694 l 300 694 l 359 290 l 370 200 l 374 200 q 386 293 382 279 l 475 694 l 750 694 l 827 293 l 833 245 l 836 201 l 840 201 l 842 221 l 904 694 l 1164 694 l 970 0 z "},"x":{"ha":863,"x_min":-3,"x_max":865,"o":"m 640 370 l 864 0 l 532 0 l 457 158 q 428 231 444 184 l 425 231 q 407 174 411 184 q 328 0 403 163 l -3 0 l 228 350 l 11 694 l 345 694 l 419 533 q 449 457 434 505 l 452 457 q 479 534 471 516 l 550 694 l 865 694 l 640 370 z "},"y":{"ha":798,"x_min":-14,"x_max":811,"o":"m 204 -326 q 117 -319 163 -326 q 33 -298 70 -312 l 33 -81 q 84 -104 50 -94 q 147 -115 117 -115 q 254 -52 228 -115 l 277 3 l -14 694 l 306 694 l 390 359 q 416 233 414 266 l 419 233 q 425 267 421 248 q 530 694 429 285 l 811 694 l 555 -20 q 413 -255 498 -184 q 204 -326 328 -326 z "},"z":{"ha":707,"x_min":17,"x_max":682,"o":"m 396 200 l 682 200 l 682 0 l 17 0 l 17 134 l 329 494 l 46 494 l 46 694 l 676 694 l 676 530 l 396 200 z "},"{":{"ha":585,"x_min":81,"x_max":517,"o":"m 517 -221 q 319 -195 391 -221 q 214 -114 246 -169 q 182 56 182 -58 l 182 178 q 81 300 182 300 l 81 452 q 182 575 182 452 l 182 689 q 213 864 182 808 q 317 946 245 920 q 517 972 389 972 l 517 821 q 435 795 461 821 q 408 710 408 770 l 408 614 q 383 463 408 522 q 301 378 358 405 l 301 375 q 383 288 357 348 q 408 129 408 227 l 408 43 q 433 -44 408 -18 q 517 -69 458 -69 l 517 -221 z "},"|":{"ha":553,"x_min":165,"x_max":387,"o":"m 165 -326 l 165 1063 l 387 1063 l 387 -326 l 165 -326 z "},"}":{"ha":585,"x_min":68,"x_max":504,"o":"m 504 300 q 403 176 403 300 l 403 62 q 371 -113 403 -57 q 268 -195 340 -169 q 68 -221 195 -221 l 68 -69 q 150 -44 124 -69 q 176 41 176 -19 l 176 138 q 201 288 176 229 q 283 374 226 346 l 283 376 q 202 465 227 404 q 176 623 176 526 l 176 708 q 152 794 176 768 q 68 821 127 821 l 68 972 q 266 946 194 972 q 371 865 338 920 q 403 696 403 810 l 403 574 q 504 452 403 452 l 504 300 z "},"~":{"ha":993,"x_min":132,"x_max":861,"o":"m 861 526 q 798 336 857 408 q 642 264 739 264 q 547 278 587 264 q 456 321 507 292 q 378 351 405 351 q 325 327 345 351 q 300 256 304 302 l 132 256 q 195 449 136 378 q 357 519 255 519 q 439 508 404 519 q 509 478 475 496 q 567 446 541 460 q 619 432 593 432 q 671 459 652 432 q 693 526 691 486 l 861 526 z "},"Ä":{"ha":1042,"x_min":9,"x_max":1023,"o":"m 705 0 l 663 179 l 372 179 l 326 0 l 9 0 l 345 972 l 708 972 l 1023 0 l 705 0 m 521 761 l 514 761 q 505 707 513 745 q 422 387 496 670 l 608 387 l 541 652 q 521 761 526 710 m 821 1166 q 785 1086 821 1117 q 690 1055 750 1055 q 596 1087 633 1055 q 559 1166 559 1118 q 595 1244 559 1215 q 690 1274 631 1274 q 785 1244 749 1274 q 821 1166 821 1214 m 481 1166 q 446 1087 481 1118 q 350 1055 411 1055 q 256 1087 292 1055 q 220 1166 220 1120 q 256 1244 220 1215 q 350 1274 292 1274 q 445 1245 409 1274 q 481 1166 481 1215 z "},"Å":{"ha":1042,"x_min":9,"x_max":1023,"o":"m 705 0 l 663 179 l 372 179 l 326 0 l 9 0 l 345 972 q 326 1050 326 1009 q 381 1176 326 1128 q 524 1223 437 1223 q 670 1175 616 1223 q 725 1050 725 1127 q 708 972 725 1004 l 1023 0 l 705 0 m 596 1050 q 578 1092 596 1074 q 524 1109 560 1109 q 474 1092 490 1109 q 457 1050 457 1075 q 475 1007 457 1025 q 524 990 494 990 q 576 1007 556 990 q 596 1050 596 1024 m 521 750 l 514 750 q 505 700 508 711 q 428 408 503 688 l 603 408 l 539 652 q 526 713 530 689 l 521 750 z "},"Ç":{"ha":875,"x_min":41,"x_max":819,"o":"m 819 26 q 585 -16 730 -7 l 585 -45 q 717 -165 717 -54 q 655 -281 717 -241 q 481 -321 594 -321 q 403 -317 445 -321 l 403 -200 q 458 -205 428 -205 q 517 -194 497 -205 q 536 -165 536 -183 q 520 -135 536 -144 q 467 -125 505 -125 l 454 -125 l 440 -126 l 440 -9 q 226 71 315 7 q 89 234 136 134 q 41 464 41 335 q 108 738 41 618 q 296 923 174 858 q 575 989 417 989 q 819 958 701 989 l 819 688 q 722 726 779 712 q 608 739 666 739 q 420 671 489 739 q 351 485 351 602 q 420 301 351 368 q 604 233 489 233 q 819 288 711 233 l 819 26 z "},"É":{"ha":766,"x_min":96,"x_max":724,"o":"m 96 0 l 96 972 l 701 972 l 701 743 l 389 743 l 389 602 l 682 602 l 682 372 l 389 372 l 389 229 l 724 229 l 724 0 l 96 0 m 451 1063 l 247 1063 l 450 1280 l 692 1280 l 451 1063 z "},"Ñ":{"ha":1128,"x_min":96,"x_max":1032,"o":"m 775 0 l 432 469 q 366 570 391 525 l 363 570 q 367 408 367 498 l 367 0 l 96 0 l 96 972 l 372 972 l 701 526 q 716 505 707 517 q 734 480 725 493 q 750 455 743 467 q 762 433 758 443 l 765 433 q 761 536 761 463 l 761 972 l 1032 972 l 1032 0 l 775 0 m 829 1303 q 789 1132 829 1191 q 671 1072 748 1072 q 556 1105 612 1072 q 514 1131 533 1119 q 473 1143 494 1143 q 432 1122 447 1143 q 417 1063 417 1101 l 299 1063 q 341 1236 299 1178 q 454 1293 382 1293 q 583 1254 524 1293 q 620 1232 602 1242 q 659 1222 637 1222 q 696 1242 682 1222 q 710 1303 710 1262 l 829 1303 z "},"Ö":{"ha":1063,"x_min":41,"x_max":1021,"o":"m 1021 489 q 958 227 1021 342 q 781 47 895 111 q 528 -17 668 -17 q 278 45 391 -17 q 104 219 166 107 q 41 473 41 332 q 104 741 41 622 q 281 924 168 859 q 541 989 395 989 q 790 927 680 989 q 961 750 901 865 q 1021 489 1021 635 m 710 481 q 664 670 710 601 q 538 739 618 739 q 401 673 450 739 q 353 485 353 606 q 401 300 353 366 q 533 233 450 233 q 625 263 584 233 q 688 349 665 293 q 710 481 710 404 m 831 1166 q 795 1086 831 1117 q 701 1055 760 1055 q 607 1087 644 1055 q 570 1166 570 1118 q 606 1244 570 1215 q 701 1274 642 1274 q 795 1244 760 1274 q 831 1166 831 1214 m 491 1166 q 456 1087 491 1118 q 360 1055 421 1055 q 266 1087 302 1055 q 230 1166 230 1120 q 266 1244 230 1215 q 360 1274 302 1274 q 455 1245 419 1274 q 491 1166 491 1215 z "},"Ü":{"ha":1028,"x_min":85,"x_max":943,"o":"m 943 444 q 837 97 943 210 q 507 -17 730 -17 q 192 97 300 -17 q 85 439 85 210 l 85 972 l 379 972 l 379 428 q 414 284 379 334 q 514 233 449 233 q 614 281 580 233 q 648 421 648 328 l 648 972 l 943 972 l 943 444 m 814 1166 q 779 1086 814 1117 q 684 1055 743 1055 q 590 1087 627 1055 q 553 1166 553 1118 q 589 1244 553 1215 q 684 1274 625 1274 q 778 1244 743 1274 q 814 1166 814 1214 m 474 1166 q 439 1087 474 1118 q 343 1055 404 1055 q 249 1087 286 1055 q 213 1166 213 1120 q 249 1244 213 1215 q 343 1274 285 1274 q 438 1245 402 1274 q 474 1166 474 1215 z "},"á":{"ha":779,"x_min":31,"x_max":718,"o":"m 454 0 l 454 106 l 452 106 q 240 -17 382 -17 q 86 41 142 -17 q 31 197 31 100 q 282 435 31 402 l 454 457 q 424 513 454 491 q 342 534 393 534 q 96 468 225 534 l 96 656 q 237 696 152 680 q 382 711 321 711 q 638 636 559 711 q 718 383 718 560 l 718 0 l 454 0 m 283 236 q 301 189 283 208 q 353 171 319 171 q 426 205 398 171 q 454 292 454 239 l 454 318 l 357 304 q 283 236 283 292 m 412 804 l 208 804 l 410 1022 l 653 1022 l 412 804 z "},"à":{"ha":779,"x_min":31,"x_max":718,"o":"m 454 0 l 454 106 l 452 106 q 240 -17 382 -17 q 86 41 142 -17 q 31 197 31 100 q 282 435 31 402 l 454 457 q 424 513 454 491 q 342 534 393 534 q 96 468 225 534 l 96 656 q 237 696 152 680 q 382 711 321 711 q 638 636 559 711 q 718 383 718 560 l 718 0 l 454 0 m 283 236 q 301 189 283 208 q 353 171 319 171 q 426 205 398 171 q 454 292 454 239 l 454 318 l 357 304 q 283 236 283 292 m 339 804 l 98 1022 l 340 1022 l 543 804 l 339 804 z "},"â":{"ha":779,"x_min":31,"x_max":718,"o":"m 454 0 l 454 106 l 452 106 q 240 -17 382 -17 q 86 41 142 -17 q 31 197 31 100 q 282 435 31 402 l 454 457 q 424 513 454 491 q 342 534 393 534 q 96 468 225 534 l 96 656 q 237 696 152 680 q 382 711 321 711 q 638 636 559 711 q 718 383 718 560 l 718 0 l 454 0 m 283 236 q 301 189 283 208 q 353 171 319 171 q 426 205 398 171 q 454 292 454 239 l 454 318 l 357 304 q 283 236 283 292 m 492 804 l 391 908 l 292 804 l 114 804 l 288 1022 l 503 1022 l 676 804 l 492 804 z "},"ä":{"ha":779,"x_min":31,"x_max":718,"o":"m 454 0 l 454 106 l 452 106 q 240 -17 382 -17 q 86 41 142 -17 q 31 197 31 100 q 282 435 31 402 l 454 457 q 424 513 454 491 q 342 534 393 534 q 96 468 225 534 l 96 656 q 237 696 152 680 q 382 711 321 711 q 638 636 559 711 q 718 383 718 560 l 718 0 l 454 0 m 283 236 q 301 189 283 208 q 353 171 319 171 q 426 205 398 171 q 454 292 454 239 l 454 318 l 357 304 q 283 236 283 292 m 690 908 q 654 828 690 859 q 559 797 619 797 q 466 828 503 797 q 429 908 429 860 q 465 986 429 956 q 559 1016 500 1016 q 654 986 618 1016 q 690 908 690 956 m 350 908 q 315 828 350 860 q 219 797 280 797 q 125 829 161 797 q 89 908 89 861 q 125 986 89 956 q 219 1016 161 1016 q 314 986 278 1016 q 350 908 350 957 z "},"ã":{"ha":779,"x_min":31,"x_max":718,"o":"m 454 0 l 454 106 l 452 106 q 240 -17 382 -17 q 86 41 142 -17 q 31 197 31 100 q 282 435 31 402 l 454 457 q 424 513 454 491 q 342 534 393 534 q 96 468 225 534 l 96 656 q 237 696 152 680 q 382 711 321 711 q 638 636 559 711 q 718 383 718 560 l 718 0 l 454 0 m 283 236 q 301 189 283 208 q 353 171 319 171 q 426 205 398 171 q 454 292 454 239 l 454 318 l 357 304 q 283 236 283 292 m 658 1044 q 617 873 658 932 q 500 814 576 814 q 385 847 440 814 q 342 873 361 861 q 301 885 323 885 q 260 864 275 885 q 245 804 245 843 l 127 804 q 169 977 127 920 q 283 1035 211 1035 q 411 996 352 1035 q 448 974 431 983 q 487 964 466 964 q 524 984 510 964 q 538 1044 538 1004 l 658 1044 z "},"å":{"ha":779,"x_min":31,"x_max":718,"o":"m 454 0 l 454 106 l 452 106 q 240 -17 382 -17 q 86 41 142 -17 q 31 197 31 100 q 282 435 31 402 l 454 457 q 424 513 454 491 q 342 534 393 534 q 96 468 225 534 l 96 656 q 237 696 152 680 q 382 711 321 711 q 638 636 559 711 q 718 383 718 560 l 718 0 l 454 0 m 283 236 q 301 189 283 208 q 353 171 319 171 q 426 205 398 171 q 454 292 454 239 l 454 318 l 357 304 q 283 236 283 292 m 574 964 q 523 848 574 892 q 390 804 471 804 q 261 849 312 804 q 211 964 211 893 q 234 1048 211 1013 q 299 1103 258 1084 q 390 1122 340 1122 q 524 1079 474 1122 q 574 964 574 1035 m 456 964 q 440 1002 456 985 q 390 1018 424 1018 q 344 1002 359 1018 q 329 964 329 987 q 346 925 329 941 q 390 909 363 909 q 437 925 418 909 q 456 964 456 940 z "},"ç":{"ha":688,"x_min":39,"x_max":642,"o":"m 642 20 q 427 -17 585 -14 l 427 -45 q 559 -165 559 -54 q 498 -281 559 -241 q 323 -321 437 -321 q 245 -317 287 -321 l 245 -200 q 301 -205 271 -205 q 359 -194 340 -205 q 379 -165 379 -183 q 363 -135 379 -144 q 309 -125 348 -125 l 297 -125 l 283 -126 l 283 2 q 103 125 168 37 q 39 332 39 214 q 89 536 39 451 q 233 666 140 621 q 450 711 327 711 q 572 703 518 711 q 642 682 626 694 l 642 457 q 579 487 620 474 q 504 500 538 500 q 375 460 418 500 q 332 346 332 420 q 374 234 332 274 q 493 195 417 195 q 642 233 574 195 l 642 20 z "},"é":{"ha":778,"x_min":39,"x_max":747,"o":"m 318 265 q 370 195 326 220 q 486 170 414 170 q 677 208 587 170 l 677 25 q 422 -17 572 -17 q 140 76 241 -17 q 39 332 39 169 q 83 529 39 444 q 215 663 127 614 q 407 711 302 711 q 591 669 515 711 q 708 551 668 627 q 747 374 747 475 l 747 265 l 318 265 m 492 416 q 406 536 492 536 q 345 504 370 536 q 317 416 321 471 l 492 416 m 438 804 l 234 804 l 437 1022 l 680 1022 l 438 804 z "},"è":{"ha":778,"x_min":39,"x_max":747,"o":"m 318 265 q 370 195 326 220 q 486 170 414 170 q 677 208 587 170 l 677 25 q 422 -17 572 -17 q 140 76 241 -17 q 39 332 39 169 q 83 529 39 444 q 215 663 127 614 q 407 711 302 711 q 591 669 515 711 q 708 551 668 627 q 747 374 747 475 l 747 265 l 318 265 m 492 416 q 406 536 492 536 q 345 504 370 536 q 317 416 321 471 l 492 416 m 347 804 l 105 1022 l 348 1022 l 551 804 l 347 804 z "},"ê":{"ha":778,"x_min":39,"x_max":747,"o":"m 318 265 q 370 195 326 220 q 486 170 414 170 q 677 208 587 170 l 677 25 q 422 -17 572 -17 q 140 76 241 -17 q 39 332 39 169 q 83 529 39 444 q 215 663 127 614 q 407 711 302 711 q 591 669 515 711 q 708 551 668 627 q 747 374 747 475 l 747 265 l 318 265 m 492 416 q 406 536 492 536 q 345 504 370 536 q 317 416 321 471 l 492 416 m 497 804 l 397 908 l 297 804 l 119 804 l 293 1022 l 508 1022 l 682 804 l 497 804 z "},"ë":{"ha":778,"x_min":39,"x_max":747,"o":"m 318 265 q 370 195 326 220 q 486 170 414 170 q 677 208 587 170 l 677 25 q 422 -17 572 -17 q 140 76 241 -17 q 39 332 39 169 q 83 529 39 444 q 215 663 127 614 q 407 711 302 711 q 591 669 515 711 q 708 551 668 627 q 747 374 747 475 l 747 265 l 318 265 m 492 416 q 406 536 492 536 q 345 504 370 536 q 317 416 321 471 l 492 416 m 702 908 q 667 828 702 859 q 572 797 631 797 q 478 828 515 797 q 441 908 441 860 q 477 986 441 956 q 572 1016 513 1016 q 666 986 631 1016 q 702 908 702 956 m 362 908 q 327 828 362 860 q 231 797 292 797 q 137 829 174 797 q 101 908 101 861 q 137 986 101 956 q 231 1016 173 1016 q 326 986 290 1016 q 362 908 362 957 z "},"í":{"ha":428,"x_min":45,"x_max":491,"o":"m 69 0 l 69 694 l 358 694 l 358 0 l 69 0 m 250 804 l 45 804 l 248 1022 l 491 1022 l 250 804 z "},"ì":{"ha":428,"x_min":-62,"x_max":383,"o":"m 69 0 l 69 694 l 358 694 l 358 0 l 69 0 m 179 804 l -62 1022 l 180 1022 l 383 804 l 179 804 z "},"î":{"ha":428,"x_min":-64,"x_max":498,"o":"m 69 0 l 69 694 l 358 694 l 358 0 l 69 0 m 314 804 l 214 908 l 114 804 l -64 804 l 110 1022 l 325 1022 l 498 804 l 314 804 z "},"ï":{"ha":428,"x_min":-87,"x_max":514,"o":"m 69 0 l 69 694 l 358 694 l 358 0 l 69 0 m 514 908 q 479 828 514 859 q 384 797 444 797 q 290 828 327 797 q 253 908 253 860 q 289 986 253 956 q 384 1016 325 1016 q 478 986 443 1016 q 514 908 514 956 m 174 908 q 139 828 174 860 q 43 797 104 797 q -51 829 -14 797 q -87 908 -87 861 q -51 986 -87 956 q 43 1016 -15 1016 q 138 986 102 1016 q 174 908 174 957 z "},"ñ":{"ha":869,"x_min":69,"x_max":808,"o":"m 519 0 l 519 379 q 500 472 519 444 q 437 500 481 500 q 379 471 400 500 q 358 396 358 441 l 358 0 l 69 0 l 69 694 l 358 694 l 358 586 l 361 586 q 454 679 395 646 q 581 711 512 711 q 808 424 808 711 l 808 0 l 519 0 m 700 1044 q 659 873 700 932 q 542 814 618 814 q 427 847 482 814 q 384 873 404 861 q 343 885 365 885 q 302 864 317 885 q 288 804 288 843 l 170 804 q 211 977 170 920 q 325 1035 253 1035 q 453 996 394 1035 q 490 974 473 983 q 529 964 508 964 q 566 984 552 964 q 581 1044 581 1004 l 700 1044 z "},"ó":{"ha":880,"x_min":39,"x_max":842,"o":"m 842 359 q 735 83 842 184 q 439 -17 629 -17 q 144 81 250 -17 q 39 351 39 179 q 88 543 39 462 q 229 668 138 625 q 440 711 321 711 q 654 666 564 711 q 793 540 745 621 q 842 359 842 459 m 549 358 q 440 500 549 500 q 332 351 332 500 q 441 195 332 195 q 549 358 549 195 m 476 804 l 272 804 l 475 1022 l 718 1022 l 476 804 z "},"ò":{"ha":880,"x_min":39,"x_max":842,"o":"m 842 359 q 735 83 842 184 q 439 -17 629 -17 q 144 81 250 -17 q 39 351 39 179 q 88 543 39 462 q 229 668 138 625 q 440 711 321 711 q 654 666 564 711 q 793 540 745 621 q 842 359 842 459 m 549 358 q 440 500 549 500 q 332 351 332 500 q 441 195 332 195 q 549 358 549 195 m 405 804 l 163 1022 l 406 1022 l 609 804 l 405 804 z "},"ô":{"ha":880,"x_min":39,"x_max":842,"o":"m 842 359 q 735 83 842 184 q 439 -17 629 -17 q 144 81 250 -17 q 39 351 39 179 q 88 543 39 462 q 229 668 138 625 q 440 711 321 711 q 654 666 564 711 q 793 540 745 621 q 842 359 842 459 m 549 358 q 440 500 549 500 q 332 351 332 500 q 441 195 332 195 q 549 358 549 195 m 539 804 l 439 908 l 339 804 l 161 804 l 335 1022 l 550 1022 l 724 804 l 539 804 z "},"ö":{"ha":880,"x_min":39,"x_max":842,"o":"m 842 359 q 735 83 842 184 q 439 -17 629 -17 q 144 81 250 -17 q 39 351 39 179 q 88 543 39 462 q 229 668 138 625 q 440 711 321 711 q 654 666 564 711 q 793 540 745 621 q 842 359 842 459 m 549 358 q 440 500 549 500 q 332 351 332 500 q 441 195 332 195 q 549 358 549 195 m 740 908 q 705 828 740 859 q 610 797 669 797 q 516 828 553 797 q 479 908 479 860 q 515 986 479 956 q 610 1016 551 1016 q 704 986 669 1016 q 740 908 740 956 m 400 908 q 365 828 400 860 q 269 797 330 797 q 175 829 212 797 q 139 908 139 861 q 175 986 139 956 q 269 1016 211 1016 q 364 986 328 1016 q 400 908 400 957 z "},"õ":{"ha":880,"x_min":39,"x_max":842,"o":"m 842 359 q 735 83 842 184 q 439 -17 629 -17 q 144 81 250 -17 q 39 351 39 179 q 88 543 39 462 q 229 668 138 625 q 440 711 321 711 q 654 666 564 711 q 793 540 745 621 q 842 359 842 459 m 549 358 q 440 500 549 500 q 332 351 332 500 q 441 195 332 195 q 549 358 549 195 m 705 1044 q 665 873 705 932 q 547 814 624 814 q 432 847 488 814 q 390 873 409 861 q 349 885 370 885 q 308 864 323 885 q 293 804 293 843 l 175 804 q 217 977 175 920 q 330 1035 258 1035 q 458 996 399 1035 q 496 974 478 983 q 534 964 513 964 q 572 984 557 964 q 586 1044 586 1004 l 705 1044 z "},"ú":{"ha":869,"x_min":61,"x_max":800,"o":"m 511 0 l 511 107 l 509 107 q 444 35 473 58 q 379 -3 415 12 q 294 -17 342 -17 q 121 57 180 -17 q 61 275 61 131 l 61 694 l 350 694 l 350 297 q 427 195 350 195 q 490 222 469 195 q 511 301 511 250 l 511 694 l 800 694 l 800 0 l 511 0 m 465 804 l 261 804 l 464 1022 l 707 1022 l 465 804 z "},"ù":{"ha":869,"x_min":61,"x_max":800,"o":"m 511 0 l 511 107 l 509 107 q 444 35 473 58 q 379 -3 415 12 q 294 -17 342 -17 q 121 57 180 -17 q 61 275 61 131 l 61 694 l 350 694 l 350 297 q 427 195 350 195 q 490 222 469 195 q 511 301 511 250 l 511 694 l 800 694 l 800 0 l 511 0 m 395 804 l 154 1022 l 397 1022 l 600 804 l 395 804 z "},"û":{"ha":869,"x_min":61,"x_max":800,"o":"m 511 0 l 511 107 l 509 107 q 444 35 473 58 q 379 -3 415 12 q 294 -17 342 -17 q 121 57 180 -17 q 61 275 61 131 l 61 694 l 350 694 l 350 297 q 427 195 350 195 q 490 222 469 195 q 511 301 511 250 l 511 694 l 800 694 l 800 0 l 511 0 m 534 804 l 433 908 l 334 804 l 156 804 l 330 1022 l 545 1022 l 718 804 l 534 804 z "},"ü":{"ha":869,"x_min":61,"x_max":800,"o":"m 511 0 l 511 107 l 509 107 q 444 35 473 58 q 379 -3 415 12 q 294 -17 342 -17 q 121 57 180 -17 q 61 275 61 131 l 61 694 l 350 694 l 350 297 q 427 195 350 195 q 490 222 469 195 q 511 301 511 250 l 511 694 l 800 694 l 800 0 l 511 0 m 734 908 q 699 828 734 859 q 604 797 664 797 q 510 828 547 797 q 473 908 473 860 q 509 986 473 956 q 604 1016 545 1016 q 699 986 663 1016 q 734 908 734 956 m 395 908 q 360 828 395 860 q 264 797 325 797 q 170 829 206 797 q 134 908 134 861 q 170 986 134 956 q 264 1016 205 1016 q 359 986 323 1016 q 395 908 395 957 z "},"†":{"ha":600,"x_min":41,"x_max":558,"o":"m 390 615 l 390 164 l 210 164 l 210 615 l 41 615 l 41 770 l 210 770 l 210 972 l 390 972 l 390 770 l 558 770 l 558 615 l 390 615 z "},"°":{"ha":536,"x_min":92,"x_max":475,"o":"m 475 803 q 449 709 475 753 q 379 641 424 666 q 283 615 334 615 q 148 670 203 615 q 92 803 92 724 q 147 934 92 880 q 283 989 202 989 q 419 935 363 989 q 475 803 475 880 m 354 803 q 334 855 354 834 q 283 876 313 876 q 231 855 252 876 q 210 803 210 834 q 231 750 210 772 q 283 728 253 728 q 333 750 313 728 q 354 803 354 772 z "},"¢":{"ha":832,"x_min":103,"x_max":700,"o":"m 700 139 q 600 111 667 121 l 600 -21 l 439 -21 l 439 104 q 264 158 345 110 q 143 282 183 207 q 103 453 103 357 q 142 634 103 555 q 259 765 180 713 q 439 827 337 816 l 439 966 l 600 966 l 600 827 q 700 802 670 820 l 700 575 q 633 605 683 591 q 547 619 583 619 q 411 580 458 619 q 363 467 363 541 q 408 355 363 395 q 534 314 454 314 q 620 324 574 314 q 700 354 666 334 l 700 139 z "},"£":{"ha":832,"x_min":113,"x_max":807,"o":"m 113 0 l 113 197 q 207 254 177 214 q 237 366 237 294 l 237 410 l 126 410 l 126 587 l 237 587 l 237 685 q 326 908 237 827 q 572 989 414 989 q 736 951 652 989 l 736 732 q 673 764 715 749 q 602 778 631 778 q 520 745 546 778 q 494 660 494 713 l 494 587 l 661 587 l 661 410 l 494 410 l 494 387 q 472 289 494 335 q 411 211 450 243 l 807 211 l 807 0 l 113 0 z "},"§":{"ha":721,"x_min":97,"x_max":659,"o":"m 659 484 q 630 385 659 435 q 557 302 602 334 q 594 249 580 279 q 608 189 608 218 q 532 18 608 81 q 326 -45 456 -45 q 210 -30 272 -45 q 106 8 149 -15 l 106 214 q 345 127 250 127 q 394 141 376 127 q 412 180 412 155 q 399 212 412 199 q 354 239 386 225 l 289 267 q 175 332 211 302 q 118 402 138 362 q 97 496 97 442 q 119 585 97 548 q 174 652 142 623 q 136 713 151 677 q 121 789 121 749 q 193 951 121 891 q 392 1011 265 1011 q 493 999 439 1011 q 585 970 547 987 l 585 758 q 478 823 522 803 q 392 843 434 843 q 325 794 325 843 q 347 755 325 772 q 418 720 370 737 l 473 699 q 617 608 575 659 q 659 484 659 557 m 471 463 q 458 502 471 488 q 416 531 446 515 q 317 574 385 547 q 282 515 282 551 q 317 451 282 478 q 429 395 352 425 q 458 419 445 402 q 471 463 471 437 z "},"•":{"ha":600,"x_min":107,"x_max":501,"o":"m 501 330 q 474 232 501 278 q 400 159 447 186 q 302 132 354 132 q 165 190 222 132 q 107 330 107 248 q 164 469 107 411 q 302 526 220 526 q 444 468 387 526 q 501 330 501 409 z "},"¶":{"ha":778,"x_min":75,"x_max":717,"o":"m 643 831 l 643 0 l 489 0 l 489 831 l 422 831 l 422 0 l 268 0 l 268 525 q 129 598 183 534 q 75 751 75 662 q 139 910 75 847 q 300 972 202 972 l 717 972 l 717 831 l 643 831 z "},"ß":{"ha":961,"x_min":69,"x_max":922,"o":"m 922 282 q 876 126 922 197 q 750 19 829 55 q 570 -17 671 -17 q 503 -13 536 -17 q 412 5 469 -9 l 412 229 q 529 195 472 195 q 605 222 580 195 q 629 296 629 249 q 572 387 629 355 q 412 419 515 419 l 412 611 q 518 639 479 611 q 558 729 558 667 q 532 803 558 773 q 463 833 506 833 q 385 796 412 833 q 358 694 358 758 l 358 0 l 69 0 l 69 671 q 117 868 69 784 q 257 998 165 952 q 479 1044 349 1044 q 677 1007 593 1044 q 806 903 761 969 q 851 755 851 836 q 808 621 851 678 q 692 541 766 564 l 692 538 q 861 449 800 515 q 922 282 922 383 z "},"­":{"ha":566,"x_min":97,"x_max":468,"o":"m 97 267 l 97 461 l 468 461 l 468 267 l 97 267 z "},"®":{"ha":1190,"x_min":69,"x_max":1121,"o":"m 1121 486 q 1051 231 1121 347 q 859 49 981 115 q 593 -17 737 -17 q 324 47 444 -17 q 136 227 203 111 q 69 484 69 342 q 138 740 69 624 q 329 922 208 856 q 599 989 450 989 q 865 925 745 989 q 1053 745 985 861 q 1121 486 1121 629 m 1007 484 q 954 693 1007 600 q 807 840 901 787 q 596 892 713 892 q 384 838 479 892 q 236 691 289 785 q 183 485 183 597 q 237 277 183 370 q 386 132 290 184 q 596 81 481 81 q 803 133 708 81 q 952 278 898 185 q 1007 484 1007 371 m 664 187 l 628 351 q 609 393 623 377 q 579 408 596 408 l 532 408 l 532 187 l 351 187 l 351 796 l 599 796 q 792 752 725 796 q 859 616 859 707 q 725 461 859 501 l 725 458 q 777 430 751 454 q 810 379 802 406 l 875 187 l 664 187 m 663 596 q 645 635 663 619 q 587 652 628 652 l 532 652 l 532 536 l 600 536 q 646 552 629 536 q 663 596 663 568 z "},"©":{"ha":1190,"x_min":69,"x_max":1121,"o":"m 1121 488 q 1052 232 1121 348 q 861 50 983 117 q 593 -17 739 -17 q 324 47 444 -17 q 136 227 203 111 q 69 484 69 342 q 138 740 69 624 q 329 922 208 856 q 599 989 450 989 q 866 925 746 989 q 1054 745 986 861 q 1121 488 1121 629 m 1007 485 q 955 693 1007 600 q 808 839 903 787 q 596 892 714 892 q 384 838 479 892 q 236 691 289 785 q 183 485 183 597 q 237 277 183 370 q 386 132 290 184 q 596 81 481 81 q 802 133 707 81 q 952 279 897 186 q 1007 485 1007 372 m 804 220 q 619 175 718 175 q 453 214 528 175 q 337 321 379 252 q 296 473 296 390 q 391 709 296 620 q 642 799 487 799 q 804 760 723 799 l 804 567 q 734 602 776 588 q 646 616 692 616 q 545 578 585 616 q 505 481 505 541 q 548 389 505 425 q 650 353 590 353 q 804 401 740 353 l 804 220 z "},"™":{"ha":1069,"x_min":49,"x_max":940,"o":"m 821 524 l 821 818 l 817 818 l 745 524 l 604 524 l 543 821 l 539 821 l 539 524 l 416 524 l 416 972 l 614 972 l 677 677 l 681 677 l 761 972 l 940 972 l 940 524 l 821 524 m 273 879 l 273 524 l 150 524 l 150 879 l 49 879 l 49 972 l 380 972 l 380 879 l 273 879 z "},"´":{"ha":429,"x_min":-11,"x_max":435,"o":"m 193 804 l -11 804 l 192 1022 l 435 1022 l 193 804 z "},"¨":{"ha":694,"x_min":46,"x_max":647,"o":"m 647 908 q 612 828 647 859 q 517 797 576 797 q 423 828 460 797 q 386 908 386 860 q 422 986 386 956 q 517 1016 458 1016 q 611 986 576 1016 q 647 908 647 956 m 307 908 q 272 828 307 860 q 176 797 237 797 q 82 829 119 797 q 46 908 46 861 q 82 986 46 956 q 176 1016 118 1016 q 271 986 235 1016 q 307 908 307 957 z "},"≠":{"ha":993,"x_min":161,"x_max":833,"o":"m 481 160 l 396 0 l 182 0 l 267 160 l 161 160 l 161 328 l 355 328 l 421 452 l 161 452 l 161 619 l 510 619 l 607 806 l 821 806 l 724 619 l 833 619 l 833 452 l 635 452 l 570 328 l 833 328 l 833 160 l 481 160 z "},"Æ":{"ha":1377,"x_min":-8,"x_max":1333,"o":"m 705 0 l 705 179 l 412 179 l 332 0 l -8 0 l 498 972 l 1311 972 l 1311 743 l 999 743 l 999 602 l 1292 602 l 1292 372 l 999 372 l 999 229 l 1333 229 l 1333 0 l 705 0 m 705 743 l 668 743 l 505 387 l 705 387 l 705 743 z "},"Ø":{"ha":1063,"x_min":41,"x_max":1021,"o":"m 1021 489 q 958 227 1021 342 q 781 47 895 111 q 528 -17 668 -17 q 250 62 373 -17 l 151 -49 l 43 41 l 144 158 q 41 473 41 289 q 104 741 41 622 q 281 924 168 859 q 541 989 395 989 q 812 913 696 989 l 899 1010 l 1008 920 l 918 817 q 1021 489 1021 684 m 742 479 q 734 611 742 538 l 408 240 q 534 199 464 199 q 640 234 591 199 q 715 331 688 269 q 742 479 742 394 m 657 734 q 539 774 604 774 q 379 693 437 774 q 321 476 321 612 q 328 364 321 410 l 657 734 z "},"∞":{"ha":1122,"x_min":43,"x_max":1084,"o":"m 1084 386 q 1049 250 1084 313 q 954 151 1015 187 q 821 115 893 115 q 672 157 734 115 q 564 279 610 199 q 450 169 519 211 q 306 127 380 127 q 116 204 190 127 q 43 408 43 281 q 78 544 43 481 q 174 643 113 606 q 307 679 235 679 q 455 637 393 679 q 562 515 516 596 q 677 625 607 584 q 822 667 748 667 q 1011 589 939 667 q 1084 386 1084 512 m 884 389 q 856 459 884 433 q 782 486 827 486 q 656 390 711 486 q 722 313 694 332 q 785 294 750 294 q 854 322 824 294 q 884 389 884 349 m 472 404 q 426 465 443 448 q 389 491 409 481 q 343 500 369 500 q 273 472 302 500 q 244 406 244 444 q 273 335 244 362 q 346 309 302 309 q 472 404 416 309 z "},"±":{"ha":993,"x_min":161,"x_max":835,"o":"m 581 492 l 581 239 l 412 239 l 412 492 l 165 492 l 165 660 l 412 660 l 412 920 l 581 920 l 581 660 l 835 660 l 835 492 l 581 492 m 161 0 l 161 168 l 829 168 l 829 0 l 161 0 z "},"≤":{"ha":993,"x_min":161,"x_max":833,"o":"m 161 436 l 161 611 l 833 852 l 833 654 l 357 522 l 357 519 l 833 387 l 833 189 l 161 436 m 161 0 l 161 168 l 833 168 l 833 0 l 161 0 z "},"≥":{"ha":993,"x_min":161,"x_max":833,"o":"m 161 189 l 161 387 l 636 519 l 636 522 l 161 654 l 161 852 l 833 611 l 833 436 l 161 189 m 161 0 l 161 168 l 833 168 l 833 0 l 161 0 z "},"¥":{"ha":832,"x_min":12,"x_max":839,"o":"m 595 538 l 760 538 l 760 396 l 561 396 l 561 313 l 760 313 l 760 168 l 561 168 l 561 0 l 283 0 l 283 168 l 79 168 l 79 313 l 283 313 l 283 396 l 79 396 l 79 538 l 245 538 l 12 972 l 288 972 l 418 648 l 435 608 l 437 608 l 454 648 l 578 972 l 839 972 l 595 538 z "},"µ":{"ha":878,"x_min":69,"x_max":808,"o":"m 524 0 l 525 93 l 522 93 q 476 23 510 53 q 407 -7 442 -7 q 355 3 374 -7 l 353 3 l 355 -204 l 69 -204 l 69 694 l 358 694 l 358 329 q 431 203 358 203 q 485 218 461 203 q 519 262 508 234 l 519 694 l 808 694 l 808 0 l 524 0 z "},"∂":{"ha":846,"x_min":33,"x_max":832,"o":"m 832 615 q 772 273 832 419 q 603 55 712 127 q 343 -17 494 -17 q 114 59 194 -17 q 33 278 33 136 q 80 479 33 384 q 204 624 127 575 q 379 673 282 673 q 558 585 498 673 l 561 585 l 562 600 l 562 614 q 523 769 562 720 q 401 818 484 818 q 306 806 357 818 q 208 774 254 795 l 262 985 q 471 1023 370 1023 q 741 923 650 1023 q 832 615 832 823 m 517 412 q 491 469 509 449 q 444 489 472 489 q 382 459 411 489 q 336 379 354 429 q 318 286 318 330 q 336 216 318 238 q 383 195 355 195 q 463 254 427 195 q 517 412 499 313 z "},"∑":{"ha":921,"x_min":33,"x_max":900,"o":"m 33 -319 l 33 -157 l 412 334 l 49 802 l 49 972 l 876 972 l 876 743 l 457 743 l 747 340 l 439 -90 l 900 -90 l 900 -319 l 33 -319 z "},"∏":{"ha":1140,"x_min":96,"x_max":1060,"o":"m 766 -319 l 766 722 l 389 722 l 389 -319 l 96 -319 l 96 972 l 1060 972 l 1060 -319 l 766 -319 z "},"∫":{"ha":832,"x_min":94,"x_max":739,"o":"m 739 818 q 656 833 694 833 q 584 809 607 833 q 561 742 561 784 l 561 -50 q 522 -200 561 -135 q 407 -300 482 -264 q 225 -336 332 -336 q 159 -332 198 -336 q 94 -321 119 -328 l 94 -110 q 178 -125 137 -125 q 249 -100 226 -125 q 272 -33 272 -75 l 272 758 q 311 908 272 843 q 426 1008 351 972 q 608 1044 500 1044 q 739 1029 686 1044 l 739 818 z "},"ª":{"ha":578,"x_min":40,"x_max":524,"o":"m 338 486 l 338 546 l 335 546 q 264 487 296 501 q 187 472 233 472 q 82 514 125 472 q 40 621 40 557 q 87 739 40 699 q 229 791 134 779 l 338 806 q 315 849 338 836 q 245 861 292 861 q 172 846 219 861 q 85 812 125 831 l 85 950 q 183 976 128 966 q 290 986 237 986 q 428 964 380 986 q 500 895 477 943 q 524 765 524 846 l 524 486 l 338 486 m 228 652 q 243 617 228 630 q 279 604 258 604 q 320 624 303 604 q 338 667 338 643 l 338 707 l 286 701 q 245 687 263 699 q 228 652 228 675 z "},"º":{"ha":644,"x_min":39,"x_max":606,"o":"m 606 737 q 531 543 606 613 q 321 472 456 472 q 113 541 188 472 q 39 732 39 610 q 115 918 39 850 q 322 986 191 986 q 475 954 411 986 q 572 864 538 921 q 606 737 606 808 m 397 734 q 377 811 397 784 q 322 839 357 839 q 245 732 245 839 q 322 621 245 621 q 378 650 359 621 q 397 734 397 680 z "},"Ω":{"ha":1076,"x_min":47,"x_max":1029,"o":"m 582 0 l 582 229 q 688 376 659 306 q 718 534 718 447 q 669 682 718 624 q 546 739 621 739 q 452 713 494 739 q 385 638 410 688 q 361 521 361 589 q 375 420 361 467 q 415 330 390 373 q 493 229 440 288 l 493 0 l 47 0 l 47 229 l 275 229 q 106 381 163 290 q 50 587 50 472 q 114 795 50 703 q 290 938 177 887 q 539 989 404 989 q 791 939 682 989 q 965 795 901 889 q 1029 593 1029 702 q 969 379 1029 468 q 791 229 909 290 l 1028 229 l 1028 0 l 582 0 z "},"æ":{"ha":1164,"x_min":31,"x_max":1133,"o":"m 704 265 q 873 170 725 170 q 1067 210 975 170 l 1067 26 q 799 -17 956 -17 q 634 11 709 -17 q 518 86 560 39 l 515 86 q 282 -17 418 -17 q 95 40 159 -17 q 31 201 31 98 q 96 361 31 300 q 279 433 161 422 l 454 450 q 424 512 454 490 q 340 534 393 534 q 220 517 286 534 q 96 468 155 500 l 96 656 q 236 696 160 680 q 363 711 312 711 q 595 648 503 711 l 597 648 q 806 711 699 711 q 1044 619 955 711 q 1133 370 1133 526 l 1133 265 l 704 265 m 878 416 q 791 536 878 536 q 730 501 755 536 q 704 416 704 466 l 878 416 m 453 311 l 359 304 q 302 282 322 301 q 282 235 282 262 q 302 189 282 208 q 354 171 323 171 q 426 204 398 171 q 453 288 453 237 l 453 311 z "},"ø":{"ha":880,"x_min":22,"x_max":842,"o":"m 757 585 q 842 355 842 484 q 738 83 842 182 q 439 -16 633 -16 q 210 37 304 -16 l 119 -54 l 22 31 l 113 122 q 39 353 39 220 q 88 545 39 463 q 229 669 138 626 q 440 713 321 713 q 656 665 564 713 l 741 750 l 838 665 l 757 585 m 509 517 q 441 530 476 530 q 338 485 370 530 q 306 354 306 440 l 306 334 l 307 317 l 509 517 m 576 358 l 576 380 l 575 403 l 359 186 q 441 167 393 167 q 542 215 507 167 q 576 358 576 264 z "},"¿":{"ha":587,"x_min":-14,"x_max":582,"o":"m 489 574 q 445 477 489 514 q 328 440 401 440 q 211 477 256 440 q 167 574 167 514 q 211 673 167 634 q 328 711 254 711 q 444 672 399 711 q 489 574 489 632 m 582 -245 q 462 -289 538 -271 q 328 -307 387 -307 q 74 -242 161 -307 q -14 -52 -14 -176 q 132 214 -14 99 q 202 283 182 253 q 222 357 222 313 l 222 380 l 450 380 l 450 321 q 431 212 450 260 q 368 126 412 164 q 294 59 307 74 q 276 30 281 45 q 271 -4 271 16 q 293 -49 271 -31 q 353 -66 316 -66 q 582 21 458 -66 l 582 -245 z "}," ":{"ha":380,"x_min":0,"x_max":0,"o":""},"¡":{"ha":509,"x_min":93,"x_max":415,"o":"m 415 574 q 371 477 415 514 q 254 440 328 440 q 137 478 181 440 q 93 574 93 515 q 137 673 93 634 q 254 711 180 711 q 370 672 326 711 q 415 574 415 632 m 104 -278 l 140 367 l 372 367 l 408 -278 l 104 -278 z "},"¬":{"ha":993,"x_min":161,"x_max":833,"o":"m 665 160 l 665 392 l 161 392 l 161 559 l 833 559 l 833 160 l 665 160 z "},"√":{"ha":903,"x_min":46,"x_max":850,"o":"m 568 -1 l 390 -1 l 174 481 l 46 481 l 46 621 l 323 621 l 473 278 l 681 1028 l 850 1028 l 568 -1 z "},"ƒ":{"ha":799,"x_min":53,"x_max":708,"o":"m 708 796 q 618 817 665 817 q 518 724 534 817 l 503 631 l 610 631 l 610 485 l 479 485 l 418 82 q 323 -129 397 -51 q 135 -207 248 -207 q 53 -193 101 -207 l 53 -29 q 115 -43 79 -43 q 220 94 199 -43 l 279 485 l 208 485 l 208 631 l 304 631 l 319 732 q 411 913 336 845 q 600 981 486 981 q 708 965 656 981 l 708 796 z "},"≈":{"ha":993,"x_min":132,"x_max":861,"o":"m 861 686 q 798 494 857 566 q 642 422 738 422 q 549 436 589 422 q 456 480 509 450 q 378 510 405 510 q 325 486 346 510 q 300 415 304 462 l 132 415 q 195 607 136 536 q 357 677 254 677 q 509 636 435 677 q 567 604 541 618 q 619 590 593 590 q 672 618 652 590 q 693 686 692 646 l 861 686 m 861 366 q 798 175 857 247 q 642 103 739 103 q 549 117 589 103 q 456 161 509 130 q 378 191 405 191 q 325 166 345 191 q 300 94 304 142 l 132 94 q 195 288 136 217 q 357 358 255 358 q 509 317 435 358 q 567 285 541 299 q 619 271 593 271 q 671 298 651 271 q 693 366 692 325 l 861 366 z "},"Δ":{"ha":1095,"x_min":50,"x_max":1044,"o":"m 50 0 l 50 111 l 374 972 l 737 972 l 1044 111 l 1044 0 l 50 0 m 550 750 l 543 750 q 538 716 542 742 q 524 657 534 690 l 383 229 l 704 229 l 568 652 q 551 736 554 692 l 550 750 z "},"«":{"ha":878,"x_min":22,"x_max":856,"o":"m 628 136 l 393 364 l 628 597 l 854 597 l 616 364 l 856 136 l 628 136 m 257 136 l 22 364 l 257 597 l 484 597 l 245 364 l 485 136 l 257 136 z "},"»":{"ha":878,"x_min":22,"x_max":856,"o":"m 621 136 l 393 136 l 632 364 l 395 597 l 621 597 l 856 364 l 621 136 m 250 136 l 22 136 l 261 364 l 24 597 l 250 597 l 485 364 l 250 136 z "},"…":{"ha":1453,"x_min":82,"x_max":1371,"o":"m 1371 121 q 1327 21 1371 59 q 1207 -17 1284 -17 q 1093 23 1137 -17 q 1048 121 1048 62 q 1092 217 1048 180 q 1210 254 1136 254 q 1326 217 1282 254 q 1371 121 1371 180 m 888 121 q 844 21 888 59 q 724 -17 801 -17 q 610 23 654 -17 q 566 121 566 63 q 609 217 566 180 q 726 254 653 254 q 843 218 798 254 q 888 121 888 181 m 404 121 q 361 21 404 59 q 240 -17 317 -17 q 126 23 170 -17 q 82 121 82 63 q 126 217 82 180 q 243 254 170 254 q 360 217 315 254 q 404 121 404 180 z "},"À":{"ha":1042,"x_min":9,"x_max":1023,"o":"m 705 0 l 663 179 l 372 179 l 326 0 l 9 0 l 345 972 l 708 972 l 1023 0 l 705 0 m 521 761 l 514 761 q 505 707 513 745 q 422 387 496 670 l 608 387 l 541 652 q 521 761 526 710 m 486 1063 l 244 1280 l 487 1280 l 690 1063 l 486 1063 z "},"Ã":{"ha":1042,"x_min":9,"x_max":1023,"o":"m 705 0 l 663 179 l 372 179 l 326 0 l 9 0 l 345 972 l 708 972 l 1023 0 l 705 0 m 521 761 l 514 761 q 505 707 513 745 q 422 387 496 670 l 608 387 l 541 652 q 521 761 526 710 m 786 1303 q 745 1132 786 1191 q 628 1072 705 1072 q 513 1105 568 1072 q 470 1131 490 1119 q 429 1143 451 1143 q 389 1122 404 1143 q 374 1063 374 1101 l 256 1063 q 297 1236 256 1178 q 411 1293 339 1293 q 539 1254 480 1293 q 576 1232 559 1242 q 615 1222 594 1222 q 652 1242 638 1222 q 667 1303 667 1262 l 786 1303 z "},"Õ":{"ha":1063,"x_min":41,"x_max":1021,"o":"m 1021 489 q 958 227 1021 342 q 781 47 895 111 q 528 -17 668 -17 q 278 45 391 -17 q 104 219 166 107 q 41 473 41 332 q 104 741 41 622 q 281 924 168 859 q 541 989 395 989 q 790 927 680 989 q 961 750 901 865 q 1021 489 1021 635 m 710 481 q 664 670 710 601 q 538 739 618 739 q 401 673 450 739 q 353 485 353 606 q 401 300 353 366 q 533 233 450 233 q 625 263 584 233 q 688 349 665 293 q 710 481 710 404 m 800 1303 q 759 1132 800 1191 q 642 1072 718 1072 q 526 1105 582 1072 q 484 1131 503 1119 q 443 1143 465 1143 q 402 1122 417 1143 q 387 1063 387 1101 l 269 1063 q 311 1236 269 1178 q 425 1293 353 1293 q 553 1254 494 1293 q 590 1232 572 1242 q 629 1222 608 1222 q 666 1242 652 1222 q 680 1303 680 1262 l 800 1303 z "},"Œ":{"ha":1325,"x_min":41,"x_max":1282,"o":"m 664 0 q 514 -17 607 -17 q 269 46 377 -17 q 101 223 161 109 q 41 473 41 337 q 102 742 41 624 q 274 924 163 860 q 526 989 385 989 q 612 984 568 989 q 677 972 655 979 l 1260 972 l 1260 743 l 947 743 l 947 602 l 1240 602 l 1240 372 l 947 372 l 947 229 l 1282 229 l 1282 0 l 664 0 m 642 693 q 538 739 597 739 q 401 672 450 739 q 353 478 353 604 q 400 298 353 363 q 533 233 448 233 q 642 278 597 233 l 642 693 z "},"œ":{"ha":1287,"x_min":39,"x_max":1257,"o":"m 828 265 q 879 195 836 220 q 996 170 923 170 q 1097 180 1045 170 q 1187 208 1149 191 l 1187 25 q 1077 -5 1140 6 q 960 -17 1014 -17 q 688 96 800 -17 l 685 96 q 571 15 642 45 q 408 -16 500 -16 q 218 28 302 -16 q 86 156 134 73 q 39 353 39 239 q 85 543 39 461 q 215 669 132 625 q 404 713 299 713 q 553 688 484 713 q 671 615 623 663 l 673 615 q 783 687 717 663 q 929 711 849 711 q 1105 669 1031 711 q 1218 549 1179 626 q 1257 374 1257 471 l 1257 265 l 828 265 m 1002 416 q 916 536 1002 536 q 855 503 879 536 q 827 416 831 469 l 1002 416 m 549 357 q 521 462 549 423 q 441 501 493 501 q 332 353 332 501 q 441 196 332 196 q 549 357 549 196 z "},"–":{"ha":694,"x_min":0,"x_max":694,"o":"m 0 267 l 0 461 l 694 461 l 694 267 l 0 267 z "},"—":{"ha":1389,"x_min":0,"x_max":1389,"o":"m 0 267 l 0 461 l 1389 461 l 1389 267 l 0 267 z "},"“":{"ha":806,"x_min":60,"x_max":726,"o":"m 644 694 l 395 694 l 557 996 l 726 996 l 644 694 m 310 694 l 60 694 l 222 996 l 392 996 l 310 694 z "},"”":{"ha":806,"x_min":79,"x_max":746,"o":"m 582 694 l 414 694 l 497 996 l 746 996 l 582 694 m 248 694 l 79 694 l 163 996 l 411 996 l 248 694 z "},"‘":{"ha":471,"x_min":60,"x_max":392,"o":"m 310 694 l 60 694 l 222 996 l 392 996 l 310 694 z "},"’":{"ha":471,"x_min":79,"x_max":411,"o":"m 248 694 l 79 694 l 163 996 l 411 996 l 248 694 z "},"÷":{"ha":993,"x_min":161,"x_max":833,"o":"m 606 667 q 575 589 606 620 q 498 558 545 558 q 420 590 453 558 q 387 665 387 623 q 419 745 387 711 q 498 778 450 778 q 576 746 546 778 q 606 667 606 715 m 161 309 l 161 476 l 833 476 l 833 309 l 161 309 m 606 115 q 575 38 606 68 q 498 7 545 7 q 420 39 453 7 q 387 114 387 71 q 418 193 387 161 q 498 225 450 225 q 575 195 545 225 q 606 115 606 165 z "},"◊":{"ha":816,"x_min":49,"x_max":765,"o":"m 765 486 l 444 0 l 367 0 l 49 485 l 367 972 l 444 972 l 765 486 m 610 486 l 407 806 l 204 486 l 407 167 l 610 486 z "},"ÿ":{"ha":798,"x_min":-14,"x_max":811,"o":"m 204 -326 q 117 -319 163 -326 q 33 -298 70 -312 l 33 -81 q 84 -104 50 -94 q 147 -115 117 -115 q 254 -52 228 -115 l 277 3 l -14 694 l 306 694 l 390 359 q 416 233 414 266 l 419 233 q 425 267 421 248 q 530 694 429 285 l 811 694 l 555 -20 q 413 -255 498 -184 q 204 -326 328 -326 m 705 908 q 670 828 705 859 q 575 797 635 797 q 481 828 518 797 q 444 908 444 860 q 480 986 444 956 q 575 1016 516 1016 q 670 986 634 1016 q 705 908 705 956 m 366 908 q 331 828 366 860 q 235 797 296 797 q 141 829 177 797 q 104 908 104 861 q 140 986 104 956 q 235 1016 176 1016 q 330 986 294 1016 q 366 908 366 957 z "},"Ÿ":{"ha":903,"x_min":0,"x_max":903,"o":"m 593 338 l 593 0 l 300 0 l 300 334 l 0 972 l 336 972 l 441 667 q 457 612 452 635 q 467 566 461 589 l 469 566 q 489 661 478 627 l 593 972 l 903 972 l 593 338 m 751 1166 q 715 1086 751 1117 q 621 1055 680 1055 q 527 1087 564 1055 q 490 1166 490 1118 q 526 1244 490 1215 q 621 1274 562 1274 q 715 1244 680 1274 q 751 1166 751 1214 m 411 1166 q 376 1087 411 1118 q 280 1055 341 1055 q 186 1087 222 1055 q 150 1166 150 1120 q 186 1244 150 1215 q 280 1274 222 1274 q 375 1245 339 1274 q 411 1166 411 1215 z "},"⁄":{"ha":677,"x_min":-81,"x_max":758,"o":"m 134 0 l -81 0 l 545 972 l 758 972 l 134 0 z "},"€":{"ha":832,"x_min":71,"x_max":777,"o":"m 777 28 q 683 -6 745 7 q 555 -18 620 -18 q 300 62 402 -18 q 163 293 197 143 l 71 293 l 71 437 l 139 437 l 138 475 l 138 498 l 139 521 l 71 521 l 71 663 l 160 663 q 305 904 196 819 q 582 989 414 989 q 690 978 635 989 q 777 951 746 968 l 777 733 q 608 798 699 798 q 486 763 535 798 q 416 663 437 728 l 675 663 l 675 521 l 392 521 l 390 476 l 392 437 l 675 437 l 675 293 l 421 293 q 489 204 444 235 q 599 172 534 172 q 777 236 695 172 l 777 28 z "},"‹":{"ha":509,"x_min":22,"x_max":486,"o":"m 258 136 l 22 364 l 258 597 l 485 597 l 248 364 l 486 136 l 258 136 z "},"›":{"ha":509,"x_min":22,"x_max":486,"o":"m 250 136 l 22 136 l 261 364 l 24 597 l 250 597 l 486 364 l 250 136 z "},"ﬁ":{"ha":1026,"x_min":21,"x_max":974,"o":"m 974 882 q 929 783 974 821 q 812 745 885 745 q 697 784 742 745 q 652 882 652 823 q 695 978 652 941 q 812 1015 739 1015 q 929 979 884 1015 q 974 882 974 942 m 668 0 l 668 694 l 957 694 l 957 0 l 668 0 m 604 818 q 521 833 559 833 q 450 809 473 833 q 427 742 427 784 l 427 694 l 587 694 l 587 494 l 427 494 l 427 0 l 138 0 l 138 494 l 21 494 l 21 694 l 138 694 l 138 758 q 177 908 138 843 q 291 1008 216 972 q 473 1044 366 1044 q 604 1029 551 1044 l 604 818 z "},"ﬂ":{"ha":1026,"x_min":21,"x_max":957,"o":"m 668 0 l 668 1028 l 957 1028 l 957 0 l 668 0 m 604 818 q 521 833 559 833 q 450 809 473 833 q 427 742 427 784 l 427 694 l 587 694 l 587 494 l 427 494 l 427 0 l 138 0 l 138 494 l 21 494 l 21 694 l 138 694 l 138 758 q 177 908 138 843 q 291 1008 216 972 q 473 1044 366 1044 q 604 1029 551 1044 l 604 818 z "},"‡":{"ha":600,"x_min":41,"x_max":558,"o":"m 390 368 l 390 164 l 210 164 l 210 368 l 41 368 l 41 518 l 210 518 l 210 627 l 41 627 l 41 781 l 210 781 l 210 972 l 390 972 l 390 781 l 558 781 l 558 627 l 390 627 l 390 518 l 558 518 l 558 368 l 390 368 z "},"·":{"ha":444,"x_min":61,"x_max":383,"o":"m 383 484 q 340 384 383 422 q 220 346 296 346 q 106 385 151 346 q 61 484 61 425 q 105 580 61 544 q 222 616 150 616 q 338 580 294 616 q 383 484 383 544 z "},"‚":{"ha":471,"x_min":60,"x_max":392,"o":"m 228 -153 l 60 -153 l 143 149 l 392 149 l 228 -153 z "},"„":{"ha":806,"x_min":60,"x_max":726,"o":"m 562 -153 l 395 -153 l 478 149 l 726 149 l 562 -153 m 228 -153 l 60 -153 l 143 149 l 392 149 l 228 -153 z "},"‰":{"ha":1792,"x_min":69,"x_max":1723,"o":"m 1723 249 q 1653 58 1723 130 q 1464 -14 1583 -14 q 1288 54 1354 -14 q 1222 231 1222 121 q 1293 422 1222 351 q 1480 493 1363 493 q 1658 429 1593 493 q 1723 249 1723 364 m 1178 249 q 1108 58 1178 130 q 920 -14 1038 -14 q 744 54 810 -14 q 677 231 677 121 q 748 422 677 351 q 936 493 819 493 q 1113 429 1048 493 q 1178 249 1178 364 m 419 0 l 205 0 l 831 972 l 1044 972 l 419 0 m 568 741 q 498 549 568 620 q 311 478 428 478 q 135 545 201 478 q 69 722 69 612 q 138 914 69 842 q 326 986 207 986 q 504 920 439 986 q 568 741 568 854 m 1544 240 q 1526 316 1544 288 q 1476 343 1508 343 q 1421 314 1440 343 q 1402 236 1402 284 q 1420 162 1402 189 q 1472 136 1438 136 q 1526 164 1508 136 q 1544 240 1544 191 m 1000 240 q 982 316 1000 288 q 932 343 964 343 q 878 314 897 343 q 859 236 859 286 q 876 163 859 189 q 928 136 893 136 q 982 163 963 136 q 1000 240 1000 191 m 390 733 q 373 807 390 780 q 323 835 355 835 q 269 806 288 835 q 250 728 250 777 q 268 654 250 681 q 319 628 285 628 q 372 655 353 628 q 390 733 390 682 z "},"Â":{"ha":1042,"x_min":9,"x_max":1023,"o":"m 705 0 l 663 179 l 372 179 l 326 0 l 9 0 l 345 972 l 708 972 l 1023 0 l 705 0 m 521 761 l 514 761 q 505 707 513 745 q 422 387 496 670 l 608 387 l 541 652 q 521 761 526 710 m 620 1063 l 519 1166 l 420 1063 l 242 1063 l 416 1280 l 631 1280 l 804 1063 l 620 1063 z "},"Ê":{"ha":766,"x_min":96,"x_max":724,"o":"m 96 0 l 96 972 l 701 972 l 701 743 l 389 743 l 389 602 l 682 602 l 682 372 l 389 372 l 389 229 l 724 229 l 724 0 l 96 0 m 492 1063 l 392 1166 l 292 1063 l 115 1063 l 288 1280 l 503 1280 l 677 1063 l 492 1063 z "},"Á":{"ha":1042,"x_min":9,"x_max":1023,"o":"m 705 0 l 663 179 l 372 179 l 326 0 l 9 0 l 345 972 l 708 972 l 1023 0 l 705 0 m 521 761 l 514 761 q 505 707 513 745 q 422 387 496 670 l 608 387 l 541 652 q 521 761 526 710 m 557 1063 l 353 1063 l 555 1280 l 798 1280 l 557 1063 z "},"Ë":{"ha":766,"x_min":96,"x_max":724,"o":"m 96 0 l 96 972 l 701 972 l 701 743 l 389 743 l 389 602 l 682 602 l 682 372 l 389 372 l 389 229 l 724 229 l 724 0 l 96 0 m 697 1166 q 662 1086 697 1117 q 567 1055 627 1055 q 473 1087 510 1055 q 436 1166 436 1118 q 472 1244 436 1215 q 567 1274 508 1274 q 662 1244 626 1274 q 697 1166 697 1214 m 357 1166 q 322 1087 357 1118 q 227 1055 288 1055 q 133 1087 169 1055 q 96 1166 96 1120 q 132 1244 96 1215 q 227 1274 168 1274 q 321 1245 286 1274 q 357 1166 357 1215 z "},"È":{"ha":766,"x_min":96,"x_max":724,"o":"m 96 0 l 96 972 l 701 972 l 701 743 l 389 743 l 389 602 l 682 602 l 682 372 l 389 372 l 389 229 l 724 229 l 724 0 l 96 0 m 364 1063 l 123 1280 l 366 1280 l 568 1063 l 364 1063 z "},"Í":{"ha":484,"x_min":95,"x_max":541,"o":"m 96 0 l 96 972 l 389 972 l 389 0 l 96 0 m 299 1063 l 95 1063 l 298 1280 l 541 1280 l 299 1063 z "},"Î":{"ha":524,"x_min":-17,"x_max":545,"o":"m 96 0 l 96 972 l 389 972 l 389 0 l 96 0 m 361 1063 l 260 1166 l 161 1063 l -17 1063 l 157 1280 l 372 1280 l 545 1063 l 361 1063 z "},"Ï":{"ha":524,"x_min":-37,"x_max":564,"o":"m 96 0 l 96 972 l 389 972 l 389 0 l 96 0 m 564 1166 q 529 1086 564 1117 q 434 1055 494 1055 q 340 1087 377 1055 q 303 1166 303 1118 q 339 1244 303 1215 q 434 1274 375 1274 q 529 1244 493 1274 q 564 1166 564 1214 m 224 1166 q 190 1087 224 1118 q 94 1055 155 1055 q 0 1087 36 1055 q -37 1166 -37 1120 q -1 1244 -37 1215 q 94 1274 35 1274 q 189 1245 153 1274 q 224 1166 224 1215 z "},"Ì":{"ha":484,"x_min":-13,"x_max":433,"o":"m 96 0 l 96 972 l 389 972 l 389 0 l 96 0 m 229 1063 l -13 1280 l 230 1280 l 433 1063 l 229 1063 z "},"Ó":{"ha":1063,"x_min":41,"x_max":1021,"o":"m 1021 489 q 958 227 1021 342 q 781 47 895 111 q 528 -17 668 -17 q 278 45 391 -17 q 104 219 166 107 q 41 473 41 332 q 104 741 41 622 q 281 924 168 859 q 541 989 395 989 q 790 927 680 989 q 961 750 901 865 q 1021 489 1021 635 m 710 481 q 664 670 710 601 q 538 739 618 739 q 401 673 450 739 q 353 485 353 606 q 401 300 353 366 q 533 233 450 233 q 625 263 584 233 q 688 349 665 293 q 710 481 710 404 m 563 1063 l 359 1063 l 562 1280 l 804 1280 l 563 1063 z "},"Ô":{"ha":1063,"x_min":41,"x_max":1021,"o":"m 1021 489 q 958 227 1021 342 q 781 47 895 111 q 528 -17 668 -17 q 278 45 391 -17 q 104 219 166 107 q 41 473 41 332 q 104 741 41 622 q 281 924 168 859 q 541 989 395 989 q 790 927 680 989 q 961 750 901 865 q 1021 489 1021 635 m 710 481 q 664 670 710 601 q 538 739 618 739 q 401 673 450 739 q 353 485 353 606 q 401 300 353 366 q 533 233 450 233 q 625 263 584 233 q 688 349 665 293 q 710 481 710 404 m 631 1063 l 530 1166 l 431 1063 l 253 1063 l 427 1280 l 642 1280 l 815 1063 l 631 1063 z "},"Ò":{"ha":1063,"x_min":41,"x_max":1021,"o":"m 1021 489 q 958 227 1021 342 q 781 47 895 111 q 528 -17 668 -17 q 278 45 391 -17 q 104 219 166 107 q 41 473 41 332 q 104 741 41 622 q 281 924 168 859 q 541 989 395 989 q 790 927 680 989 q 961 750 901 865 q 1021 489 1021 635 m 710 481 q 664 670 710 601 q 538 739 618 739 q 401 673 450 739 q 353 485 353 606 q 401 300 353 366 q 533 233 450 233 q 625 263 584 233 q 688 349 665 293 q 710 481 710 404 m 493 1063 l 252 1280 l 494 1280 l 697 1063 l 493 1063 z "},"Ú":{"ha":1028,"x_min":85,"x_max":943,"o":"m 943 444 q 837 97 943 210 q 507 -17 730 -17 q 192 97 300 -17 q 85 439 85 210 l 85 972 l 379 972 l 379 428 q 414 284 379 334 q 514 233 449 233 q 614 281 580 233 q 648 421 648 328 l 648 972 l 943 972 l 943 444 m 550 1063 l 346 1063 l 549 1280 l 791 1280 l 550 1063 z "},"Û":{"ha":1028,"x_min":85,"x_max":943,"o":"m 943 444 q 837 97 943 210 q 507 -17 730 -17 q 192 97 300 -17 q 85 439 85 210 l 85 972 l 379 972 l 379 428 q 414 284 379 334 q 514 233 449 233 q 614 281 580 233 q 648 421 648 328 l 648 972 l 943 972 l 943 444 m 611 1063 l 511 1166 l 411 1063 l 233 1063 l 407 1280 l 622 1280 l 795 1063 l 611 1063 z "},"Ù":{"ha":1028,"x_min":85,"x_max":943,"o":"m 943 444 q 837 97 943 210 q 507 -17 730 -17 q 192 97 300 -17 q 85 439 85 210 l 85 972 l 379 972 l 379 428 q 414 284 379 334 q 514 233 449 233 q 614 281 580 233 q 648 421 648 328 l 648 972 l 943 972 l 943 444 m 479 1063 l 237 1280 l 480 1280 l 683 1063 l 479 1063 z "},"ı":{"ha":428,"x_min":69,"x_max":358,"o":"m 69 0 l 69 694 l 358 694 l 358 0 l 69 0 z "},"ˆ":{"ha":532,"x_min":-12,"x_max":550,"o":"m 366 804 l 265 908 l 165 804 l -12 804 l 161 1022 l 376 1022 l 550 804 l 366 804 z "},"˜":{"ha":532,"x_min":1,"x_max":532,"o":"m 532 1044 q 491 873 532 932 q 374 814 450 814 q 258 847 314 814 q 216 873 235 861 q 175 885 197 885 q 134 864 149 885 q 119 804 119 843 l 1 804 q 43 977 1 920 q 157 1035 85 1035 q 285 996 226 1035 q 322 974 304 983 q 361 964 340 964 q 398 984 384 964 q 412 1044 412 1004 l 532 1044 z "},"ˉ":{"ha":468,"x_min":11,"x_max":455,"o":"m 11 805 l 11 956 l 455 956 l 455 805 l 11 805 z "},"˘":{"ha":481,"x_min":-24,"x_max":504,"o":"m 504 1039 q 425 865 493 926 q 237 804 356 804 q 102 834 161 804 q 10 918 43 864 q -24 1039 -23 972 l 139 1039 q 172 980 146 1002 q 241 958 199 958 q 309 980 283 958 q 342 1039 335 1002 l 504 1039 z "},"˙":{"ha":351,"x_min":71,"x_max":332,"o":"m 332 916 q 296 835 332 866 q 201 804 260 804 q 107 836 144 804 q 71 916 71 868 q 107 994 71 964 q 201 1023 143 1023 q 296 994 260 1023 q 332 916 332 964 z "},"˚":{"ha":376,"x_min":4,"x_max":367,"o":"m 367 964 q 316 848 367 892 q 183 804 264 804 q 55 849 105 804 q 4 964 4 893 q 27 1048 4 1013 q 92 1103 51 1084 q 183 1122 134 1122 q 317 1079 267 1122 q 367 964 367 1035 m 249 964 q 233 1002 249 985 q 183 1018 217 1018 q 137 1002 153 1018 q 122 964 122 987 q 139 925 122 941 q 183 909 157 909 q 230 925 212 909 q 249 964 249 940 z "},"¸":{"ha":310,"x_min":35,"x_max":349,"o":"m 349 -165 q 287 -281 349 -241 q 113 -321 226 -321 q 35 -317 77 -321 l 35 -200 q 90 -205 60 -205 q 149 -194 129 -205 q 168 -165 168 -183 q 152 -135 168 -144 q 98 -125 136 -125 l 86 -125 l 72 -126 l 72 0 l 216 0 l 216 -45 q 349 -165 349 -54 z "},"˝":{"ha":564,"x_min":-8,"x_max":703,"o":"m 527 804 l 321 804 l 469 1023 l 703 1023 l 527 804 m 197 804 l -8 804 l 139 1023 l 374 1023 l 197 804 z "},"˛":{"ha":370,"x_min":64,"x_max":343,"o":"m 254 0 q 226 -58 238 -26 q 214 -116 214 -90 q 227 -154 214 -141 q 263 -167 241 -167 q 343 -148 301 -167 l 343 -252 q 284 -274 320 -265 q 221 -282 249 -282 q 103 -245 142 -282 q 64 -144 64 -208 q 82 -67 64 -105 q 134 0 101 -30 l 254 0 z "},"ˇ":{"ha":532,"x_min":-12,"x_max":550,"o":"m 550 1022 l 376 804 l 161 804 l -12 1022 l 165 1022 l 265 918 l 366 1022 l 550 1022 z "},"Ł":{"ha":751,"x_min":-8,"x_max":724,"o":"m 96 0 l 96 275 l -8 231 l -8 460 l 96 504 l 96 972 l 389 972 l 389 629 l 566 704 l 566 475 l 389 400 l 389 229 l 724 229 l 724 0 l 96 0 z "},"ł":{"ha":469,"x_min":24,"x_max":449,"o":"m 379 441 l 379 0 l 90 0 l 90 271 l 24 232 l 24 450 l 90 489 l 90 1028 l 379 1028 l 379 660 l 449 700 l 449 482 l 379 441 z "},"Š":{"ha":794,"x_min":56,"x_max":771,"o":"m 771 294 q 719 125 771 197 q 574 18 667 54 q 349 -17 480 -17 q 69 35 196 -17 l 69 301 q 204 229 130 256 q 342 201 278 201 q 416 219 390 201 q 443 269 443 236 q 430 311 443 293 q 390 345 416 329 q 290 387 363 360 q 56 679 56 477 q 163 904 56 820 q 450 989 270 989 q 544 985 501 989 q 622 975 587 981 q 720 951 656 968 l 720 704 q 478 771 597 771 q 399 753 429 771 q 370 703 370 734 q 394 652 370 672 q 494 600 418 632 q 708 467 646 539 q 771 294 771 394 m 686 1259 l 512 1042 l 297 1042 l 123 1259 l 301 1259 l 401 1156 l 501 1259 l 686 1259 z "},"š":{"ha":671,"x_min":58,"x_max":633,"o":"m 633 231 q 544 48 633 113 q 293 -17 454 -17 q 177 -7 246 -17 q 65 16 109 2 l 65 218 q 279 161 193 161 q 364 205 364 161 q 345 236 364 224 q 241 275 325 248 q 107 353 149 304 q 65 478 65 401 q 151 649 65 586 q 392 711 237 711 q 585 685 483 711 l 585 490 q 491 521 542 509 q 406 533 440 533 q 360 524 377 533 q 343 497 343 514 q 361 465 343 477 q 435 436 380 453 q 587 356 541 405 q 633 231 633 307 m 621 1022 l 447 804 l 232 804 l 58 1022 l 236 1022 l 336 918 l 436 1022 l 621 1022 z "},"Ž":{"ha":890,"x_min":41,"x_max":857,"o":"m 418 229 l 857 229 l 857 0 l 41 0 l 41 205 l 490 743 l 69 743 l 69 972 l 843 972 l 843 768 l 418 229 m 734 1257 l 560 1040 l 345 1040 l 172 1257 l 349 1257 l 449 1154 l 549 1257 l 734 1257 z "},"ž":{"ha":707,"x_min":17,"x_max":682,"o":"m 396 200 l 682 200 l 682 0 l 17 0 l 17 134 l 329 494 l 46 494 l 46 694 l 676 694 l 676 530 l 396 200 m 642 1022 l 469 804 l 254 804 l 80 1022 l 258 1022 l 357 918 l 458 1022 l 642 1022 z "},"¦":{"ha":553,"x_min":165,"x_max":387,"o":"m 165 446 l 165 1063 l 387 1063 l 387 446 l 165 446 m 165 -326 l 165 307 l 387 307 l 387 -326 l 165 -326 z "},"Ð":{"ha":1054,"x_min":-17,"x_max":1013,"o":"m 1013 498 q 950 237 1013 351 q 773 62 888 123 q 507 0 658 0 l 96 0 l 96 372 l -17 372 l -17 602 l 96 602 l 96 972 l 498 972 q 1013 498 1013 972 m 701 496 q 672 624 701 567 q 590 712 644 681 q 464 743 536 743 l 389 743 l 389 602 l 551 602 l 551 372 l 389 372 l 389 229 l 471 229 q 638 301 576 229 q 701 496 701 374 z "},"ð":{"ha":867,"x_min":39,"x_max":828,"o":"m 828 400 q 778 182 828 278 q 636 35 727 87 q 428 -17 545 -17 q 142 82 245 -17 q 39 358 39 182 q 80 535 39 457 q 196 657 121 614 q 363 701 271 701 q 437 688 399 701 q 505 648 475 674 l 509 650 q 372 803 454 741 l 179 710 l 110 823 l 260 893 l 75 1028 l 372 1028 l 441 981 l 619 1067 l 681 953 l 561 895 q 759 674 690 802 q 828 400 828 546 m 534 358 q 435 503 534 503 q 359 463 387 503 q 332 354 332 422 q 359 236 332 274 q 432 197 387 197 q 508 238 481 197 q 534 358 534 279 z "},"Ý":{"ha":903,"x_min":0,"x_max":903,"o":"m 593 338 l 593 0 l 300 0 l 300 334 l 0 972 l 336 972 l 441 667 q 457 612 452 635 q 467 566 461 589 l 469 566 q 489 661 478 627 l 593 972 l 903 972 l 593 338 m 500 1040 l 296 1040 l 499 1258 l 742 1258 l 500 1040 z "},"ý":{"ha":798,"x_min":-14,"x_max":811,"o":"m 204 -326 q 117 -319 163 -326 q 33 -298 70 -312 l 33 -81 q 84 -104 50 -94 q 147 -115 117 -115 q 254 -52 228 -115 l 277 3 l -14 694 l 306 694 l 390 359 q 416 233 414 266 l 419 233 q 425 267 421 248 q 530 694 429 285 l 811 694 l 555 -20 q 413 -255 498 -184 q 204 -326 328 -326 m 448 804 l 244 804 l 447 1022 l 690 1022 l 448 804 z "},"Þ":{"ha":911,"x_min":96,"x_max":890,"o":"m 890 514 q 840 337 890 414 q 696 217 789 260 q 478 175 602 175 l 389 175 l 389 0 l 96 0 l 96 972 l 389 972 l 389 835 l 494 835 q 795 757 700 835 q 890 514 890 679 m 581 504 q 546 594 581 564 q 444 625 512 625 l 389 625 l 389 385 l 454 385 q 581 504 581 385 z "},"þ":{"ha":892,"x_min":69,"x_max":852,"o":"m 852 368 q 814 167 852 254 q 705 31 775 79 q 546 -17 634 -17 q 361 72 424 -17 l 358 72 l 358 -319 l 69 -319 l 69 1028 l 358 1028 l 358 600 l 361 600 q 450 682 395 652 q 575 711 505 711 q 781 622 709 711 q 852 368 852 532 m 559 359 q 534 463 559 425 q 456 500 509 500 q 381 460 410 500 q 353 353 353 421 l 353 339 q 377 234 353 273 q 450 195 401 195 q 531 238 503 195 q 559 359 559 281 z "},"−":{"ha":993,"x_min":161,"x_max":833,"o":"m 161 309 l 161 476 l 833 476 l 833 309 l 161 309 z "},"×":{"ha":993,"x_min":149,"x_max":846,"o":"m 726 45 l 498 275 l 271 45 l 150 164 l 378 390 l 149 621 l 264 742 l 498 511 l 732 742 l 843 614 l 616 390 l 846 163 l 726 45 z "},"½":{"ha":1340,"x_min":52,"x_max":1267,"o":"m 193 396 l 193 810 q 122 773 157 787 q 52 753 87 760 l 52 895 q 102 907 75 898 q 158 929 130 916 q 210 958 185 943 q 252 986 235 972 l 370 986 l 370 396 l 193 396 m 439 0 l 225 0 l 850 972 l 1064 972 l 439 0 m 833 1 l 833 62 q 851 142 833 109 q 895 200 869 175 q 953 246 922 226 q 1010 288 984 267 q 1055 332 1037 309 q 1072 389 1072 356 q 1056 423 1072 408 q 1007 438 1040 438 q 942 424 980 438 q 868 382 904 410 l 868 549 q 951 581 909 571 q 1043 591 994 591 q 1135 578 1095 591 q 1202 543 1175 566 q 1243 490 1230 521 q 1257 422 1257 459 q 1242 339 1257 375 q 1204 276 1227 303 q 1154 230 1181 249 q 1104 196 1127 210 q 1066 170 1081 181 q 1050 149 1050 159 l 1050 146 l 1267 146 l 1267 1 l 833 1 z "},"¼":{"ha":1322,"x_min":52,"x_max":1263,"o":"m 193 396 l 193 810 q 122 773 157 787 q 52 753 87 760 l 52 895 q 102 907 75 898 q 158 929 130 916 q 210 958 185 943 q 252 986 235 972 l 370 986 l 370 396 l 193 396 m 439 0 l 225 0 l 850 972 l 1064 972 l 439 0 m 1263 106 l 1195 106 l 1195 1 l 1031 1 l 1031 106 l 770 106 l 770 227 q 890 395 839 307 q 989 577 941 483 l 1195 577 l 1195 239 l 1263 239 l 1263 106 m 1031 239 l 1031 423 q 1024 407 1030 419 q 1009 378 1018 395 q 989 342 1000 361 q 966 303 978 322 q 941 267 954 284 q 917 239 928 250 l 1031 239 z "},"¾":{"ha":1360,"x_min":49,"x_max":1263,"o":"m 475 0 l 261 0 l 886 972 l 1100 972 l 475 0 m 1263 106 l 1195 106 l 1195 1 l 1031 1 l 1031 106 l 770 106 l 770 227 q 890 395 839 307 q 989 577 941 483 l 1195 577 l 1195 239 l 1263 239 l 1263 106 m 1031 239 l 1031 423 q 1024 407 1030 419 q 1009 378 1018 395 q 989 342 1000 361 q 966 303 978 322 q 941 267 954 284 q 917 239 928 250 l 1031 239 m 468 567 q 396 432 468 482 q 208 382 323 382 q 116 393 154 382 q 49 416 78 404 l 49 550 q 196 514 121 514 q 288 568 288 514 q 264 608 288 593 q 196 623 241 623 l 102 623 l 102 754 l 191 754 q 250 768 229 754 q 271 806 271 781 q 252 841 271 827 q 201 854 234 854 q 64 817 125 854 l 64 947 q 237 986 148 986 q 394 946 337 986 q 450 835 450 906 q 425 751 450 785 q 354 705 399 718 l 354 703 q 437 655 406 692 q 468 567 468 618 z "},"₣":{"ha":751,"x_min":14,"x_max":705,"o":"m 389 123 l 389 0 l 96 0 l 96 123 l 14 123 l 14 268 l 96 268 l 96 972 l 705 972 l 705 743 l 389 743 l 389 589 l 677 589 l 677 359 l 389 359 l 389 268 l 577 268 l 577 123 l 389 123 z "},"Ğ":{"ha":1010,"x_min":41,"x_max":947,"o":"m 947 64 q 783 8 892 33 q 575 -17 674 -17 q 180 111 319 -17 q 41 469 41 239 q 112 744 41 624 q 309 926 182 864 q 610 989 437 989 q 880 953 736 989 l 880 697 q 751 740 813 728 q 616 751 690 751 q 424 679 496 751 q 353 479 353 606 q 413 290 353 358 q 581 221 473 221 q 654 227 631 221 l 654 366 l 468 366 l 468 587 l 947 587 l 947 64 m 793 1297 q 713 1123 782 1184 q 526 1063 645 1063 q 391 1093 450 1063 q 299 1177 332 1122 q 265 1297 266 1231 l 428 1297 q 461 1238 435 1260 q 530 1217 488 1217 q 598 1238 572 1217 q 631 1297 624 1260 l 793 1297 z "},"ğ":{"ha":892,"x_min":39,"x_max":822,"o":"m 822 97 q 696 -215 822 -103 q 329 -326 570 -326 q 203 -316 264 -326 q 115 -293 142 -306 l 115 -66 q 217 -110 159 -94 q 321 -126 275 -126 q 476 -79 418 -126 q 534 45 534 -33 l 534 87 l 532 87 q 446 12 500 40 q 329 -17 391 -17 q 117 76 195 -17 q 39 334 39 170 q 79 532 39 446 q 193 665 120 618 q 353 711 265 711 q 532 623 473 711 l 534 623 l 534 694 l 822 694 l 822 97 m 539 367 q 512 464 539 428 q 439 500 484 500 q 361 456 390 500 q 332 340 332 413 q 356 234 332 273 q 433 195 380 195 q 511 235 483 195 q 539 343 539 275 l 539 367 m 707 1039 q 628 865 696 926 q 441 804 559 804 q 306 834 365 804 q 214 918 247 864 q 180 1039 180 972 l 342 1039 q 376 980 349 1002 q 445 958 402 958 q 513 980 487 958 q 545 1039 538 1002 l 707 1039 z "},"İ":{"ha":484,"x_min":96,"x_max":389,"o":"m 96 0 l 96 972 l 389 972 l 389 0 l 96 0 m 379 1174 q 343 1094 379 1124 q 249 1063 307 1063 q 155 1095 192 1063 q 118 1174 118 1126 q 154 1252 118 1223 q 249 1282 191 1282 q 343 1252 308 1282 q 379 1174 379 1223 z "},"Ş":{"ha":794,"x_min":56,"x_max":771,"o":"m 771 294 q 689 91 771 172 q 452 -10 608 10 l 452 -45 q 585 -165 585 -54 q 523 -281 585 -241 q 349 -321 462 -321 q 271 -317 313 -321 l 271 -200 q 326 -205 296 -205 q 385 -194 365 -205 q 404 -165 404 -183 q 388 -135 404 -144 q 334 -125 372 -125 l 322 -125 l 308 -126 l 309 -16 q 69 35 178 -10 l 69 301 q 204 229 130 256 q 342 201 278 201 q 416 219 390 201 q 443 269 443 236 q 430 311 443 293 q 390 345 416 329 q 290 387 363 360 q 56 679 56 477 q 163 904 56 820 q 450 989 270 989 q 544 985 501 989 q 622 975 587 981 q 720 951 656 968 l 720 704 q 478 771 597 771 q 399 753 429 771 q 370 703 370 734 q 394 652 370 672 q 494 600 418 632 q 708 467 646 539 q 771 294 771 394 z "},"ş":{"ha":671,"x_min":65,"x_max":633,"o":"m 633 231 q 569 69 633 131 q 387 -10 505 7 l 387 -45 q 519 -165 519 -54 q 458 -281 519 -241 q 283 -321 397 -321 q 205 -317 248 -321 l 205 -200 q 261 -205 231 -205 q 319 -194 300 -205 q 339 -165 339 -183 q 323 -135 339 -144 q 269 -125 307 -125 l 257 -125 l 243 -126 l 243 -15 q 65 16 140 -6 l 65 218 q 279 161 193 161 q 364 205 364 161 q 345 236 364 224 q 241 275 325 248 q 107 353 149 304 q 65 478 65 401 q 151 649 65 586 q 392 711 237 711 q 585 685 483 711 l 585 490 q 491 521 542 509 q 406 533 440 533 q 360 524 377 533 q 343 497 343 514 q 361 465 343 477 q 435 436 380 453 q 587 356 541 405 q 633 231 633 307 z "},"Ć":{"ha":875,"x_min":41,"x_max":819,"o":"m 819 26 q 541 -17 699 -17 q 273 42 385 -17 q 101 211 160 102 q 41 464 41 321 q 108 738 41 618 q 296 923 174 858 q 575 989 417 989 q 819 958 701 989 l 819 688 q 722 726 779 712 q 608 739 666 739 q 420 671 489 739 q 351 485 351 602 q 420 301 351 368 q 604 233 489 233 q 819 288 711 233 l 819 26 m 575 1063 l 371 1063 l 574 1280 l 817 1280 l 575 1063 z "},"ć":{"ha":688,"x_min":39,"x_max":692,"o":"m 642 20 q 554 -7 614 3 q 416 -17 494 -17 q 220 27 307 -17 q 86 152 134 72 q 39 332 39 232 q 89 536 39 451 q 233 666 140 621 q 450 711 327 711 q 572 703 518 711 q 642 682 626 694 l 642 457 q 579 487 620 474 q 504 500 538 500 q 375 459 419 500 q 332 346 332 419 q 375 234 332 274 q 493 195 418 195 q 642 233 574 195 l 642 20 m 451 804 l 247 804 l 450 1022 l 692 1022 l 451 804 z "},"Č":{"ha":875,"x_min":41,"x_max":819,"o":"m 819 26 q 541 -17 699 -17 q 273 42 385 -17 q 101 211 160 102 q 41 464 41 321 q 108 738 41 618 q 296 923 174 858 q 575 989 417 989 q 819 958 701 989 l 819 688 q 722 726 779 712 q 608 739 666 739 q 420 671 489 739 q 351 485 351 602 q 420 301 351 368 q 604 233 489 233 q 819 288 711 233 l 819 26 m 773 1280 l 600 1063 l 385 1063 l 211 1280 l 389 1280 l 488 1177 l 589 1280 l 773 1280 z "},"č":{"ha":688,"x_min":39,"x_max":654,"o":"m 642 20 q 554 -7 614 3 q 416 -17 494 -17 q 220 27 307 -17 q 86 152 134 72 q 39 332 39 232 q 89 536 39 451 q 233 666 140 621 q 450 711 327 711 q 572 703 518 711 q 642 682 626 694 l 642 457 q 579 487 620 474 q 504 500 538 500 q 375 459 419 500 q 332 346 332 419 q 375 234 332 274 q 493 195 418 195 q 642 233 574 195 l 642 20 m 654 1022 l 480 804 l 265 804 l 92 1022 l 269 1022 l 369 918 l 469 1022 l 654 1022 z "},"đ":{"ha":892,"x_min":39,"x_max":892,"o":"m 533 0 l 533 81 l 530 81 q 440 9 496 35 q 330 -17 385 -17 q 174 27 241 -17 q 72 149 106 71 q 39 335 39 228 q 79 531 39 446 q 191 664 119 616 q 354 711 264 711 q 433 699 397 711 q 496 666 469 687 q 530 625 523 646 l 533 625 l 533 783 l 347 783 l 347 916 l 533 916 l 533 1028 l 822 1028 l 822 916 l 892 916 l 892 783 l 822 783 l 822 0 l 533 0 m 539 368 q 512 465 539 431 q 437 500 484 500 q 361 457 391 500 q 332 342 332 414 q 433 195 332 195 q 510 234 481 195 q 539 350 539 274 l 539 368 z "},"¯":{"ha":503,"x_min":29,"x_max":473,"o":"m 29 777 l 29 928 l 473 928 l 473 777 l 29 777 z "},"∙":{"ha":444,"x_min":92,"x_max":353,"o":"m 353 484 q 318 402 353 433 q 220 372 283 372 q 129 403 165 372 q 92 484 92 434 q 128 562 92 533 q 222 591 165 591 q 317 561 281 591 q 353 484 353 532 z "},"Ă":{"ha":1042,"x_min":9,"x_max":1023,"o":"m 705 0 l 663 179 l 372 179 l 326 0 l 9 0 l 345 972 l 708 972 l 1023 0 l 705 0 m 521 761 l 514 761 q 505 707 513 745 q 422 387 496 670 l 608 387 l 541 652 q 521 761 526 710 m 784 1297 q 705 1123 773 1184 q 517 1063 636 1063 q 382 1093 441 1063 q 290 1177 323 1122 q 256 1297 257 1231 l 419 1297 q 452 1238 426 1260 q 522 1217 479 1217 q 589 1238 564 1217 q 622 1297 615 1260 l 784 1297 z "},"ă":{"ha":779,"x_min":31,"x_max":718,"o":"m 454 0 l 454 106 l 452 106 q 240 -17 382 -17 q 86 41 142 -17 q 31 197 31 100 q 282 435 31 402 l 454 457 q 424 513 454 491 q 342 534 393 534 q 96 468 225 534 l 96 656 q 237 696 152 680 q 382 711 321 711 q 638 636 559 711 q 718 383 718 560 l 718 0 l 454 0 m 283 236 q 301 189 283 208 q 353 171 319 171 q 426 205 398 171 q 454 292 454 239 l 454 318 l 357 304 q 283 236 283 292 m 664 1039 q 585 865 653 926 q 397 804 516 804 q 262 834 321 804 q 170 918 203 864 q 136 1039 137 972 l 299 1039 q 332 980 306 1002 q 401 958 359 958 q 469 980 444 958 q 502 1039 495 1002 l 664 1039 z "},"Ą":{"ha":1042,"x_min":9,"x_max":1023,"o":"m 904 0 q 876 -58 888 -26 q 863 -116 863 -90 q 877 -154 863 -141 q 913 -167 890 -167 q 993 -148 951 -167 l 993 -252 q 934 -274 970 -265 q 871 -282 899 -282 q 753 -245 792 -282 q 713 -144 713 -208 q 732 -67 713 -105 q 784 0 751 -30 l 705 0 l 663 179 l 372 179 l 326 0 l 9 0 l 345 972 l 708 972 l 1023 0 l 904 0 m 521 761 l 514 761 q 505 707 513 745 q 422 387 496 670 l 608 387 l 541 652 q 521 761 526 710 z "},"ą":{"ha":779,"x_min":31,"x_max":721,"o":"m 632 0 q 604 -58 616 -26 q 591 -116 591 -90 q 605 -154 591 -141 q 641 -167 618 -167 q 721 -148 679 -167 l 721 -252 q 662 -274 698 -265 q 599 -282 627 -282 q 481 -245 520 -282 q 441 -144 441 -208 q 460 -67 441 -105 q 512 0 479 -30 l 454 0 l 454 106 l 452 106 q 240 -17 382 -17 q 86 41 142 -17 q 31 197 31 100 q 282 435 31 402 l 454 457 q 424 513 454 491 q 342 534 393 534 q 96 468 225 534 l 96 656 q 237 696 152 680 q 382 711 321 711 q 638 636 559 711 q 718 383 718 560 l 718 0 l 632 0 m 283 236 q 301 189 283 208 q 353 171 319 171 q 426 205 398 171 q 454 292 454 239 l 454 318 l 357 304 q 283 236 283 292 z "},"Ď":{"ha":1054,"x_min":96,"x_max":1013,"o":"m 1013 498 q 950 237 1013 351 q 773 62 888 123 q 507 0 658 0 l 96 0 l 96 972 l 498 972 q 1013 498 1013 972 m 701 496 q 672 624 701 567 q 590 712 644 681 q 464 743 536 743 l 389 743 l 389 229 l 471 229 q 638 301 576 229 q 701 496 701 374 m 781 1280 l 608 1063 l 393 1063 l 219 1280 l 397 1280 l 496 1177 l 597 1280 l 781 1280 z "},"ď":{"ha":1127,"x_min":39,"x_max":1154,"o":"m 533 0 l 533 81 l 530 81 q 440 9 496 35 q 330 -17 385 -17 q 174 27 241 -17 q 72 149 106 71 q 39 335 39 228 q 79 531 39 446 q 191 664 119 616 q 354 711 264 711 q 433 699 397 711 q 496 666 469 687 q 530 625 523 646 l 533 625 l 533 1028 l 822 1028 l 822 0 l 533 0 m 539 368 q 512 465 539 431 q 437 500 484 500 q 361 457 391 500 q 332 342 332 414 q 433 195 332 195 q 510 234 481 195 q 539 350 539 274 l 539 368 m 1154 1028 l 1018 781 l 869 781 l 911 1028 l 1154 1028 z "},"Đ":{"ha":1054,"x_min":-17,"x_max":1013,"o":"m 1013 498 q 950 237 1013 351 q 773 62 888 123 q 507 0 658 0 l 96 0 l 96 372 l -17 372 l -17 602 l 96 602 l 96 972 l 498 972 q 1013 498 1013 972 m 701 496 q 672 624 701 567 q 590 712 644 681 q 464 743 536 743 l 389 743 l 389 602 l 551 602 l 551 372 l 389 372 l 389 229 l 471 229 q 638 301 576 229 q 701 496 701 374 z "},"Ę":{"ha":766,"x_min":96,"x_max":724,"o":"m 616 0 q 588 -58 600 -26 q 576 -116 576 -90 q 589 -154 576 -141 q 625 -167 603 -167 q 705 -148 663 -167 l 705 -252 q 647 -274 682 -265 q 583 -282 611 -282 q 465 -245 505 -282 q 426 -144 426 -208 q 445 -67 426 -105 q 496 0 463 -30 l 96 0 l 96 972 l 701 972 l 701 743 l 389 743 l 389 602 l 682 602 l 682 372 l 389 372 l 389 229 l 724 229 l 724 0 l 616 0 z "},"ę":{"ha":778,"x_min":39,"x_max":747,"o":"m 318 265 q 370 195 326 220 q 486 170 414 170 q 677 208 587 170 l 677 25 q 470 -16 591 -10 q 439 -116 439 -70 q 452 -154 439 -141 q 488 -167 466 -167 q 568 -148 526 -167 l 568 -252 q 510 -274 545 -265 q 446 -282 474 -282 q 328 -245 368 -282 q 289 -144 289 -208 q 347 -12 289 -73 q 118 98 197 7 q 39 332 39 189 q 83 529 39 444 q 215 663 127 614 q 407 711 302 711 q 591 669 515 711 q 708 551 668 627 q 747 374 747 475 l 747 265 l 318 265 m 492 416 q 406 536 492 536 q 345 504 370 536 q 317 416 321 471 l 492 416 z "},"Ě":{"ha":766,"x_min":96,"x_max":724,"o":"m 96 0 l 96 972 l 701 972 l 701 743 l 389 743 l 389 602 l 682 602 l 682 372 l 389 372 l 389 229 l 724 229 l 724 0 l 96 0 m 674 1280 l 500 1063 l 286 1063 l 112 1280 l 290 1280 l 389 1177 l 490 1280 l 674 1280 z "},"ě":{"ha":778,"x_min":39,"x_max":747,"o":"m 318 265 q 370 195 326 220 q 486 170 414 170 q 677 208 587 170 l 677 25 q 422 -17 572 -17 q 140 76 241 -17 q 39 332 39 169 q 83 529 39 444 q 215 663 127 614 q 407 711 302 711 q 591 669 515 711 q 708 551 668 627 q 747 374 747 475 l 747 265 l 318 265 m 492 416 q 406 536 492 536 q 345 504 370 536 q 317 416 321 471 l 492 416 m 678 1022 l 505 804 l 290 804 l 116 1022 l 294 1022 l 393 918 l 494 1022 l 678 1022 z "},"Ĺ":{"ha":751,"x_min":96,"x_max":724,"o":"m 96 0 l 96 972 l 389 972 l 389 229 l 724 229 l 724 0 l 96 0 m 400 1063 l 196 1063 l 399 1280 l 642 1280 l 400 1063 z "},"ĺ":{"ha":428,"x_min":59,"x_max":505,"o":"m 69 0 l 69 1028 l 358 1028 l 358 0 l 69 0 m 263 1118 l 59 1118 l 262 1336 l 505 1336 l 263 1118 z "},"Ľ":{"ha":751,"x_min":96,"x_max":758,"o":"m 96 0 l 96 972 l 389 972 l 389 229 l 724 229 l 724 0 l 96 0 m 758 972 l 622 725 l 473 725 l 515 972 l 758 972 z "},"ľ":{"ha":663,"x_min":69,"x_max":690,"o":"m 69 0 l 69 1028 l 358 1028 l 358 0 l 69 0 m 690 1028 l 554 781 l 405 781 l 448 1028 l 690 1028 z "},"Ŀ":{"ha":751,"x_min":96,"x_max":724,"o":"m 96 0 l 96 972 l 389 972 l 389 229 l 724 229 l 724 0 l 96 0 m 721 519 q 685 438 721 469 q 591 408 649 408 q 497 439 534 408 q 460 519 460 471 q 496 597 460 568 q 591 627 532 627 q 685 597 650 627 q 721 519 721 568 z "},"ŀ":{"ha":694,"x_min":69,"x_max":689,"o":"m 69 0 l 69 1028 l 358 1028 l 358 0 l 69 0 m 689 477 q 653 397 689 428 q 559 366 617 366 q 465 398 502 366 q 428 477 428 430 q 464 556 428 526 q 559 585 500 585 q 653 556 618 585 q 689 477 689 526 z "},"Ń":{"ha":1128,"x_min":96,"x_max":1032,"o":"m 775 0 l 432 469 q 366 570 391 525 l 363 570 q 367 408 367 498 l 367 0 l 96 0 l 96 972 l 372 972 l 701 526 q 716 505 707 517 q 734 480 725 493 q 750 455 743 467 q 762 433 758 443 l 765 433 q 761 536 761 463 l 761 972 l 1032 972 l 1032 0 l 775 0 m 600 1063 l 395 1063 l 598 1280 l 841 1280 l 600 1063 z "},"ń":{"ha":869,"x_min":69,"x_max":808,"o":"m 519 0 l 519 379 q 500 472 519 444 q 437 500 481 500 q 379 471 400 500 q 358 396 358 441 l 358 0 l 69 0 l 69 694 l 358 694 l 358 586 l 361 586 q 454 679 395 646 q 581 711 512 711 q 808 424 808 711 l 808 0 l 519 0 m 484 804 l 280 804 l 483 1022 l 726 1022 l 484 804 z "},"Ň":{"ha":1128,"x_min":96,"x_max":1032,"o":"m 775 0 l 432 469 q 366 570 391 525 l 363 570 q 367 408 367 498 l 367 0 l 96 0 l 96 972 l 372 972 l 701 526 q 716 505 707 517 q 734 480 725 493 q 750 455 743 467 q 762 433 758 443 l 765 433 q 761 536 761 463 l 761 972 l 1032 972 l 1032 0 l 775 0 m 845 1280 l 671 1063 l 456 1063 l 283 1280 l 460 1280 l 560 1177 l 661 1280 l 845 1280 z "},"ň":{"ha":869,"x_min":69,"x_max":808,"o":"m 519 0 l 519 379 q 500 472 519 444 q 437 500 481 500 q 379 471 400 500 q 358 396 358 441 l 358 0 l 69 0 l 69 694 l 358 694 l 358 586 l 361 586 q 454 679 395 646 q 581 711 512 711 q 808 424 808 711 l 808 0 l 519 0 m 718 1022 l 545 804 l 330 804 l 156 1022 l 334 1022 l 433 918 l 534 1022 l 718 1022 z "},"Ő":{"ha":1063,"x_min":41,"x_max":1021,"o":"m 1021 489 q 958 227 1021 342 q 781 47 895 111 q 528 -17 668 -17 q 278 45 391 -17 q 104 219 166 107 q 41 473 41 332 q 104 741 41 622 q 281 924 168 859 q 541 989 395 989 q 790 927 680 989 q 961 750 901 865 q 1021 489 1021 635 m 710 481 q 664 670 710 601 q 538 739 618 739 q 401 673 450 739 q 353 485 353 606 q 401 300 353 366 q 533 233 450 233 q 625 263 584 233 q 688 349 665 293 q 710 481 710 404 m 792 1063 l 587 1063 l 734 1282 l 968 1282 l 792 1063 m 463 1063 l 257 1063 l 404 1282 l 639 1282 l 463 1063 z "},"ő":{"ha":880,"x_min":39,"x_max":878,"o":"m 842 359 q 735 83 842 184 q 439 -17 629 -17 q 144 81 250 -17 q 39 351 39 179 q 88 543 39 462 q 229 668 138 625 q 440 711 321 711 q 654 666 564 711 q 793 540 745 621 q 842 359 842 459 m 549 358 q 440 500 549 500 q 332 351 332 500 q 441 195 332 195 q 549 358 549 195 m 701 804 l 496 804 l 643 1023 l 878 1023 l 701 804 m 372 804 l 166 804 l 313 1023 l 548 1023 l 372 804 z "},"Ŕ":{"ha":947,"x_min":96,"x_max":930,"o":"m 600 0 l 528 210 q 473 307 507 271 q 400 342 439 342 l 389 342 l 389 0 l 96 0 l 96 972 l 485 972 q 786 906 689 972 q 884 705 884 839 q 827 537 884 605 q 659 439 770 469 l 659 436 q 761 374 720 417 q 835 248 802 332 l 930 0 l 600 0 m 572 664 q 543 741 572 713 q 449 770 513 770 l 389 770 l 389 547 l 441 547 q 536 581 500 547 q 572 664 572 614 m 509 1063 l 305 1063 l 508 1280 l 751 1280 l 509 1063 z "},"ŕ":{"ha":606,"x_min":69,"x_max":593,"o":"m 591 447 q 547 460 575 454 q 501 467 519 467 q 358 301 358 467 l 358 0 l 69 0 l 69 694 l 358 694 l 358 572 l 361 572 q 436 672 387 638 q 550 707 485 707 q 591 699 574 707 l 591 447 m 352 804 l 148 804 l 351 1022 l 593 1022 l 352 804 z "},"Ř":{"ha":947,"x_min":96,"x_max":930,"o":"m 600 0 l 528 210 q 473 307 507 271 q 400 342 439 342 l 389 342 l 389 0 l 96 0 l 96 972 l 485 972 q 786 906 689 972 q 884 705 884 839 q 827 537 884 605 q 659 439 770 469 l 659 436 q 761 374 720 417 q 835 248 802 332 l 930 0 l 600 0 m 572 664 q 543 741 572 713 q 449 770 513 770 l 389 770 l 389 547 l 441 547 q 536 581 500 547 q 572 664 572 614 m 736 1280 l 562 1063 l 347 1063 l 174 1280 l 351 1280 l 451 1177 l 551 1280 l 736 1280 z "},"ř":{"ha":606,"x_min":37,"x_max":600,"o":"m 591 447 q 547 460 575 454 q 501 467 519 467 q 358 301 358 467 l 358 0 l 69 0 l 69 694 l 358 694 l 358 572 l 361 572 q 436 672 387 638 q 550 707 485 707 q 591 699 574 707 l 591 447 m 600 1022 l 426 804 l 211 804 l 37 1022 l 215 1022 l 315 918 l 415 1022 l 600 1022 z "},"Ś":{"ha":794,"x_min":56,"x_max":771,"o":"m 771 294 q 719 125 771 197 q 574 18 667 54 q 349 -17 480 -17 q 69 35 196 -17 l 69 301 q 204 229 130 256 q 342 201 278 201 q 416 219 390 201 q 443 269 443 236 q 430 311 443 293 q 390 345 416 329 q 290 387 363 360 q 56 679 56 477 q 163 904 56 820 q 450 989 270 989 q 544 985 501 989 q 622 975 587 981 q 720 951 656 968 l 720 704 q 478 771 597 771 q 399 753 429 771 q 370 703 370 734 q 394 652 370 672 q 494 600 418 632 q 708 467 646 539 q 771 294 771 394 m 433 1063 l 229 1063 l 431 1280 l 674 1280 l 433 1063 z "},"ś":{"ha":671,"x_min":65,"x_max":633,"o":"m 633 231 q 544 48 633 113 q 293 -17 454 -17 q 177 -7 246 -17 q 65 16 109 2 l 65 218 q 279 161 193 161 q 364 205 364 161 q 345 236 364 224 q 241 275 325 248 q 107 353 149 304 q 65 478 65 401 q 151 649 65 586 q 392 711 237 711 q 585 685 483 711 l 585 490 q 491 521 542 509 q 406 533 440 533 q 360 524 377 533 q 343 497 343 514 q 361 465 343 477 q 435 436 380 453 q 587 356 541 405 q 633 231 633 307 m 371 804 l 167 804 l 370 1022 l 612 1022 l 371 804 z "},"Ţ":{"ha":884,"x_min":21,"x_max":863,"o":"m 587 743 l 587 0 l 481 0 l 481 -45 q 613 -165 613 -54 q 552 -281 613 -241 q 377 -321 490 -321 q 299 -317 341 -321 l 299 -200 q 355 -205 324 -205 q 413 -194 393 -205 q 433 -165 433 -183 q 417 -135 433 -144 q 363 -125 401 -125 l 351 -125 l 336 -126 l 337 0 l 293 0 l 293 743 l 21 743 l 21 972 l 863 972 l 863 743 l 587 743 z "},"ţ":{"ha":579,"x_min":20,"x_max":558,"o":"m 558 9 q 494 -8 538 0 q 387 -17 449 -17 l 387 -45 q 519 -165 519 -54 q 457 -281 519 -241 q 283 -321 396 -321 q 205 -317 247 -321 l 205 -200 q 260 -205 230 -205 q 319 -194 299 -205 q 338 -165 338 -183 q 322 -135 338 -144 q 269 -125 307 -125 l 256 -125 l 242 -126 l 243 15 q 157 106 184 47 q 129 239 129 164 l 129 494 l 20 494 l 20 694 l 129 694 l 129 831 l 414 909 l 414 694 l 558 694 l 558 494 l 414 494 l 414 286 q 486 195 414 195 q 558 210 520 195 l 558 9 z "},"Ť":{"ha":884,"x_min":21,"x_max":863,"o":"m 587 743 l 587 0 l 293 0 l 293 743 l 21 743 l 21 972 l 863 972 l 863 743 l 587 743 m 726 1280 l 552 1063 l 337 1063 l 163 1280 l 341 1280 l 441 1177 l 541 1280 l 726 1280 z "},"ť":{"ha":753,"x_min":20,"x_max":781,"o":"m 558 9 q 494 -8 538 0 q 386 -17 449 -17 q 197 50 265 -17 q 129 239 129 116 l 129 494 l 20 494 l 20 694 l 129 694 l 129 831 l 414 909 l 414 694 l 558 694 l 558 494 l 414 494 l 414 286 q 486 195 414 195 q 558 210 520 195 l 558 9 m 781 1028 l 644 781 l 495 781 l 538 1028 l 781 1028 z "},"Ů":{"ha":1028,"x_min":85,"x_max":943,"o":"m 943 444 q 837 97 943 210 q 507 -17 730 -17 q 192 97 300 -17 q 85 439 85 210 l 85 972 l 379 972 l 379 428 q 414 284 379 334 q 514 233 449 233 q 614 281 580 233 q 648 421 648 328 l 648 972 l 943 972 l 943 444 m 692 1222 q 641 1106 692 1150 q 509 1063 590 1063 q 380 1107 431 1063 q 330 1222 330 1152 q 353 1306 330 1271 q 418 1361 376 1342 q 509 1381 459 1381 q 643 1337 593 1381 q 692 1222 692 1293 m 574 1222 q 558 1260 574 1244 q 509 1276 543 1276 q 463 1261 478 1276 q 448 1222 448 1245 q 465 1183 448 1199 q 509 1168 482 1168 q 556 1183 537 1168 q 574 1222 574 1198 z "},"ů":{"ha":869,"x_min":61,"x_max":800,"o":"m 511 0 l 511 107 l 509 107 q 444 35 473 58 q 379 -3 415 12 q 294 -17 342 -17 q 121 57 180 -17 q 61 275 61 131 l 61 694 l 350 694 l 350 297 q 427 195 350 195 q 490 222 469 195 q 511 301 511 250 l 511 694 l 800 694 l 800 0 l 511 0 m 613 964 q 562 848 613 892 q 429 804 511 804 q 301 849 351 804 q 250 964 250 893 q 274 1048 250 1013 q 338 1103 297 1084 q 429 1122 380 1122 q 563 1079 513 1122 q 613 964 613 1035 m 495 964 q 479 1002 495 985 q 429 1018 463 1018 q 384 1002 399 1018 q 368 964 368 987 q 386 925 368 941 q 429 909 403 909 q 476 925 458 909 q 495 964 495 940 z "},"Ű":{"ha":1028,"x_min":85,"x_max":951,"o":"m 943 444 q 837 97 943 210 q 507 -17 730 -17 q 192 97 300 -17 q 85 439 85 210 l 85 972 l 379 972 l 379 428 q 414 284 379 334 q 514 233 449 233 q 614 281 580 233 q 648 421 648 328 l 648 972 l 943 972 l 943 444 m 775 1063 l 570 1063 l 717 1282 l 951 1282 l 775 1063 m 446 1063 l 240 1063 l 387 1282 l 622 1282 l 446 1063 z "},"ű":{"ha":869,"x_min":61,"x_max":865,"o":"m 511 0 l 511 107 l 509 107 q 444 35 473 58 q 379 -3 415 12 q 294 -17 342 -17 q 121 57 180 -17 q 61 275 61 131 l 61 694 l 350 694 l 350 297 q 427 195 350 195 q 490 222 469 195 q 511 301 511 250 l 511 694 l 800 694 l 800 0 l 511 0 m 689 804 l 484 804 l 631 1023 l 865 1023 l 689 804 m 359 804 l 154 804 l 301 1023 l 536 1023 l 359 804 z "},"Ź":{"ha":890,"x_min":41,"x_max":857,"o":"m 418 229 l 857 229 l 857 0 l 41 0 l 41 205 l 490 743 l 69 743 l 69 972 l 843 972 l 843 768 l 418 229 m 509 1063 l 305 1063 l 508 1280 l 751 1280 l 509 1063 z "},"ź":{"ha":707,"x_min":17,"x_max":682,"o":"m 396 200 l 682 200 l 682 0 l 17 0 l 17 134 l 329 494 l 46 494 l 46 694 l 676 694 l 676 530 l 396 200 m 403 804 l 199 804 l 401 1022 l 644 1022 l 403 804 z "},"Ż":{"ha":890,"x_min":41,"x_max":857,"o":"m 418 229 l 857 229 l 857 0 l 41 0 l 41 205 l 490 743 l 69 743 l 69 972 l 843 972 l 843 768 l 418 229 m 589 1174 q 553 1094 589 1124 q 459 1063 517 1063 q 365 1095 402 1063 q 328 1174 328 1126 q 365 1252 328 1223 q 459 1282 401 1282 q 554 1252 518 1282 q 589 1174 589 1223 z "},"ż":{"ha":707,"x_min":17,"x_max":682,"o":"m 396 200 l 682 200 l 682 0 l 17 0 l 17 134 l 329 494 l 46 494 l 46 694 l 676 694 l 676 530 l 396 200 m 493 916 q 457 835 493 866 q 363 804 421 804 q 269 836 306 804 q 232 916 232 868 q 268 994 232 964 q 363 1023 304 1023 q 457 994 422 1023 q 493 916 493 964 z "},"Γ":{"ha":751,"x_min":96,"x_max":724,"o":"m 389 743 l 389 0 l 96 0 l 96 972 l 724 972 l 724 743 l 389 743 z "},"Θ":{"ha":1063,"x_min":41,"x_max":1021,"o":"m 1021 489 q 958 227 1021 342 q 781 47 895 111 q 528 -17 668 -17 q 278 45 391 -17 q 104 219 166 107 q 41 473 41 332 q 104 741 41 622 q 281 924 168 859 q 541 989 395 989 q 790 927 680 989 q 961 750 901 865 q 1021 489 1021 635 m 710 481 q 664 670 710 601 q 538 739 618 739 q 401 673 450 739 q 353 485 353 606 q 401 300 353 366 q 533 233 450 233 q 625 263 584 233 q 688 349 665 293 q 710 481 710 404 m 408 386 l 408 587 l 656 587 l 656 386 l 408 386 z "},"Φ":{"ha":1215,"x_min":41,"x_max":1174,"o":"m 1174 513 q 1120 310 1174 401 q 969 169 1065 220 q 757 118 872 118 l 746 118 l 746 -17 l 469 -17 l 469 118 l 458 118 q 243 168 339 118 q 94 307 146 218 q 41 505 41 395 q 97 700 41 612 q 250 836 152 787 q 458 885 349 885 l 469 885 l 469 989 l 746 989 l 746 884 l 758 884 q 968 836 872 884 q 1119 703 1064 788 q 1174 513 1174 617 m 888 503 q 851 625 888 577 q 754 673 815 673 l 746 673 l 746 328 l 753 328 q 849 377 811 328 q 888 503 888 427 m 472 673 l 465 673 q 367 624 404 673 q 330 500 330 574 q 369 374 330 421 q 465 328 407 328 l 472 328 l 472 673 z "},"α":{"ha":918,"x_min":39,"x_max":897,"o":"m 509 355 q 473 469 494 438 q 415 500 452 500 q 350 457 376 500 q 323 343 323 414 q 343 234 323 273 q 399 195 363 195 q 456 228 430 195 q 498 318 481 261 l 509 355 m 573 119 q 325 -17 486 -17 q 115 77 192 -17 q 39 326 39 170 q 80 525 39 436 q 196 662 121 613 q 364 711 271 711 q 576 614 522 711 l 579 614 l 603 694 l 890 694 l 735 345 q 772 241 747 277 q 832 205 798 205 q 897 220 867 205 l 897 14 q 759 -12 848 -12 q 642 19 686 -12 q 577 119 597 51 l 573 119 z "},"δ":{"ha":880,"x_min":39,"x_max":842,"o":"m 842 337 q 794 150 842 229 q 655 26 747 70 q 435 -17 563 -17 q 233 23 321 -17 q 92 141 144 62 q 39 313 39 219 q 94 494 39 413 q 256 627 149 574 q 136 819 136 711 q 177 940 136 890 q 291 1018 218 991 q 460 1044 365 1044 q 590 1034 532 1044 q 742 994 648 1024 l 742 753 q 614 813 680 792 q 490 833 547 833 q 448 823 467 833 q 429 791 429 812 q 457 751 429 772 q 545 701 486 730 l 619 663 q 788 522 734 603 q 842 337 842 441 m 549 335 q 516 432 549 387 q 428 498 483 477 q 360 438 388 485 q 332 339 332 391 q 360 233 332 272 q 440 195 389 195 q 520 232 492 195 q 549 335 549 269 z "},"ε":{"ha":673,"x_min":36,"x_max":632,"o":"m 632 16 q 359 -17 520 -17 q 118 33 199 -17 q 36 180 36 83 q 74 294 36 250 q 182 358 112 339 l 182 361 q 93 419 125 377 q 61 519 61 461 q 142 662 61 613 q 378 711 223 711 q 603 685 494 711 l 603 505 l 561 518 q 440 536 499 536 q 378 523 401 536 q 354 485 354 510 q 463 427 354 427 q 525 431 490 427 l 542 433 l 542 269 q 439 275 485 275 q 359 262 389 275 q 329 220 329 248 q 441 158 329 158 q 541 170 494 158 q 632 197 588 182 l 632 16 z "},"σ":{"ha":905,"x_min":39,"x_max":892,"o":"m 757 494 q 795 414 780 463 q 811 317 811 366 q 712 70 811 157 q 433 -17 612 -17 q 144 82 249 -17 q 39 351 39 182 q 140 603 39 511 q 424 694 241 694 l 892 694 l 892 494 l 757 494 m 518 353 q 512 414 518 382 q 488 494 506 446 l 454 494 q 365 455 399 494 q 332 339 332 416 q 358 235 332 275 q 429 195 385 195 q 495 235 472 195 q 518 353 518 275 z "},"τ":{"ha":839,"x_min":25,"x_max":794,"o":"m 561 494 l 561 294 q 581 225 561 248 q 635 203 601 203 q 668 207 654 203 q 701 218 682 211 l 701 9 q 637 -8 682 0 q 529 -17 592 -17 q 340 50 408 -17 q 272 239 272 116 l 272 494 l 239 494 q 25 424 118 494 l 25 642 q 269 694 117 694 l 794 694 l 794 494 l 561 494 z "},"φ":{"ha":1117,"x_min":39,"x_max":1078,"o":"m 1078 336 q 1032 152 1078 233 q 900 27 986 71 q 701 -17 814 -17 l 685 -17 l 685 -326 l 424 -326 l 424 -17 l 407 -17 q 214 28 298 -17 q 84 156 130 73 q 39 346 39 239 q 62 522 39 432 q 131 694 85 611 l 411 694 q 336 547 370 649 q 302 366 302 446 q 332 241 302 289 q 411 193 361 193 l 424 193 l 424 396 q 505 630 424 548 q 734 711 585 711 q 990 614 902 711 q 1078 336 1078 517 m 812 354 q 739 501 812 501 q 685 418 685 501 l 685 193 l 705 193 q 784 237 755 193 q 812 354 812 281 z "},"‗":{"ha":576,"x_min":0,"x_max":576,"o":"m 0 -185 l 0 -114 l 576 -114 l 576 -185 l 0 -185 m 0 -349 l 0 -278 l 576 -278 l 576 -349 l 0 -349 z "},"‼":{"ha":916,"x_min":93,"x_max":823,"o":"m 368 328 l 136 328 l 100 972 l 404 972 l 368 328 m 415 121 q 371 22 415 60 q 254 -17 328 -17 q 138 22 183 -17 q 93 121 93 62 q 137 217 93 180 q 254 254 180 254 q 371 217 326 254 q 415 121 415 180 m 777 328 l 545 328 l 508 972 l 812 972 l 777 328 m 823 121 q 780 22 823 60 q 663 -17 736 -17 q 546 22 591 -17 q 501 121 501 62 q 545 217 501 180 q 663 254 589 254 q 779 217 734 254 q 823 121 823 180 z "},"ⁿ":{"ha":639,"x_min":72,"x_max":571,"o":"m 389 485 l 389 766 q 324 849 389 849 q 273 828 293 849 q 254 775 254 807 l 254 485 l 72 485 l 72 972 l 254 972 l 254 907 l 256 907 q 410 983 309 983 q 571 810 571 983 l 571 485 l 389 485 z "},"₧":{"ha":1948,"x_min":96,"x_max":1925,"o":"m 829 652 q 779 475 829 552 q 635 355 728 397 q 417 313 541 313 l 375 313 l 375 0 l 96 0 l 96 972 l 433 972 q 734 895 639 972 q 829 652 829 817 m 533 642 q 498 732 533 701 q 397 762 464 762 l 375 762 l 375 522 l 407 522 q 533 642 533 522 m 1364 9 q 1299 -8 1344 0 q 1192 -17 1255 -17 q 1011 48 1074 -17 q 948 239 948 113 l 948 373 l 839 373 l 839 559 l 948 559 l 948 654 l 1219 732 l 1219 559 l 1364 559 l 1364 373 l 1219 373 l 1219 286 q 1292 195 1219 195 q 1364 210 1326 195 l 1364 9 m 1925 189 q 1845 39 1925 92 q 1617 -14 1765 -14 q 1508 -6 1567 -14 q 1411 13 1449 3 l 1411 179 q 1505 147 1456 161 q 1605 132 1554 132 q 1664 140 1647 132 q 1681 163 1681 147 q 1658 189 1681 178 q 1571 219 1634 200 q 1451 284 1490 242 q 1411 392 1411 327 q 1490 533 1411 482 q 1706 583 1568 583 q 1795 577 1744 583 q 1881 562 1847 570 l 1881 402 q 1718 437 1775 437 q 1662 411 1662 437 q 1682 386 1662 395 q 1745 364 1701 376 q 1879 299 1832 340 q 1925 189 1925 258 z "},"Ĳ":{"ha":1236,"x_min":96,"x_max":1152,"o":"m 96 0 l 96 972 l 389 972 l 389 0 l 96 0 m 1152 415 q 732 -17 1152 -17 q 650 -9 698 -17 q 554 16 603 -1 l 554 286 q 631 248 589 262 q 701 233 673 233 q 819 282 780 233 q 858 432 858 330 l 858 972 l 1152 972 l 1152 415 z "},"ĳ":{"ha":856,"x_min":53,"x_max":803,"o":"m 375 882 q 331 783 375 821 q 214 745 286 745 q 98 784 143 745 q 53 882 53 823 q 97 978 53 941 q 214 1015 140 1015 q 331 978 286 1015 q 375 882 375 941 m 69 0 l 69 694 l 358 694 l 358 0 l 69 0 m 803 882 q 759 783 803 821 q 642 745 714 745 q 526 784 571 745 q 481 882 481 823 q 525 978 481 941 q 642 1015 568 1015 q 759 978 714 1015 q 803 882 803 941 m 786 -7 q 750 -174 786 -98 q 644 -288 714 -250 q 478 -326 574 -326 q 363 -306 425 -326 l 363 -94 q 432 -115 401 -115 q 483 -91 468 -115 q 497 -18 497 -67 l 497 694 l 786 694 l 786 -7 z "},"ŉ":{"ha":1092,"x_min":-17,"x_max":1031,"o":"m 151 694 l -17 694 l 66 996 l 315 996 l 151 694 m 742 0 l 742 379 q 723 472 742 444 q 660 500 703 500 q 602 471 623 500 q 581 396 581 441 l 581 0 l 292 0 l 292 694 l 581 694 l 581 586 l 583 586 q 676 679 618 646 q 803 711 734 711 q 1031 424 1031 711 l 1031 0 l 742 0 z "},"′":{"ha":443,"x_min":79,"x_max":363,"o":"m 248 618 l 79 618 l 163 972 l 363 972 l 248 618 z "},"″":{"ha":806,"x_min":79,"x_max":727,"o":"m 248 618 l 79 618 l 163 972 l 363 972 l 248 618 m 611 618 l 443 618 l 526 972 l 727 972 l 611 618 z "},"℅":{"ha":1114,"x_min":11,"x_max":1103,"o":"m 1103 282 q 1069 125 1103 195 q 973 21 1034 56 q 827 -14 911 -14 q 658 45 720 -14 q 595 199 595 104 q 631 355 595 284 q 729 459 667 425 q 877 493 792 493 q 1043 437 983 493 q 1103 282 1103 382 m 227 0 l 11 0 l 843 972 l 1057 972 l 227 0 m 922 278 q 906 329 922 311 q 866 347 890 347 q 802 309 825 347 q 779 201 779 270 q 794 152 779 170 q 834 134 809 134 q 898 174 874 134 q 922 278 922 215 m 412 814 q 303 846 357 846 q 226 805 255 846 q 197 699 197 764 q 215 643 197 663 q 263 623 233 623 q 390 656 319 623 l 364 509 q 239 479 307 479 q 75 535 135 479 q 15 692 15 591 q 51 842 15 775 q 154 948 87 909 q 301 986 220 986 q 433 958 381 986 l 412 814 z "},"ℓ":{"ha":449,"x_min":9,"x_max":437,"o":"m 131 446 l 131 754 q 170 956 131 900 q 289 1011 209 1011 q 397 965 357 1011 q 437 848 437 920 q 392 686 437 779 q 244 452 347 593 l 244 170 q 247 113 244 125 q 283 81 254 81 q 324 92 300 81 q 418 153 348 102 l 418 43 q 265 -17 342 -17 q 131 147 131 -17 l 131 300 l 77 233 l 9 286 l 131 446 m 244 610 q 309 724 300 706 q 343 848 343 795 q 329 907 343 884 q 292 929 315 929 q 261 913 271 929 q 244 764 244 884 l 244 610 z "},"□":{"ha":839,"x_min":98,"x_max":739,"o":"m 739 0 l 98 0 l 98 640 l 739 640 l 739 0 m 688 52 l 688 589 l 150 589 l 150 52 l 688 52 z "},"▪":{"ha":492,"x_min":89,"x_max":403,"o":"m 403 301 l 89 301 l 89 615 l 403 615 l 403 301 z "},"▫":{"ha":492,"x_min":89,"x_max":403,"o":"m 403 301 l 89 301 l 89 615 l 403 615 l 403 301 m 351 353 l 351 564 l 140 564 l 140 353 l 351 353 z "},"●":{"ha":839,"x_min":121,"x_max":718,"o":"m 421 93 q 209 179 298 93 q 121 392 121 266 q 160 540 121 468 q 271 651 200 612 q 419 690 342 690 q 571 648 498 690 q 681 535 644 606 q 718 392 718 463 q 632 181 718 270 q 421 93 545 93 z "},"◦":{"ha":492,"x_min":77,"x_max":416,"o":"m 245 289 q 126 339 175 289 q 77 460 77 389 q 126 579 77 529 q 245 629 176 629 q 367 579 317 629 q 416 460 416 530 q 367 339 416 389 q 245 289 317 289 m 245 578 q 162 542 196 578 q 127 460 127 507 q 162 375 127 410 q 248 340 197 340 q 331 375 296 340 q 366 460 366 410 q 332 542 366 505 q 245 578 298 578 z "},"Ā":{"ha":1042,"x_min":9,"x_max":1023,"o":"m 705 0 l 663 179 l 372 179 l 326 0 l 9 0 l 345 972 l 708 972 l 1023 0 l 705 0 m 521 761 l 514 761 q 505 707 513 745 q 422 387 496 670 l 608 387 l 541 652 q 521 761 526 710 m 298 1063 l 298 1215 l 742 1215 l 742 1063 l 298 1063 z "},"ā":{"ha":779,"x_min":31,"x_max":718,"o":"m 454 0 l 454 106 l 452 106 q 240 -17 382 -17 q 86 41 142 -17 q 31 197 31 100 q 282 435 31 402 l 454 457 q 424 513 454 491 q 342 534 393 534 q 96 468 225 534 l 96 656 q 237 696 152 680 q 382 711 321 711 q 638 636 559 711 q 718 383 718 560 l 718 0 l 454 0 m 283 236 q 301 189 283 208 q 353 171 319 171 q 426 205 398 171 q 454 292 454 239 l 454 318 l 357 304 q 283 236 283 292 m 178 805 l 178 956 l 623 956 l 623 805 l 178 805 z "},"Ĉ":{"ha":875,"x_min":41,"x_max":819,"o":"m 819 26 q 541 -17 699 -17 q 273 42 385 -17 q 101 211 160 102 q 41 464 41 321 q 108 738 41 618 q 296 923 174 858 q 575 989 417 989 q 819 958 701 989 l 819 688 q 722 726 779 712 q 608 739 666 739 q 420 671 489 739 q 351 485 351 602 q 420 301 351 368 q 604 233 489 233 q 819 288 711 233 l 819 26 m 595 1063 l 494 1166 l 395 1063 l 217 1063 l 391 1280 l 606 1280 l 779 1063 l 595 1063 z "},"ĉ":{"ha":688,"x_min":39,"x_max":654,"o":"m 642 20 q 554 -7 614 3 q 416 -17 494 -17 q 220 27 307 -17 q 86 152 134 72 q 39 332 39 232 q 89 536 39 451 q 233 666 140 621 q 450 711 327 711 q 572 703 518 711 q 642 682 626 694 l 642 457 q 579 487 620 474 q 504 500 538 500 q 375 459 419 500 q 332 346 332 419 q 375 234 332 274 q 493 195 418 195 q 642 233 574 195 l 642 20 m 469 804 l 369 908 l 269 804 l 92 804 l 265 1022 l 480 1022 l 654 804 l 469 804 z "},"Ċ":{"ha":875,"x_min":41,"x_max":819,"o":"m 819 26 q 541 -17 699 -17 q 273 42 385 -17 q 101 211 160 102 q 41 464 41 321 q 108 738 41 618 q 296 923 174 858 q 575 989 417 989 q 819 958 701 989 l 819 688 q 722 726 779 712 q 608 739 666 739 q 420 671 489 739 q 351 485 351 602 q 420 301 351 368 q 604 233 489 233 q 819 288 711 233 l 819 26 m 609 1174 q 573 1094 609 1124 q 479 1063 537 1063 q 385 1095 422 1063 q 348 1174 348 1126 q 384 1252 348 1223 q 479 1282 420 1282 q 573 1252 538 1282 q 609 1174 609 1223 z "},"ċ":{"ha":688,"x_min":39,"x_max":642,"o":"m 642 20 q 554 -7 614 3 q 416 -17 494 -17 q 220 27 307 -17 q 86 152 134 72 q 39 332 39 232 q 89 536 39 451 q 233 666 140 621 q 450 711 327 711 q 572 703 518 711 q 642 682 626 694 l 642 457 q 579 487 620 474 q 504 500 538 500 q 375 459 419 500 q 332 346 332 419 q 375 234 332 274 q 493 195 418 195 q 642 233 574 195 l 642 20 m 497 916 q 461 835 497 866 q 367 804 425 804 q 273 836 310 804 q 236 916 236 868 q 272 994 236 964 q 367 1023 309 1023 q 461 994 426 1023 q 497 916 497 964 z "},"Ē":{"ha":766,"x_min":96,"x_max":724,"o":"m 96 0 l 96 972 l 701 972 l 701 743 l 389 743 l 389 602 l 682 602 l 682 372 l 389 372 l 389 229 l 724 229 l 724 0 l 96 0 m 177 1063 l 177 1215 l 621 1215 l 621 1063 l 177 1063 z "},"ē":{"ha":778,"x_min":39,"x_max":747,"o":"m 318 265 q 370 195 326 220 q 486 170 414 170 q 677 208 587 170 l 677 25 q 422 -17 572 -17 q 140 76 241 -17 q 39 332 39 169 q 83 529 39 444 q 215 663 127 614 q 407 711 302 711 q 591 669 515 711 q 708 551 668 627 q 747 374 747 475 l 747 265 l 318 265 m 492 416 q 406 536 492 536 q 345 504 370 536 q 317 416 321 471 l 492 416 m 178 805 l 178 956 l 623 956 l 623 805 l 178 805 z "},"Ĕ":{"ha":766,"x_min":96,"x_max":724,"o":"m 96 0 l 96 972 l 701 972 l 701 743 l 389 743 l 389 602 l 682 602 l 682 372 l 389 372 l 389 229 l 724 229 l 724 0 l 96 0 m 660 1297 q 581 1123 649 1184 q 393 1063 512 1063 q 258 1093 317 1063 q 166 1177 199 1122 q 132 1297 133 1231 l 295 1297 q 328 1238 302 1260 q 397 1217 355 1217 q 465 1238 439 1217 q 498 1297 491 1260 l 660 1297 z "},"ĕ":{"ha":778,"x_min":39,"x_max":747,"o":"m 318 265 q 370 195 326 220 q 486 170 414 170 q 677 208 587 170 l 677 25 q 422 -17 572 -17 q 140 76 241 -17 q 39 332 39 169 q 83 529 39 444 q 215 663 127 614 q 407 711 302 711 q 591 669 515 711 q 708 551 668 627 q 747 374 747 475 l 747 265 l 318 265 m 492 416 q 406 536 492 536 q 345 504 370 536 q 317 416 321 471 l 492 416 m 665 1039 q 586 865 654 926 q 399 804 517 804 q 264 834 323 804 q 172 918 205 864 q 138 1039 138 972 l 300 1039 q 334 980 307 1002 q 403 958 360 958 q 471 980 445 958 q 503 1039 496 1002 l 665 1039 z "},"Ė":{"ha":766,"x_min":96,"x_max":724,"o":"m 96 0 l 96 972 l 701 972 l 701 743 l 389 743 l 389 602 l 682 602 l 682 372 l 389 372 l 389 229 l 724 229 l 724 0 l 96 0 m 528 1174 q 492 1094 528 1124 q 397 1063 456 1063 q 303 1095 340 1063 q 267 1174 267 1126 q 303 1252 267 1223 q 397 1282 339 1282 q 492 1252 456 1282 q 528 1174 528 1223 z "},"ė":{"ha":778,"x_min":39,"x_max":747,"o":"m 318 265 q 370 195 326 220 q 486 170 414 170 q 677 208 587 170 l 677 25 q 422 -17 572 -17 q 140 76 241 -17 q 39 332 39 169 q 83 529 39 444 q 215 663 127 614 q 407 711 302 711 q 591 669 515 711 q 708 551 668 627 q 747 374 747 475 l 747 265 l 318 265 m 492 416 q 406 536 492 536 q 345 504 370 536 q 317 416 321 471 l 492 416 m 532 916 q 496 835 532 866 q 401 804 460 804 q 308 836 345 804 q 271 916 271 868 q 307 994 271 964 q 401 1023 343 1023 q 496 994 460 1023 q 532 916 532 964 z "},"Ĝ":{"ha":1010,"x_min":41,"x_max":947,"o":"m 947 64 q 783 8 892 33 q 575 -17 674 -17 q 180 111 319 -17 q 41 469 41 239 q 112 744 41 624 q 309 926 182 864 q 610 989 437 989 q 880 953 736 989 l 880 697 q 751 740 813 728 q 616 751 690 751 q 424 679 496 751 q 353 479 353 606 q 413 290 353 358 q 581 221 473 221 q 654 227 631 221 l 654 366 l 468 366 l 468 587 l 947 587 l 947 64 m 637 1063 l 537 1166 l 437 1063 l 260 1063 l 433 1280 l 648 1280 l 822 1063 l 637 1063 z "},"ĝ":{"ha":892,"x_min":39,"x_max":822,"o":"m 822 97 q 696 -215 822 -103 q 329 -326 570 -326 q 203 -316 264 -326 q 115 -293 142 -306 l 115 -66 q 217 -110 159 -94 q 321 -126 275 -126 q 476 -79 418 -126 q 534 45 534 -33 l 534 87 l 532 87 q 446 12 500 40 q 329 -17 391 -17 q 117 76 195 -17 q 39 334 39 170 q 79 532 39 446 q 193 665 120 618 q 353 711 265 711 q 532 623 473 711 l 534 623 l 534 694 l 822 694 l 822 97 m 539 367 q 512 464 539 428 q 439 500 484 500 q 361 456 390 500 q 332 340 332 413 q 356 234 332 273 q 433 195 380 195 q 511 235 483 195 q 539 343 539 275 l 539 367 m 541 804 l 441 908 l 341 804 l 163 804 l 337 1022 l 552 1022 l 726 804 l 541 804 z "},"Ġ":{"ha":1010,"x_min":41,"x_max":947,"o":"m 947 64 q 783 8 892 33 q 575 -17 674 -17 q 180 111 319 -17 q 41 469 41 239 q 112 744 41 624 q 309 926 182 864 q 610 989 437 989 q 880 953 736 989 l 880 697 q 751 740 813 728 q 616 751 690 751 q 424 679 496 751 q 353 479 353 606 q 413 290 353 358 q 581 221 473 221 q 654 227 631 221 l 654 366 l 468 366 l 468 587 l 947 587 l 947 64 m 682 1174 q 646 1094 682 1124 q 551 1063 610 1063 q 457 1095 494 1063 q 420 1174 420 1126 q 457 1252 420 1223 q 551 1282 493 1282 q 646 1252 610 1282 q 682 1174 682 1223 z "},"ġ":{"ha":892,"x_min":39,"x_max":822,"o":"m 822 97 q 696 -215 822 -103 q 329 -326 570 -326 q 203 -316 264 -326 q 115 -293 142 -306 l 115 -66 q 217 -110 159 -94 q 321 -126 275 -126 q 476 -79 418 -126 q 534 45 534 -33 l 534 87 l 532 87 q 446 12 500 40 q 329 -17 391 -17 q 117 76 195 -17 q 39 334 39 170 q 79 532 39 446 q 193 665 120 618 q 353 711 265 711 q 532 623 473 711 l 534 623 l 534 694 l 822 694 l 822 97 m 539 367 q 512 464 539 428 q 439 500 484 500 q 361 456 390 500 q 332 340 332 413 q 356 234 332 273 q 433 195 380 195 q 511 235 483 195 q 539 343 539 275 l 539 367 m 584 916 q 548 835 584 866 q 454 804 512 804 q 360 836 397 804 q 323 916 323 868 q 359 994 323 964 q 454 1023 395 1023 q 548 994 513 1023 q 584 916 584 964 z "},"Ģ":{"ha":1010,"x_min":41,"x_max":947,"o":"m 947 64 q 783 8 892 33 q 575 -17 674 -17 q 180 111 319 -17 q 41 469 41 239 q 112 744 41 624 q 309 926 182 864 q 610 989 437 989 q 880 953 736 989 l 880 697 q 751 740 813 728 q 616 751 690 751 q 424 679 496 751 q 353 479 353 606 q 413 290 353 358 q 581 221 473 221 q 654 227 631 221 l 654 366 l 468 366 l 468 587 l 947 587 l 947 64 m 699 -73 l 563 -319 l 414 -319 l 456 -73 l 699 -73 z "},"ģ":{"ha":892,"x_min":39,"x_max":822,"o":"m 441 1045 l 590 1045 l 533 827 l 290 827 l 441 1045 m 822 97 q 696 -215 822 -103 q 329 -326 570 -326 q 203 -316 264 -326 q 115 -293 142 -306 l 115 -66 q 217 -110 159 -94 q 321 -126 275 -126 q 476 -79 418 -126 q 534 45 534 -33 l 534 87 l 532 87 q 446 12 500 40 q 329 -17 391 -17 q 117 76 195 -17 q 39 334 39 170 q 79 532 39 446 q 193 665 120 618 q 353 711 265 711 q 532 623 473 711 l 534 623 l 534 694 l 822 694 l 822 97 m 539 367 q 512 464 539 428 q 439 500 484 500 q 361 456 390 500 q 332 340 332 413 q 356 234 332 273 q 433 195 380 195 q 511 235 483 195 q 539 343 539 275 l 539 367 z "},"Ĥ":{"ha":1116,"x_min":96,"x_max":1018,"o":"m 725 0 l 725 363 l 389 363 l 389 0 l 96 0 l 96 972 l 389 972 l 389 612 l 725 612 l 725 972 l 1018 972 l 1018 0 l 725 0 m 657 1063 l 557 1166 l 457 1063 l 279 1063 l 453 1280 l 668 1280 l 842 1063 l 657 1063 z "},"ĥ":{"ha":857,"x_min":69,"x_max":796,"o":"m 517 0 l 517 396 q 437 500 517 500 q 378 470 399 500 q 358 395 358 441 l 358 0 l 69 0 l 69 1028 l 358 1028 l 358 600 l 361 600 q 451 683 398 654 q 566 711 505 711 q 737 639 678 711 q 796 427 796 567 l 796 0 l 517 0 m 531 1063 l 431 1166 l 331 1063 l 153 1063 l 327 1280 l 542 1280 l 715 1063 l 531 1063 z "},"Ħ":{"ha":1116,"x_min":21,"x_max":1095,"o":"m 725 0 l 725 363 l 389 363 l 389 0 l 96 0 l 96 718 l 21 718 l 21 850 l 96 850 l 96 972 l 389 972 l 389 850 l 725 850 l 725 972 l 1018 972 l 1018 850 l 1095 850 l 1095 718 l 1018 718 l 1018 0 l 725 0 m 725 612 l 725 718 l 389 718 l 389 612 l 725 612 z "},"ħ":{"ha":857,"x_min":0,"x_max":796,"o":"m 358 783 l 358 580 l 361 580 q 451 662 398 633 q 566 691 505 691 q 737 619 678 691 q 796 406 796 547 l 796 0 l 517 0 l 517 376 q 437 479 517 479 q 378 450 399 479 q 358 374 358 420 l 358 0 l 69 0 l 69 783 l 0 783 l 0 916 l 69 916 l 69 1028 l 358 1028 l 358 916 l 545 916 l 545 783 l 358 783 z "},"Ĩ":{"ha":524,"x_min":-1,"x_max":530,"o":"m 96 0 l 96 972 l 389 972 l 389 0 l 96 0 m 530 1291 q 489 1119 530 1179 q 372 1060 448 1060 q 256 1093 312 1060 q 214 1119 233 1107 q 173 1131 195 1131 q 132 1110 147 1131 q 117 1050 117 1089 l -1 1050 q 41 1223 -1 1166 q 155 1281 83 1281 q 283 1242 224 1281 q 320 1220 302 1230 q 359 1210 338 1210 q 396 1230 382 1210 q 410 1291 410 1250 l 530 1291 z "},"ĩ":{"ha":428,"x_min":-50,"x_max":480,"o":"m 69 0 l 69 694 l 358 694 l 358 0 l 69 0 m 480 1044 q 439 873 480 932 q 322 814 399 814 q 207 847 262 814 q 164 873 184 861 q 123 885 145 885 q 83 864 98 885 q 68 804 68 843 l -50 804 q -8 977 -50 920 q 105 1035 33 1035 q 233 996 174 1035 q 271 974 253 983 q 309 964 288 964 q 347 984 332 964 q 361 1044 361 1004 l 480 1044 z "},"Ī":{"ha":484,"x_min":21,"x_max":465,"o":"m 96 0 l 96 972 l 389 972 l 389 0 l 96 0 m 21 1063 l 21 1215 l 465 1215 l 465 1063 l 21 1063 z "},"ī":{"ha":428,"x_min":-9,"x_max":435,"o":"m 69 0 l 69 694 l 358 694 l 358 0 l 69 0 m -9 805 l -9 956 l 435 956 l 435 805 l -9 805 z "},"Ĭ":{"ha":524,"x_min":-1,"x_max":527,"o":"m 96 0 l 96 972 l 389 972 l 389 0 l 96 0 m 527 1297 q 448 1123 516 1184 q 260 1063 379 1063 q 125 1093 184 1063 q 33 1177 66 1122 q -1 1297 0 1231 l 162 1297 q 195 1238 169 1260 q 264 1217 222 1217 q 332 1238 307 1217 q 365 1297 358 1260 l 527 1297 z "},"ĭ":{"ha":428,"x_min":-50,"x_max":478,"o":"m 69 0 l 69 694 l 358 694 l 358 0 l 69 0 m 478 1039 q 399 865 467 926 q 212 804 330 804 q 77 834 136 804 q -16 918 18 864 q -50 1039 -49 972 l 113 1039 q 146 980 120 1002 q 216 958 173 958 q 283 980 258 958 q 316 1039 309 1002 l 478 1039 z "},"Į":{"ha":484,"x_min":96,"x_max":389,"o":"m 96 0 l 96 972 l 389 972 l 389 0 l 96 0 m 288 0 q 260 -58 272 -26 q 248 -116 248 -90 q 261 -154 248 -141 q 297 -167 275 -167 q 377 -148 335 -167 l 377 -252 q 318 -274 354 -265 q 255 -282 283 -282 q 137 -245 176 -282 q 98 -144 98 -208 q 116 -67 98 -105 q 168 0 135 -30 l 288 0 z "},"į":{"ha":428,"x_min":53,"x_max":375,"o":"m 264 0 q 236 -58 248 -26 q 224 -116 224 -90 q 237 -154 224 -141 q 273 -167 251 -167 q 353 -148 311 -167 l 353 -252 q 295 -274 330 -265 q 231 -282 259 -282 q 113 -245 153 -282 q 74 -144 74 -208 q 93 -67 74 -105 q 144 0 111 -30 l 69 0 l 69 694 l 358 694 l 358 0 l 264 0 m 375 882 q 331 783 375 821 q 214 745 286 745 q 98 784 143 745 q 53 882 53 823 q 97 978 53 941 q 214 1015 140 1015 q 331 978 286 1015 q 375 882 375 941 z "},"Ĵ":{"ha":710,"x_min":28,"x_max":758,"o":"m 625 415 q 205 -17 625 -17 q 124 -9 172 -17 q 28 16 77 -1 l 28 286 q 105 248 62 262 q 175 233 147 233 q 293 282 254 233 q 332 432 332 330 l 332 972 l 625 972 l 625 415 m 573 1063 l 473 1166 l 373 1063 l 195 1063 l 369 1280 l 584 1280 l 758 1063 l 573 1063 z "},"ĵ":{"ha":428,"x_min":-66,"x_max":496,"o":"m 358 -7 q 322 -174 358 -98 q 216 -288 286 -250 q 50 -326 146 -326 q -65 -306 -3 -326 l -65 -94 q 4 -115 -27 -115 q 55 -91 40 -115 q 69 -18 69 -67 l 69 694 l 358 694 l 358 -7 m 311 804 l 211 908 l 111 804 l -66 804 l 107 1022 l 322 1022 l 496 804 l 311 804 z "},"Ķ":{"ha":958,"x_min":96,"x_max":989,"o":"m 633 0 l 418 411 q 392 478 396 460 l 389 478 l 389 0 l 96 0 l 96 972 l 389 972 l 389 510 l 392 510 q 421 578 405 547 l 615 972 l 962 972 l 686 509 l 989 0 l 633 0 m 641 -73 l 505 -319 l 355 -319 l 398 -73 l 641 -73 z "},"ķ":{"ha":823,"x_min":69,"x_max":838,"o":"m 515 0 l 361 357 l 358 357 l 358 0 l 69 0 l 69 1028 l 358 1028 l 358 368 l 361 368 l 501 694 l 827 694 l 639 376 l 838 0 l 515 0 m 562 -73 l 425 -319 l 276 -319 l 319 -73 l 562 -73 z "},"ĸ":{"ha":823,"x_min":69,"x_max":838,"o":"m 515 0 l 361 357 l 358 357 l 358 0 l 69 0 l 69 694 l 358 694 l 358 368 l 361 368 l 501 694 l 827 694 l 639 376 l 838 0 l 515 0 z "},"Ļ":{"ha":751,"x_min":96,"x_max":724,"o":"m 460 0 l 460 -45 q 593 -165 593 -54 q 531 -281 593 -241 q 357 -321 470 -321 q 279 -317 321 -321 l 279 -200 q 334 -205 304 -205 q 393 -194 373 -205 q 412 -165 412 -183 q 396 -135 412 -144 q 342 -125 380 -125 l 330 -125 l 316 -126 l 316 0 l 96 0 l 96 972 l 389 972 l 389 229 l 724 229 l 724 0 l 460 0 z "},"ļ":{"ha":428,"x_min":69,"x_max":389,"o":"m 257 0 l 257 -45 q 389 -165 389 -54 q 328 -281 389 -241 q 153 -321 267 -321 q 75 -317 117 -321 l 75 -200 q 131 -205 100 -205 q 189 -194 170 -205 q 209 -165 209 -183 q 193 -135 209 -144 q 139 -125 177 -125 l 127 -125 l 113 -126 l 113 0 l 69 0 l 69 1028 l 358 1028 l 358 0 l 257 0 z "},"Ņ":{"ha":1128,"x_min":96,"x_max":1032,"o":"m 775 0 l 432 469 q 366 570 391 525 l 363 570 q 367 408 367 498 l 367 0 l 96 0 l 96 972 l 372 972 l 701 526 q 716 505 707 517 q 734 480 725 493 q 750 455 743 467 q 762 433 758 443 l 765 433 q 761 536 761 463 l 761 972 l 1032 972 l 1032 0 l 775 0 m 705 -73 l 569 -319 l 420 -319 l 463 -73 l 705 -73 z "},"ņ":{"ha":869,"x_min":69,"x_max":808,"o":"m 519 0 l 519 379 q 500 472 519 444 q 437 500 481 500 q 379 471 400 500 q 358 396 358 441 l 358 0 l 69 0 l 69 694 l 358 694 l 358 586 l 361 586 q 454 679 395 646 q 581 711 512 711 q 808 424 808 711 l 808 0 l 519 0 m 566 -73 l 430 -319 l 281 -319 l 323 -73 l 566 -73 z "},"Ŋ":{"ha":1128,"x_min":96,"x_max":1032,"o":"m 1032 73 q 940 -228 1032 -130 q 667 -326 848 -326 q 589 -317 635 -326 q 509 -296 542 -309 l 509 -39 q 571 -64 532 -52 q 636 -76 610 -76 q 715 -48 688 -76 q 753 31 743 -20 l 432 469 q 366 570 391 525 l 363 570 q 367 408 367 498 l 367 0 l 96 0 l 96 972 l 372 972 l 701 526 q 716 505 707 517 q 734 480 725 493 q 750 455 743 467 q 762 433 758 443 l 765 433 q 761 536 761 463 l 761 972 l 1032 972 l 1032 73 z "},"ŋ":{"ha":869,"x_min":69,"x_max":808,"o":"m 519 379 q 500 472 519 444 q 437 500 481 500 q 379 471 400 500 q 358 396 358 441 l 358 0 l 69 0 l 69 694 l 358 694 l 358 586 l 361 586 q 454 679 395 646 q 581 711 512 711 q 808 424 808 711 l 808 0 q 767 -163 805 -92 q 662 -270 730 -234 q 500 -306 593 -306 q 385 -286 448 -306 l 385 -74 q 454 -95 423 -95 q 505 -71 490 -95 q 519 2 519 -47 l 519 379 z "},"Ō":{"ha":1063,"x_min":41,"x_max":1021,"o":"m 1021 489 q 958 227 1021 342 q 781 47 895 111 q 528 -17 668 -17 q 278 45 391 -17 q 104 219 166 107 q 41 473 41 332 q 104 741 41 622 q 281 924 168 859 q 541 989 395 989 q 790 927 680 989 q 961 750 901 865 q 1021 489 1021 635 m 710 481 q 664 670 710 601 q 538 739 618 739 q 401 673 450 739 q 353 485 353 606 q 401 300 353 366 q 533 233 450 233 q 625 263 584 233 q 688 349 665 293 q 710 481 710 404 m 308 1063 l 308 1215 l 752 1215 l 752 1063 l 308 1063 z "},"ō":{"ha":880,"x_min":39,"x_max":842,"o":"m 842 359 q 735 83 842 184 q 439 -17 629 -17 q 144 81 250 -17 q 39 351 39 179 q 88 543 39 462 q 229 668 138 625 q 440 711 321 711 q 654 666 564 711 q 793 540 745 621 q 842 359 842 459 m 549 358 q 440 500 549 500 q 332 351 332 500 q 441 195 332 195 q 549 358 549 195 m 217 805 l 217 956 l 661 956 l 661 805 l 217 805 z "},"Ŏ":{"ha":1063,"x_min":41,"x_max":1021,"o":"m 1021 489 q 958 227 1021 342 q 781 47 895 111 q 528 -17 668 -17 q 278 45 391 -17 q 104 219 166 107 q 41 473 41 332 q 104 741 41 622 q 281 924 168 859 q 541 989 395 989 q 790 927 680 989 q 961 750 901 865 q 1021 489 1021 635 m 710 481 q 664 670 710 601 q 538 739 618 739 q 401 673 450 739 q 353 485 353 606 q 401 300 353 366 q 533 233 450 233 q 625 263 584 233 q 688 349 665 293 q 710 481 710 404 m 795 1297 q 715 1123 784 1184 q 528 1063 647 1063 q 393 1093 452 1063 q 301 1177 334 1122 q 267 1297 268 1231 l 430 1297 q 463 1238 437 1260 q 532 1217 490 1217 q 600 1238 574 1217 q 633 1297 626 1260 l 795 1297 z "},"ŏ":{"ha":880,"x_min":39,"x_max":842,"o":"m 842 359 q 735 83 842 184 q 439 -17 629 -17 q 144 81 250 -17 q 39 351 39 179 q 88 543 39 462 q 229 668 138 625 q 440 711 321 711 q 654 666 564 711 q 793 540 745 621 q 842 359 842 459 m 549 358 q 440 500 549 500 q 332 351 332 500 q 441 195 332 195 q 549 358 549 195 m 703 1039 q 624 865 692 926 q 437 804 555 804 q 302 834 361 804 q 210 918 243 864 q 176 1039 176 972 l 338 1039 q 372 980 345 1002 q 441 958 398 958 q 509 980 483 958 q 541 1039 534 1002 l 703 1039 z "},"Ŗ":{"ha":947,"x_min":96,"x_max":930,"o":"m 600 0 l 528 210 q 473 307 507 271 q 400 342 439 342 l 389 342 l 389 0 l 96 0 l 96 972 l 485 972 q 786 906 689 972 q 884 705 884 839 q 827 537 884 605 q 659 439 770 469 l 659 436 q 761 374 720 417 q 835 248 802 332 l 930 0 l 600 0 m 572 664 q 543 741 572 713 q 449 770 513 770 l 389 770 l 389 547 l 441 547 q 536 581 500 547 q 572 664 572 614 m 621 -73 l 485 -319 l 336 -319 l 378 -73 l 621 -73 z "},"ŗ":{"ha":606,"x_min":69,"x_max":591,"o":"m 591 447 q 547 460 575 454 q 501 467 519 467 q 358 301 358 467 l 358 0 l 69 0 l 69 694 l 358 694 l 358 572 l 361 572 q 436 672 387 638 q 550 707 485 707 q 591 699 574 707 l 591 447 m 359 -73 l 222 -319 l 73 -319 l 116 -73 l 359 -73 z "},"Ŝ":{"ha":794,"x_min":56,"x_max":771,"o":"m 771 294 q 719 125 771 197 q 574 18 667 54 q 349 -17 480 -17 q 69 35 196 -17 l 69 301 q 204 229 130 256 q 342 201 278 201 q 416 219 390 201 q 443 269 443 236 q 430 311 443 293 q 390 345 416 329 q 290 387 363 360 q 56 679 56 477 q 163 904 56 820 q 450 989 270 989 q 544 985 501 989 q 622 975 587 981 q 720 951 656 968 l 720 704 q 478 771 597 771 q 399 753 429 771 q 370 703 370 734 q 394 652 370 672 q 494 600 418 632 q 708 467 646 539 q 771 294 771 394 m 496 1063 l 396 1166 l 296 1063 l 119 1063 l 292 1280 l 507 1280 l 681 1063 l 496 1063 z "},"ŝ":{"ha":671,"x_min":56,"x_max":633,"o":"m 633 231 q 544 48 633 113 q 293 -17 454 -17 q 177 -7 246 -17 q 65 16 109 2 l 65 218 q 279 161 193 161 q 364 205 364 161 q 345 236 364 224 q 241 275 325 248 q 107 353 149 304 q 65 478 65 401 q 151 649 65 586 q 392 711 237 711 q 585 685 483 711 l 585 490 q 491 521 542 509 q 406 533 440 533 q 360 524 377 533 q 343 497 343 514 q 361 465 343 477 q 435 436 380 453 q 587 356 541 405 q 633 231 633 307 m 433 804 l 333 908 l 233 804 l 56 804 l 229 1022 l 444 1022 l 618 804 l 433 804 z "},"Ŧ":{"ha":884,"x_min":21,"x_max":863,"o":"m 587 743 l 587 540 l 781 540 l 781 408 l 587 408 l 587 0 l 293 0 l 293 408 l 96 408 l 96 540 l 293 540 l 293 743 l 21 743 l 21 972 l 863 972 l 863 743 l 587 743 z "},"ŧ":{"ha":579,"x_min":20,"x_max":558,"o":"m 558 9 q 494 -8 538 0 q 386 -17 449 -17 q 197 50 265 -17 q 129 239 129 116 l 129 289 l 41 289 l 41 421 l 129 421 l 129 494 l 20 494 l 20 694 l 129 694 l 129 831 l 414 909 l 414 694 l 558 694 l 558 494 l 414 494 l 414 421 l 527 421 l 527 289 l 414 289 l 414 286 q 486 195 414 195 q 558 210 520 195 l 558 9 z "},"Ũ":{"ha":1028,"x_min":85,"x_max":943,"o":"m 943 444 q 837 97 943 210 q 507 -17 730 -17 q 192 97 300 -17 q 85 439 85 210 l 85 972 l 379 972 l 379 428 q 414 284 379 334 q 514 233 449 233 q 614 281 580 233 q 648 421 648 328 l 648 972 l 943 972 l 943 444 m 779 1270 q 739 1098 779 1158 q 621 1039 698 1039 q 506 1072 562 1039 q 464 1098 483 1086 q 422 1110 444 1110 q 382 1089 397 1110 q 367 1029 367 1068 l 249 1029 q 291 1202 249 1145 q 404 1260 332 1260 q 532 1221 473 1260 q 570 1199 552 1208 q 608 1189 587 1189 q 646 1209 631 1189 q 660 1270 660 1229 l 779 1270 z "},"ũ":{"ha":869,"x_min":61,"x_max":800,"o":"m 511 0 l 511 107 l 509 107 q 444 35 473 58 q 379 -3 415 12 q 294 -17 342 -17 q 121 57 180 -17 q 61 275 61 131 l 61 694 l 350 694 l 350 297 q 427 195 350 195 q 490 222 469 195 q 511 301 511 250 l 511 694 l 800 694 l 800 0 l 511 0 m 700 1044 q 659 873 700 932 q 542 814 618 814 q 427 847 482 814 q 384 873 404 861 q 343 885 365 885 q 302 864 317 885 q 288 804 288 843 l 170 804 q 211 977 170 920 q 325 1035 253 1035 q 453 996 394 1035 q 490 974 473 983 q 529 964 508 964 q 566 984 552 964 q 581 1044 581 1004 l 700 1044 z "},"Ū":{"ha":1028,"x_min":85,"x_max":943,"o":"m 943 444 q 837 97 943 210 q 507 -17 730 -17 q 192 97 300 -17 q 85 439 85 210 l 85 972 l 379 972 l 379 428 q 414 284 379 334 q 514 233 449 233 q 614 281 580 233 q 648 421 648 328 l 648 972 l 943 972 l 943 444 m 291 1063 l 291 1215 l 735 1215 l 735 1063 l 291 1063 z "},"ū":{"ha":869,"x_min":61,"x_max":800,"o":"m 511 0 l 511 107 l 509 107 q 444 35 473 58 q 379 -3 415 12 q 294 -17 342 -17 q 121 57 180 -17 q 61 275 61 131 l 61 694 l 350 694 l 350 297 q 427 195 350 195 q 490 222 469 195 q 511 301 511 250 l 511 694 l 800 694 l 800 0 l 511 0 m 212 805 l 212 956 l 656 956 l 656 805 l 212 805 z "},"Ŭ":{"ha":1028,"x_min":85,"x_max":943,"o":"m 943 444 q 837 97 943 210 q 507 -17 730 -17 q 192 97 300 -17 q 85 439 85 210 l 85 972 l 379 972 l 379 428 q 414 284 379 334 q 514 233 449 233 q 614 281 580 233 q 648 421 648 328 l 648 972 l 943 972 l 943 444 m 777 1297 q 698 1123 766 1184 q 511 1063 629 1063 q 376 1093 435 1063 q 283 1177 317 1122 q 250 1297 250 1231 l 412 1297 q 446 1238 419 1260 q 515 1217 472 1217 q 583 1238 557 1217 q 615 1297 608 1260 l 777 1297 z "},"ŭ":{"ha":869,"x_min":61,"x_max":800,"o":"m 511 0 l 511 107 l 509 107 q 444 35 473 58 q 379 -3 415 12 q 294 -17 342 -17 q 121 57 180 -17 q 61 275 61 131 l 61 694 l 350 694 l 350 297 q 427 195 350 195 q 490 222 469 195 q 511 301 511 250 l 511 694 l 800 694 l 800 0 l 511 0 m 698 1039 q 618 865 687 926 q 431 804 550 804 q 296 834 355 804 q 204 918 237 864 q 170 1039 171 972 l 333 1039 q 366 980 340 1002 q 435 958 393 958 q 503 980 477 958 q 536 1039 529 1002 l 698 1039 z "},"Ų":{"ha":1028,"x_min":85,"x_max":943,"o":"m 943 444 q 851 114 943 227 q 572 -14 760 1 q 540 -116 540 -70 q 553 -154 540 -141 q 589 -167 567 -167 q 669 -148 627 -167 l 669 -252 q 611 -274 646 -265 q 547 -282 575 -282 q 429 -245 469 -282 q 390 -144 390 -208 q 446 -14 390 -75 q 176 115 268 1 q 85 439 85 228 l 85 972 l 379 972 l 379 428 q 414 284 379 334 q 514 233 449 233 q 614 281 580 233 q 648 421 648 328 l 648 972 l 943 972 l 943 444 z "},"ų":{"ha":869,"x_min":61,"x_max":800,"o":"m 511 0 l 511 107 l 509 107 q 444 35 473 58 q 379 -3 415 12 q 294 -17 342 -17 q 121 57 180 -17 q 61 275 61 131 l 61 694 l 350 694 l 350 297 q 427 195 350 195 q 490 222 469 195 q 511 301 511 250 l 511 694 l 800 694 l 800 0 l 511 0 m 653 0 q 625 -58 637 -26 q 612 -116 612 -90 q 626 -154 612 -141 q 662 -167 640 -167 q 742 -148 700 -167 l 742 -252 q 683 -274 719 -265 q 620 -282 648 -282 q 502 -245 541 -282 q 463 -144 463 -208 q 481 -67 463 -105 q 533 0 500 -30 l 653 0 z "},"Ŵ":{"ha":1463,"x_min":14,"x_max":1449,"o":"m 1203 0 l 892 0 l 757 554 q 743 672 751 578 l 741 672 q 721 554 730 589 l 575 0 l 245 0 l 14 972 l 335 972 l 416 400 q 422 337 418 389 l 427 281 l 431 281 q 439 341 432 298 q 452 404 446 383 l 602 972 l 921 972 l 1046 396 l 1055 338 l 1061 282 l 1064 282 l 1066 306 l 1075 400 l 1160 972 l 1449 972 l 1203 0 m 831 1063 l 730 1166 l 631 1063 l 453 1063 l 627 1280 l 842 1280 l 1015 1063 l 831 1063 z "},"ŵ":{"ha":1174,"x_min":9,"x_max":1164,"o":"m 970 0 l 669 0 l 600 338 q 587 446 587 399 l 583 446 q 568 342 576 374 l 493 0 l 193 0 l 9 694 l 300 694 l 359 290 l 370 200 l 374 200 q 386 293 382 279 l 475 694 l 750 694 l 827 293 l 833 245 l 836 201 l 840 201 l 842 221 l 904 694 l 1164 694 l 970 0 m 686 804 l 586 908 l 486 804 l 309 804 l 482 1022 l 697 1022 l 871 804 l 686 804 z "},"Ŷ":{"ha":903,"x_min":0,"x_max":903,"o":"m 593 338 l 593 0 l 300 0 l 300 334 l 0 972 l 336 972 l 441 667 q 457 612 452 635 q 467 566 461 589 l 469 566 q 489 661 478 627 l 593 972 l 903 972 l 593 338 m 551 1063 l 450 1166 l 351 1063 l 173 1063 l 347 1280 l 562 1280 l 735 1063 l 551 1063 z "},"ŷ":{"ha":798,"x_min":-14,"x_max":811,"o":"m 204 -326 q 117 -319 163 -326 q 33 -298 70 -312 l 33 -81 q 84 -104 50 -94 q 147 -115 117 -115 q 254 -52 228 -115 l 277 3 l -14 694 l 306 694 l 390 359 q 416 233 414 266 l 419 233 q 425 267 421 248 q 530 694 429 285 l 811 694 l 555 -20 q 413 -255 498 -184 q 204 -326 328 -326 m 498 804 l 397 908 l 298 804 l 120 804 l 294 1022 l 509 1022 l 682 804 l 498 804 z "},"ſ":{"ha":530,"x_min":64,"x_max":530,"o":"m 530 818 q 447 833 486 833 q 376 809 399 833 q 353 742 353 784 l 353 0 l 64 0 l 64 758 q 103 908 64 843 q 217 1008 142 972 q 399 1044 292 1044 q 530 1029 477 1044 l 530 818 z "},"Ǻ":{"ha":1042,"x_min":9,"x_max":1023,"o":"m 705 0 l 663 179 l 372 179 l 326 0 l 9 0 l 345 972 q 326 1050 326 1009 q 381 1176 326 1128 q 524 1223 437 1223 q 670 1175 616 1223 q 725 1050 725 1127 q 708 972 725 1004 l 1023 0 l 705 0 m 596 1050 q 578 1092 596 1074 q 524 1109 560 1109 q 474 1092 490 1109 q 457 1050 457 1075 q 475 1007 457 1025 q 524 990 494 990 q 576 1007 556 990 q 596 1050 596 1024 m 521 750 l 514 750 q 505 700 508 711 q 428 408 503 688 l 603 408 l 539 652 q 526 713 530 689 l 521 750 m 557 1260 l 353 1260 l 555 1478 l 798 1478 l 557 1260 z "},"ǻ":{"ha":779,"x_min":31,"x_max":718,"o":"m 454 0 l 454 106 l 452 106 q 240 -17 382 -17 q 86 41 142 -17 q 31 197 31 100 q 282 435 31 402 l 454 457 q 424 513 454 491 q 342 534 393 534 q 96 468 225 534 l 96 656 q 237 696 152 680 q 382 711 321 711 q 638 636 559 711 q 718 383 718 560 l 718 0 l 454 0 m 283 236 q 301 189 283 208 q 353 171 319 171 q 426 205 398 171 q 454 292 454 239 l 454 318 l 357 304 q 283 236 283 292 m 574 918 q 523 803 574 846 q 390 759 471 759 q 261 803 312 759 q 211 918 211 848 q 234 1003 211 967 q 299 1058 258 1038 q 390 1077 340 1077 q 524 1033 474 1077 q 574 918 574 989 m 456 918 q 440 956 456 940 q 390 972 424 972 q 344 957 359 972 q 329 918 329 941 q 346 880 329 895 q 390 864 363 864 q 437 879 418 864 q 456 918 456 895 m 412 1125 l 208 1125 l 410 1343 l 653 1343 l 412 1125 z "},"Ǽ":{"ha":1377,"x_min":-8,"x_max":1333,"o":"m 705 0 l 705 179 l 412 179 l 332 0 l -8 0 l 498 972 l 1311 972 l 1311 743 l 999 743 l 999 602 l 1292 602 l 1292 372 l 999 372 l 999 229 l 1333 229 l 1333 0 l 705 0 m 705 743 l 668 743 l 505 387 l 705 387 l 705 743 m 895 1063 l 691 1063 l 894 1280 l 1137 1280 l 895 1063 z "},"ǽ":{"ha":1164,"x_min":31,"x_max":1133,"o":"m 704 265 q 873 170 725 170 q 1067 210 975 170 l 1067 26 q 799 -17 956 -17 q 634 11 709 -17 q 518 86 560 39 l 515 86 q 282 -17 418 -17 q 95 40 159 -17 q 31 201 31 98 q 96 361 31 300 q 279 433 161 422 l 454 450 q 424 512 454 490 q 340 534 393 534 q 220 517 286 534 q 96 468 155 500 l 96 656 q 236 696 160 680 q 363 711 312 711 q 595 648 503 711 l 597 648 q 806 711 699 711 q 1044 619 955 711 q 1133 370 1133 526 l 1133 265 l 704 265 m 878 416 q 791 536 878 536 q 730 501 755 536 q 704 416 704 466 l 878 416 m 453 311 l 359 304 q 302 282 322 301 q 282 235 282 262 q 302 189 282 208 q 354 171 323 171 q 426 204 398 171 q 453 288 453 237 l 453 311 m 631 804 l 427 804 l 629 1022 l 872 1022 l 631 804 z "},"Ǿ":{"ha":1063,"x_min":41,"x_max":1021,"o":"m 1021 489 q 958 227 1021 342 q 781 47 895 111 q 528 -17 668 -17 q 250 62 373 -17 l 151 -49 l 43 41 l 144 158 q 41 473 41 289 q 104 741 41 622 q 281 924 168 859 q 541 989 395 989 q 812 913 696 989 l 899 1010 l 1008 920 l 918 817 q 1021 489 1021 684 m 742 479 q 734 611 742 538 l 408 240 q 534 199 464 199 q 640 234 591 199 q 715 331 688 269 q 742 479 742 394 m 657 734 q 539 774 604 774 q 379 693 437 774 q 321 476 321 612 q 328 364 321 410 l 657 734 m 563 1063 l 359 1063 l 562 1280 l 804 1280 l 563 1063 z "},"ǿ":{"ha":880,"x_min":22,"x_max":842,"o":"m 757 585 q 842 355 842 484 q 738 83 842 182 q 439 -16 633 -16 q 210 37 304 -16 l 119 -54 l 22 31 l 113 122 q 39 353 39 220 q 88 545 39 463 q 229 669 138 626 q 440 713 321 713 q 656 665 564 713 l 741 750 l 838 665 l 757 585 m 509 517 q 441 530 476 530 q 338 485 370 530 q 306 354 306 440 l 306 334 l 307 317 l 509 517 m 576 358 l 576 380 l 575 403 l 359 186 q 441 167 393 167 q 542 215 507 167 q 576 358 576 264 m 476 804 l 272 804 l 475 1022 l 718 1022 l 476 804 z "},"·":{"ha":444,"x_min":61,"x_max":383,"o":"m 383 484 q 340 384 383 422 q 220 346 296 346 q 106 385 151 346 q 61 484 61 425 q 105 580 61 544 q 222 616 150 616 q 338 580 294 616 q 383 484 383 544 z "},"Ẁ":{"ha":1463,"x_min":14,"x_max":1449,"o":"m 1203 0 l 892 0 l 757 554 q 743 672 751 578 l 741 672 q 721 554 730 589 l 575 0 l 245 0 l 14 972 l 335 972 l 416 400 q 422 337 418 389 l 427 281 l 431 281 q 439 341 432 298 q 452 404 446 383 l 602 972 l 921 972 l 1046 396 l 1055 338 l 1061 282 l 1064 282 l 1066 306 l 1075 400 l 1160 972 l 1449 972 l 1203 0 m 749 1090 l 507 1308 l 750 1308 l 953 1090 l 749 1090 z "},"ẁ":{"ha":1174,"x_min":9,"x_max":1164,"o":"m 970 0 l 669 0 l 600 338 q 587 446 587 399 l 583 446 q 568 342 576 374 l 493 0 l 193 0 l 9 694 l 300 694 l 359 290 l 370 200 l 374 200 q 386 293 382 279 l 475 694 l 750 694 l 827 293 l 833 245 l 836 201 l 840 201 l 842 221 l 904 694 l 1164 694 l 970 0 m 579 804 l 338 1022 l 581 1022 l 783 804 l 579 804 z "},"Ẃ":{"ha":1463,"x_min":14,"x_max":1449,"o":"m 1203 0 l 892 0 l 757 554 q 743 672 751 578 l 741 672 q 721 554 730 589 l 575 0 l 245 0 l 14 972 l 335 972 l 416 400 q 422 337 418 389 l 427 281 l 431 281 q 439 341 432 298 q 452 404 446 383 l 602 972 l 921 972 l 1046 396 l 1055 338 l 1061 282 l 1064 282 l 1066 306 l 1075 400 l 1160 972 l 1449 972 l 1203 0 m 766 1090 l 562 1090 l 764 1308 l 1007 1308 l 766 1090 z "},"ẃ":{"ha":1174,"x_min":9,"x_max":1164,"o":"m 970 0 l 669 0 l 600 338 q 587 446 587 399 l 583 446 q 568 342 576 374 l 493 0 l 193 0 l 9 694 l 300 694 l 359 290 l 370 200 l 374 200 q 386 293 382 279 l 475 694 l 750 694 l 827 293 l 833 245 l 836 201 l 840 201 l 842 221 l 904 694 l 1164 694 l 970 0 m 585 804 l 381 804 l 584 1022 l 827 1022 l 585 804 z "},"Ẅ":{"ha":1463,"x_min":14,"x_max":1449,"o":"m 1203 0 l 892 0 l 757 554 q 743 672 751 578 l 741 672 q 721 554 730 589 l 575 0 l 245 0 l 14 972 l 335 972 l 416 400 q 422 337 418 389 l 427 281 l 431 281 q 439 341 432 298 q 452 404 446 383 l 602 972 l 921 972 l 1046 396 l 1055 338 l 1061 282 l 1064 282 l 1066 306 l 1075 400 l 1160 972 l 1449 972 l 1203 0 m 1043 1194 q 1008 1114 1043 1145 q 913 1083 972 1083 q 819 1115 856 1083 q 782 1194 782 1146 q 818 1272 782 1242 q 913 1302 854 1302 q 1007 1272 972 1302 q 1043 1194 1043 1242 m 703 1194 q 668 1115 703 1146 q 572 1083 633 1083 q 478 1115 515 1083 q 442 1194 442 1147 q 478 1272 442 1242 q 572 1302 514 1302 q 667 1273 631 1302 q 703 1194 703 1243 z "},"ẅ":{"ha":1174,"x_min":9,"x_max":1164,"o":"m 970 0 l 669 0 l 600 338 q 587 446 587 399 l 583 446 q 568 342 576 374 l 493 0 l 193 0 l 9 694 l 300 694 l 359 290 l 370 200 l 374 200 q 386 293 382 279 l 475 694 l 750 694 l 827 293 l 833 245 l 836 201 l 840 201 l 842 221 l 904 694 l 1164 694 l 970 0 m 901 908 q 865 828 901 859 q 770 797 830 797 q 676 828 713 797 q 640 908 640 860 q 675 986 640 956 q 770 1016 711 1016 q 865 986 829 1016 q 901 908 901 956 m 561 908 q 526 828 561 860 q 430 797 491 797 q 336 829 372 797 q 300 908 300 861 q 336 986 300 956 q 430 1016 372 1016 q 525 986 489 1016 q 561 908 561 957 z "},"Ỳ":{"ha":903,"x_min":0,"x_max":903,"o":"m 593 338 l 593 0 l 300 0 l 300 334 l 0 972 l 336 972 l 441 667 q 457 612 452 635 q 467 566 461 589 l 469 566 q 489 661 478 627 l 593 972 l 903 972 l 593 338 m 448 1090 l 207 1308 l 450 1308 l 652 1090 l 448 1090 z "},"ỳ":{"ha":798,"x_min":-14,"x_max":811,"o":"m 204 -326 q 117 -319 163 -326 q 33 -298 70 -312 l 33 -81 q 84 -104 50 -94 q 147 -115 117 -115 q 254 -52 228 -115 l 277 3 l -14 694 l 306 694 l 390 359 q 416 233 414 266 l 419 233 q 425 267 421 248 q 530 694 429 285 l 811 694 l 555 -20 q 413 -255 498 -184 q 204 -326 328 -326 m 391 804 l 149 1022 l 392 1022 l 595 804 l 391 804 z "},"‛":{"ha":471,"x_min":79,"x_max":411,"o":"m 79 996 l 328 996 l 411 694 l 243 694 l 79 996 z "},"‾":{"ha":576,"x_min":0,"x_max":576,"o":"m 576 947 l 0 947 l 0 1028 l 576 1028 l 576 947 z "},"₤":{"ha":832,"x_min":113,"x_max":807,"o":"m 484 320 q 411 211 464 256 l 807 211 l 807 0 l 113 0 l 113 197 q 198 242 170 212 q 234 320 226 273 l 126 320 l 126 437 l 237 437 l 237 534 l 126 534 l 126 649 l 237 649 l 237 685 q 326 908 237 827 q 572 989 414 989 q 736 951 652 989 l 736 732 q 673 764 715 749 q 602 778 631 778 q 520 745 546 778 q 494 660 494 713 l 494 649 l 661 649 l 661 534 l 494 534 l 494 437 l 661 437 l 661 320 l 484 320 z "},"℮":{"ha":833,"x_min":58,"x_max":776,"o":"m 776 359 l 214 359 l 215 109 q 416 26 296 26 q 684 193 589 26 l 732 164 q 588 19 662 62 q 416 -24 515 -24 q 157 85 256 -24 q 58 359 58 195 q 156 636 58 530 q 414 743 254 743 q 671 639 575 743 q 776 359 768 534 m 618 410 l 618 611 q 413 694 530 694 q 214 611 295 694 l 214 410 l 618 410 z "},"⅛":{"ha":1364,"x_min":52,"x_max":1354,"o":"m 193 396 l 193 810 q 122 773 157 787 q 52 753 87 760 l 52 895 q 102 907 75 898 q 158 929 130 916 q 210 958 185 943 q 252 986 235 972 l 370 986 l 370 396 l 193 396 m 439 0 l 225 0 l 850 972 l 1064 972 l 439 0 m 848 153 q 873 236 848 197 q 949 300 899 275 q 870 425 870 347 q 884 492 870 462 q 926 544 898 522 q 999 578 955 566 q 1101 591 1042 591 q 1201 578 1157 591 q 1275 545 1244 566 q 1320 493 1305 523 q 1336 427 1336 463 q 1252 302 1336 348 q 1328 238 1301 277 q 1354 154 1354 199 q 1335 83 1354 114 q 1283 31 1316 52 q 1203 -2 1249 9 q 1101 -14 1156 -14 q 1000 -2 1046 -14 q 920 30 954 9 q 867 82 886 51 q 848 153 848 113 m 1027 174 q 1033 146 1027 158 q 1049 128 1039 135 q 1073 117 1059 121 q 1101 114 1086 114 q 1128 117 1115 114 q 1152 128 1142 121 q 1168 147 1162 136 q 1175 174 1175 158 q 1169 199 1175 187 q 1153 219 1163 211 q 1129 233 1143 228 q 1101 238 1116 238 q 1073 233 1086 238 q 1050 220 1060 229 q 1034 200 1040 212 q 1027 174 1027 188 m 1046 414 q 1051 391 1046 401 q 1064 374 1056 381 q 1082 362 1072 366 q 1103 358 1093 358 q 1123 362 1113 358 q 1141 374 1133 366 q 1155 391 1149 381 q 1160 414 1160 401 q 1155 435 1160 426 q 1142 450 1150 444 q 1124 459 1134 456 q 1103 462 1114 462 q 1063 449 1081 462 q 1046 414 1046 437 z "},"⅜":{"ha":1364,"x_min":49,"x_max":1354,"o":"m 468 567 q 396 432 468 482 q 208 382 323 382 q 116 393 154 382 q 49 416 78 404 l 49 550 q 196 514 121 514 q 288 568 288 514 q 264 608 288 593 q 196 623 241 623 l 102 623 l 102 754 l 191 754 q 250 768 229 754 q 271 806 271 781 q 252 841 271 827 q 201 854 234 854 q 64 817 125 854 l 64 947 q 237 986 148 986 q 394 946 337 986 q 450 835 450 906 q 425 751 450 785 q 354 705 399 718 l 354 703 q 437 655 406 692 q 468 567 468 618 m 453 0 l 239 0 l 864 972 l 1078 972 l 453 0 m 848 153 q 873 236 848 197 q 949 300 899 275 q 870 425 870 347 q 884 492 870 462 q 926 544 898 522 q 999 578 955 566 q 1101 591 1042 591 q 1201 578 1157 591 q 1275 545 1244 566 q 1320 493 1305 523 q 1336 427 1336 463 q 1252 302 1336 348 q 1328 238 1301 277 q 1354 154 1354 199 q 1335 83 1354 114 q 1283 31 1316 52 q 1203 -2 1249 9 q 1101 -14 1156 -14 q 1000 -2 1046 -14 q 920 30 954 9 q 867 82 886 51 q 848 153 848 113 m 1027 174 q 1033 146 1027 158 q 1049 128 1039 135 q 1073 117 1059 121 q 1101 114 1086 114 q 1128 117 1115 114 q 1152 128 1142 121 q 1168 147 1162 136 q 1175 174 1175 158 q 1169 199 1175 187 q 1153 219 1163 211 q 1129 233 1143 228 q 1101 238 1116 238 q 1073 233 1086 238 q 1050 220 1060 229 q 1034 200 1040 212 q 1027 174 1027 188 m 1046 414 q 1051 391 1046 401 q 1064 374 1056 381 q 1082 362 1072 366 q 1103 358 1093 358 q 1123 362 1113 358 q 1141 374 1133 366 q 1155 391 1149 381 q 1160 414 1160 401 q 1155 435 1160 426 q 1142 450 1150 444 q 1124 459 1134 456 q 1103 462 1114 462 q 1063 449 1081 462 q 1046 414 1046 437 z "},"⅝":{"ha":1364,"x_min":71,"x_max":1354,"o":"m 71 416 l 71 547 q 140 522 106 530 q 208 514 174 514 q 309 572 309 514 q 194 629 309 629 q 141 627 174 629 q 77 621 109 625 l 131 974 l 463 974 l 463 828 l 255 828 l 243 759 q 267 761 253 760 q 290 761 280 761 q 438 715 387 761 q 490 582 490 669 q 426 432 490 483 q 242 382 362 382 q 71 416 133 382 m 460 0 l 245 0 l 871 972 l 1084 972 l 460 0 m 848 153 q 873 236 848 197 q 949 300 899 275 q 870 425 870 347 q 884 492 870 462 q 926 544 898 522 q 999 578 955 566 q 1101 591 1042 591 q 1201 578 1157 591 q 1275 545 1244 566 q 1320 493 1305 523 q 1336 427 1336 463 q 1252 302 1336 348 q 1328 238 1301 277 q 1354 154 1354 199 q 1335 83 1354 114 q 1283 31 1316 52 q 1203 -2 1249 9 q 1101 -14 1156 -14 q 1000 -2 1046 -14 q 920 30 954 9 q 867 82 886 51 q 848 153 848 113 m 1027 174 q 1033 146 1027 158 q 1049 128 1039 135 q 1073 117 1059 121 q 1101 114 1086 114 q 1128 117 1115 114 q 1152 128 1142 121 q 1168 147 1162 136 q 1175 174 1175 158 q 1169 199 1175 187 q 1153 219 1163 211 q 1129 233 1143 228 q 1101 238 1116 238 q 1073 233 1086 238 q 1050 220 1060 229 q 1034 200 1040 212 q 1027 174 1027 188 m 1046 414 q 1051 391 1046 401 q 1064 374 1056 381 q 1082 362 1072 366 q 1103 358 1093 358 q 1123 362 1113 358 q 1141 374 1133 366 q 1155 391 1149 381 q 1160 414 1160 401 q 1155 435 1160 426 q 1142 450 1150 444 q 1124 459 1134 456 q 1103 462 1114 462 q 1063 449 1081 462 q 1046 414 1046 437 z "},"⅞":{"ha":1280,"x_min":68,"x_max":1286,"o":"m 496 876 q 372 647 421 766 q 300 396 322 528 l 115 396 q 144 497 127 445 q 185 605 161 549 q 242 719 210 661 q 318 840 275 778 l 68 840 l 68 972 l 496 972 l 496 876 m 385 0 l 171 0 l 796 972 l 1010 972 l 385 0 m 780 153 q 805 236 780 197 q 882 300 831 275 q 802 425 802 347 q 816 492 802 462 q 859 544 830 522 q 931 578 887 566 q 1034 591 975 591 q 1133 578 1089 591 q 1207 545 1177 566 q 1253 493 1237 523 q 1268 427 1268 463 q 1184 302 1268 348 q 1260 238 1234 277 q 1286 154 1286 199 q 1267 83 1286 114 q 1215 31 1249 52 q 1135 -2 1181 9 q 1033 -14 1088 -14 q 932 -2 979 -14 q 852 30 886 9 q 799 82 819 51 q 780 153 780 113 m 960 174 q 965 146 960 158 q 981 128 971 135 q 1005 117 991 121 q 1033 114 1018 114 q 1061 117 1047 114 q 1084 128 1074 121 q 1101 147 1095 136 q 1107 174 1107 158 q 1101 199 1107 187 q 1085 219 1095 211 q 1061 233 1075 228 q 1033 238 1048 238 q 1005 233 1019 238 q 982 220 992 229 q 966 200 972 212 q 960 174 960 188 m 978 414 q 983 391 978 401 q 996 374 988 381 q 1015 362 1004 366 q 1035 358 1025 358 q 1055 362 1045 358 q 1074 374 1065 366 q 1087 391 1082 381 q 1092 414 1092 401 q 1087 435 1092 426 q 1074 450 1082 444 q 1056 459 1066 456 q 1035 462 1046 462 q 996 449 1013 462 q 978 414 978 437 z "},";":{"ha":444,"x_min":29,"x_max":390,"o":"m 390 561 q 346 461 390 499 q 227 424 302 424 q 113 463 157 424 q 68 561 68 503 q 112 657 68 621 q 229 694 155 694 q 346 657 301 694 q 390 561 390 621 m 262 -161 l 29 -161 l 98 184 l 359 184 l 262 -161 z "},"΄":{"ha":494,"x_min":139,"x_max":439,"o":"m 288 782 l 139 782 l 196 1000 l 439 1000 l 288 782 z "},"΅":{"ha":733,"x_min":11,"x_max":722,"o":"m 722 885 q 689 812 722 839 q 604 785 656 785 q 520 813 553 785 q 488 885 488 841 q 520 955 488 928 q 604 982 552 982 q 689 955 656 982 q 722 885 722 928 m 404 833 l 277 833 l 319 1093 l 549 1093 l 404 833 m 245 885 q 213 812 245 839 q 129 785 181 785 q 44 813 78 785 q 11 885 11 841 q 44 956 11 929 q 129 982 77 982 q 213 956 181 982 q 245 885 245 929 z "},"Ά":{"ha":1067,"x_min":-22,"x_max":1048,"o":"m 730 0 l 688 179 l 397 179 l 351 0 l 35 0 l 370 972 l 733 972 l 1048 0 l 730 0 m 546 761 l 539 761 q 530 707 538 745 q 448 387 522 670 l 633 387 l 566 652 q 546 761 551 710 m 127 754 l -22 754 l 35 972 l 278 972 l 127 754 z "},"Έ":{"ha":1003,"x_min":-23,"x_max":960,"o":"m 332 0 l 332 972 l 938 972 l 938 743 l 625 743 l 625 602 l 919 602 l 919 372 l 625 372 l 625 229 l 960 229 l 960 0 l 332 0 m 125 754 l -23 754 l 34 972 l 277 972 l 125 754 z "},"Ή":{"ha":1352,"x_min":-22,"x_max":1255,"o":"m 962 0 l 962 363 l 625 363 l 625 0 l 332 0 l 332 972 l 625 972 l 625 612 l 962 612 l 962 972 l 1255 972 l 1255 0 l 962 0 m 126 754 l -22 754 l 35 972 l 277 972 l 126 754 z "},"Ί":{"ha":816,"x_min":72,"x_max":720,"o":"m 427 0 l 427 972 l 720 972 l 720 0 l 427 0 m 220 754 l 72 754 l 129 972 l 372 972 l 220 754 z "},"Ό":{"ha":1212,"x_min":-22,"x_max":1171,"o":"m 1171 489 q 1107 227 1171 342 q 931 47 1044 111 q 677 -17 818 -17 q 428 45 541 -17 q 254 219 316 107 q 191 473 191 332 q 254 741 191 622 q 431 924 317 859 q 690 989 545 989 q 940 927 830 989 q 1111 750 1050 865 q 1171 489 1171 635 m 860 481 q 814 670 860 601 q 688 739 768 739 q 551 673 600 739 q 503 485 503 606 q 551 300 503 366 q 683 233 600 233 q 774 263 734 233 q 838 349 815 293 q 860 481 860 404 m 126 754 l -22 754 l 35 972 l 277 972 l 126 754 z "},"Ύ":{"ha":1208,"x_min":-22,"x_max":1208,"o":"m 899 338 l 899 0 l 606 0 l 606 334 l 306 972 l 642 972 l 747 667 q 763 612 758 635 q 772 566 767 589 l 775 566 q 795 661 784 627 l 899 972 l 1208 972 l 899 338 m 126 754 l -22 754 l 35 972 l 277 972 l 126 754 z "},"Ώ":{"ha":1235,"x_min":-22,"x_max":1188,"o":"m 741 0 l 741 229 q 847 376 817 306 q 877 534 877 447 q 828 682 877 624 q 705 739 779 739 q 610 713 652 739 q 544 638 568 688 q 519 521 519 589 q 534 420 519 467 q 574 330 549 373 q 652 229 599 288 l 652 0 l 206 0 l 206 229 l 434 229 q 265 381 321 290 q 209 587 209 472 q 272 795 209 703 q 449 938 336 887 q 698 989 562 989 q 950 939 840 989 q 1124 795 1059 889 q 1188 593 1188 702 q 1128 379 1188 468 q 950 229 1067 290 l 1187 229 l 1187 0 l 741 0 m 126 754 l -22 754 l 35 972 l 277 972 l 126 754 z "},"ΐ":{"ha":524,"x_min":-119,"x_max":592,"o":"m 507 9 q 353 -17 454 -17 q 164 50 232 -17 q 96 239 96 116 l 96 694 l 385 694 l 385 294 q 444 203 385 203 q 507 220 472 203 l 507 9 m 592 885 q 559 812 592 839 q 474 785 526 785 q 390 813 422 785 q 357 885 357 841 q 390 955 357 928 q 474 982 422 982 q 559 955 526 982 q 592 885 592 928 m 274 833 l 146 833 l 189 1093 l 418 1093 l 274 833 m 115 885 q 83 812 115 839 q -1 785 51 785 q -86 813 -52 785 q -119 885 -119 841 q -86 956 -119 929 q -1 982 -54 982 q 83 956 51 982 q 115 885 115 929 z "},"Α":{"ha":1042,"x_min":9,"x_max":1023,"o":"m 705 0 l 663 179 l 372 179 l 326 0 l 9 0 l 345 972 l 708 972 l 1023 0 l 705 0 m 521 761 l 514 761 q 505 707 513 745 q 422 387 496 670 l 608 387 l 541 652 q 521 761 526 710 z "},"Β":{"ha":960,"x_min":96,"x_max":926,"o":"m 926 298 q 826 78 926 155 q 539 0 726 0 l 96 0 l 96 972 l 509 972 q 896 737 896 972 q 871 644 896 686 q 797 570 847 602 q 688 526 747 538 l 688 524 q 812 483 757 515 q 897 400 867 450 q 926 298 926 351 m 585 686 q 443 777 585 777 l 389 777 l 389 593 l 473 593 q 553 619 522 593 q 585 686 585 645 m 615 300 q 585 369 615 342 q 504 396 554 396 l 389 396 l 389 197 l 486 197 q 581 225 546 197 q 615 300 615 252 z "},"Ε":{"ha":766,"x_min":96,"x_max":724,"o":"m 96 0 l 96 972 l 701 972 l 701 743 l 389 743 l 389 602 l 682 602 l 682 372 l 389 372 l 389 229 l 724 229 l 724 0 l 96 0 z "},"Ζ":{"ha":890,"x_min":41,"x_max":857,"o":"m 418 229 l 857 229 l 857 0 l 41 0 l 41 205 l 490 743 l 69 743 l 69 972 l 843 972 l 843 768 l 418 229 z "},"Η":{"ha":1116,"x_min":96,"x_max":1018,"o":"m 725 0 l 725 363 l 389 363 l 389 0 l 96 0 l 96 972 l 389 972 l 389 612 l 725 612 l 725 972 l 1018 972 l 1018 0 l 725 0 z "},"Ι":{"ha":484,"x_min":96,"x_max":389,"o":"m 96 0 l 96 972 l 389 972 l 389 0 l 96 0 z "},"Κ":{"ha":958,"x_min":96,"x_max":989,"o":"m 633 0 l 418 411 q 392 478 396 460 l 389 478 l 389 0 l 96 0 l 96 972 l 389 972 l 389 510 l 392 510 q 421 578 405 547 l 615 972 l 962 972 l 686 509 l 989 0 l 633 0 z "},"Λ":{"ha":1042,"x_min":9,"x_max":1023,"o":"m 705 0 l 539 652 q 526 713 530 689 l 521 750 l 514 750 q 503 695 510 727 q 326 0 496 663 l 9 0 l 345 972 l 708 972 l 1023 0 l 705 0 z "},"Μ":{"ha":1371,"x_min":96,"x_max":1275,"o":"m 986 0 l 986 533 q 991 699 986 608 l 993 743 l 985 743 q 951 585 963 629 l 808 0 l 533 0 l 383 578 q 351 743 377 600 l 343 743 q 353 458 353 515 l 353 0 l 96 0 l 96 972 l 534 972 l 668 444 q 681 378 673 428 q 690 301 688 328 l 694 301 q 718 447 702 363 l 843 972 l 1275 972 l 1275 0 l 986 0 z "},"Ν":{"ha":1128,"x_min":96,"x_max":1032,"o":"m 775 0 l 432 469 q 366 570 391 525 l 363 570 q 367 408 367 498 l 367 0 l 96 0 l 96 972 l 372 972 l 701 526 q 716 505 707 517 q 734 480 725 493 q 750 455 743 467 q 762 433 758 443 l 765 433 q 761 536 761 463 l 761 972 l 1032 972 l 1032 0 l 775 0 z "},"Ξ":{"ha":822,"x_min":45,"x_max":778,"o":"m 58 743 l 58 972 l 764 972 l 764 743 l 58 743 m 163 372 l 163 602 l 660 602 l 660 372 l 163 372 m 45 0 l 45 229 l 778 229 l 778 0 l 45 0 z "},"Ο":{"ha":1063,"x_min":41,"x_max":1021,"o":"m 1021 489 q 958 227 1021 342 q 781 47 895 111 q 528 -17 668 -17 q 278 45 391 -17 q 104 219 166 107 q 41 473 41 332 q 104 741 41 622 q 281 924 168 859 q 541 989 395 989 q 790 927 680 989 q 961 750 901 865 q 1021 489 1021 635 m 710 481 q 664 670 710 601 q 538 739 618 739 q 401 673 450 739 q 353 485 353 606 q 401 300 353 366 q 533 233 450 233 q 625 263 584 233 q 688 349 665 293 q 710 481 710 404 z "},"Π":{"ha":1116,"x_min":96,"x_max":1018,"o":"m 725 0 l 725 722 l 389 722 l 389 0 l 96 0 l 96 972 l 1018 972 l 1018 0 l 725 0 z "},"Ρ":{"ha":911,"x_min":96,"x_max":890,"o":"m 890 652 q 840 475 890 552 q 696 355 789 397 q 478 313 602 313 l 389 313 l 389 0 l 96 0 l 96 972 l 494 972 q 795 895 700 972 q 890 652 890 817 m 581 642 q 546 732 581 701 q 444 762 511 762 l 389 762 l 389 522 l 454 522 q 581 642 581 522 z "},"Σ":{"ha":854,"x_min":20,"x_max":831,"o":"m 20 0 l 20 163 l 350 486 l 35 802 l 35 972 l 793 972 l 793 743 l 447 743 l 685 500 l 425 229 l 831 229 l 831 0 l 20 0 z "},"Τ":{"ha":884,"x_min":21,"x_max":863,"o":"m 587 743 l 587 0 l 293 0 l 293 743 l 21 743 l 21 972 l 863 972 l 863 743 l 587 743 z "},"Υ":{"ha":903,"x_min":0,"x_max":903,"o":"m 593 338 l 593 0 l 300 0 l 300 334 l 0 972 l 336 972 l 441 667 q 457 612 452 635 q 467 566 461 589 l 469 566 q 489 661 478 627 l 593 972 l 903 972 l 593 338 z "},"Χ":{"ha":975,"x_min":0,"x_max":975,"o":"m 631 0 l 510 267 q 495 316 498 292 q 489 355 491 340 l 486 355 q 477 313 482 339 q 461 261 471 286 l 349 0 l 0 0 l 292 485 l 26 972 l 380 972 l 475 715 q 498 621 488 680 l 501 621 q 526 717 512 687 l 636 972 l 962 972 l 689 490 l 975 0 l 631 0 z "},"Ψ":{"ha":1208,"x_min":90,"x_max":1118,"o":"m 729 464 l 736 464 q 834 506 801 465 q 868 633 868 547 l 868 972 l 1118 972 l 1118 604 q 1070 409 1118 492 q 936 277 1023 325 q 734 224 848 230 l 729 224 l 729 0 l 479 0 l 479 224 l 473 224 q 270 279 359 229 q 135 413 180 330 q 90 603 90 496 l 90 972 l 340 972 l 340 633 q 472 464 340 467 l 479 464 l 479 972 l 729 972 l 729 464 z "},"Ω":{"ha":1076,"x_min":47,"x_max":1029,"o":"m 582 0 l 582 229 q 688 376 659 306 q 718 534 718 447 q 669 682 718 624 q 546 739 621 739 q 452 713 494 739 q 385 638 410 688 q 361 521 361 589 q 375 420 361 467 q 415 330 390 373 q 493 229 440 288 l 493 0 l 47 0 l 47 229 l 275 229 q 106 381 163 290 q 50 587 50 472 q 114 795 50 703 q 290 938 177 887 q 539 989 404 989 q 791 939 682 989 q 965 795 901 889 q 1029 593 1029 702 q 969 379 1029 468 q 791 229 909 290 l 1028 229 l 1028 0 l 582 0 z "},"Ϊ":{"ha":524,"x_min":-37,"x_max":564,"o":"m 96 0 l 96 972 l 389 972 l 389 0 l 96 0 m 564 1166 q 529 1086 564 1117 q 434 1055 494 1055 q 340 1087 377 1055 q 303 1166 303 1118 q 339 1244 303 1215 q 434 1274 375 1274 q 529 1244 493 1274 q 564 1166 564 1214 m 224 1166 q 190 1087 224 1118 q 94 1055 155 1055 q 0 1087 36 1055 q -37 1166 -37 1120 q -1 1244 -37 1215 q 94 1274 35 1274 q 189 1245 153 1274 q 224 1166 224 1215 z "},"Ϋ":{"ha":903,"x_min":0,"x_max":903,"o":"m 593 338 l 593 0 l 300 0 l 300 334 l 0 972 l 336 972 l 441 667 q 457 612 452 635 q 467 566 461 589 l 469 566 q 489 661 478 627 l 593 972 l 903 972 l 593 338 m 762 1174 q 727 1094 762 1124 q 632 1063 692 1063 q 538 1094 575 1063 q 501 1174 501 1126 q 537 1252 501 1222 q 632 1282 573 1282 q 727 1252 691 1282 q 762 1174 762 1221 m 422 1174 q 388 1094 422 1126 q 292 1063 353 1063 q 198 1095 234 1063 q 161 1174 161 1127 q 197 1252 161 1222 q 292 1282 233 1282 q 387 1252 351 1282 q 422 1174 422 1223 z "},"ά":{"ha":918,"x_min":39,"x_max":897,"o":"m 509 355 q 473 469 494 438 q 415 500 452 500 q 350 457 376 500 q 323 343 323 414 q 343 234 323 273 q 399 195 363 195 q 456 228 430 195 q 498 318 481 261 l 509 355 m 573 119 q 325 -17 486 -17 q 115 77 192 -17 q 39 326 39 170 q 80 525 39 436 q 196 662 121 613 q 364 711 271 711 q 576 614 522 711 l 579 614 l 603 694 l 890 694 l 735 345 q 772 241 747 277 q 832 205 798 205 q 897 220 867 205 l 897 14 q 759 -12 848 -12 q 642 19 686 -12 q 577 119 597 51 l 573 119 m 500 782 l 351 782 l 408 1000 l 651 1000 l 500 782 z "},"έ":{"ha":673,"x_min":36,"x_max":632,"o":"m 632 16 q 359 -17 520 -17 q 118 33 199 -17 q 36 180 36 83 q 74 294 36 250 q 182 358 112 339 l 182 361 q 93 419 125 377 q 61 519 61 461 q 142 662 61 613 q 378 711 223 711 q 603 685 494 711 l 603 505 l 561 518 q 440 536 499 536 q 378 523 401 536 q 354 485 354 510 q 463 427 354 427 q 525 431 490 427 l 542 433 l 542 269 q 439 275 485 275 q 359 262 389 275 q 329 220 329 248 q 441 158 329 158 q 541 170 494 158 q 632 197 588 182 l 632 16 m 438 782 l 290 782 l 347 1000 l 589 1000 l 438 782 z "},"ή":{"ha":878,"x_min":41,"x_max":808,"o":"m 519 -268 l 519 351 q 500 444 519 416 q 437 472 481 472 q 379 443 400 472 q 358 368 358 414 l 358 0 l 69 0 l 69 453 q 62 600 69 532 q 41 694 54 667 l 335 694 q 351 646 345 677 q 357 583 357 615 l 359 583 q 453 677 395 644 q 581 711 511 711 q 808 424 808 711 l 808 -268 l 519 -268 m 507 782 l 359 782 l 416 1000 l 659 1000 l 507 782 z "},"ί":{"ha":524,"x_min":96,"x_max":507,"o":"m 507 9 q 353 -17 454 -17 q 164 50 232 -17 q 96 239 96 116 l 96 694 l 385 694 l 385 294 q 444 203 385 203 q 507 220 472 203 l 507 9 m 268 782 l 119 782 l 176 1000 l 419 1000 l 268 782 z "},"ΰ":{"ha":922,"x_min":1,"x_max":863,"o":"m 96 400 q 85 460 96 441 q 45 480 75 480 q 1 471 23 480 l 1 673 q 154 700 50 700 q 330 648 275 700 q 385 475 385 596 l 385 320 q 411 235 385 267 q 482 203 437 203 q 550 235 526 203 q 574 329 574 267 q 555 511 574 423 q 496 694 536 599 l 793 694 q 863 347 863 518 q 761 78 863 173 q 471 -17 659 -17 q 265 22 349 -17 q 138 134 181 61 q 96 310 96 206 l 96 400 m 808 885 q 775 812 808 839 q 690 785 743 785 q 606 813 639 785 q 574 885 574 841 q 606 955 574 928 q 690 982 638 982 q 775 955 743 982 q 808 885 808 928 m 490 833 l 363 833 l 406 1093 l 635 1093 l 490 833 m 332 885 q 299 812 332 839 q 215 785 267 785 q 131 813 164 785 q 97 885 97 841 q 130 956 97 929 q 215 982 163 982 q 299 956 267 982 q 332 885 332 929 z "},"β":{"ha":940,"x_min":69,"x_max":895,"o":"m 895 277 q 797 64 895 145 q 538 -17 700 -17 q 358 9 452 -17 l 358 -267 l 69 -267 l 69 671 q 174 943 69 842 q 456 1044 278 1044 q 665 1008 577 1044 q 800 906 753 972 q 846 754 846 840 q 804 625 846 680 q 682 541 763 569 l 682 538 q 837 438 780 509 q 895 277 895 367 m 602 296 q 550 385 602 351 q 412 419 498 419 l 412 611 q 553 729 553 611 q 527 805 553 776 q 460 833 501 833 q 384 796 410 833 q 358 694 358 758 l 358 232 q 484 195 421 195 q 570 222 539 195 q 602 296 602 250 z "},"γ":{"ha":846,"x_min":-32,"x_max":804,"o":"m 804 615 q 534 -50 804 260 l 534 -125 q 532 -326 534 -281 l 244 -326 q 253 -169 250 -273 q 257 14 257 -65 q 158 307 238 120 q -32 694 77 494 l 302 694 q 403 450 355 578 q 465 252 450 322 l 468 252 q 533 596 533 391 q 525 694 533 637 l 799 694 q 804 615 804 642 z "},"ζ":{"ha":675,"x_min":39,"x_max":676,"o":"m 676 -46 q 608 -210 676 -133 l 304 -210 q 362 -153 342 -184 q 383 -93 383 -122 q 371 -58 383 -73 q 335 -27 359 -42 q 218 31 311 -12 q 39 310 39 115 q 112 534 39 414 q 363 825 186 655 l 363 828 l 119 828 l 119 1028 l 639 1028 l 639 828 q 451 623 511 701 q 361 479 391 546 q 332 358 332 412 q 363 259 332 299 q 478 182 394 218 q 632 79 588 133 q 676 -46 676 25 z "},"η":{"ha":878,"x_min":41,"x_max":808,"o":"m 519 -268 l 519 351 q 500 444 519 416 q 437 472 481 472 q 379 443 400 472 q 358 368 358 414 l 358 0 l 69 0 l 69 453 q 62 600 69 532 q 41 694 54 667 l 335 694 q 351 646 345 677 q 357 583 357 615 l 359 583 q 453 677 395 644 q 581 711 511 711 q 808 424 808 711 l 808 -268 l 519 -268 z "},"θ":{"ha":880,"x_min":39,"x_max":842,"o":"m 842 533 q 735 130 842 277 q 439 -17 629 -17 q 144 125 250 -17 q 39 521 39 268 q 88 801 39 682 q 229 983 137 920 q 440 1046 320 1046 q 649 984 559 1046 q 790 801 739 922 q 842 533 842 680 m 546 615 q 513 775 540 719 q 440 831 487 831 q 335 615 350 831 l 546 615 m 335 415 q 369 251 343 307 q 441 196 395 196 q 545 415 528 196 l 335 415 z "},"ι":{"ha":524,"x_min":96,"x_max":507,"o":"m 507 9 q 353 -17 454 -17 q 164 50 232 -17 q 96 239 96 116 l 96 694 l 385 694 l 385 294 q 444 203 385 203 q 507 220 472 203 l 507 9 z "},"κ":{"ha":860,"x_min":69,"x_max":865,"o":"m 551 0 l 415 250 l 358 201 l 358 0 l 69 0 l 69 694 l 358 694 l 358 441 q 531 622 501 593 q 587 669 561 651 q 641 696 612 686 q 703 705 669 705 q 762 701 730 705 q 804 693 794 697 l 804 468 q 744 478 778 478 q 656 446 693 478 l 621 416 l 865 0 l 551 0 z "},"λ":{"ha":825,"x_min":18,"x_max":811,"o":"m 513 0 l 412 433 l 322 0 l 18 0 l 307 692 l 298 713 q 254 772 284 751 q 183 794 224 794 q 83 760 130 794 l 83 993 q 250 1021 157 1021 q 449 954 368 1021 q 576 745 530 888 l 811 0 l 513 0 z "},"μ":{"ha":909,"x_min":69,"x_max":909,"o":"m 532 90 q 404 -16 498 -16 q 359 -7 375 -16 l 358 -7 l 358 -268 l 69 -268 l 69 694 l 358 694 l 358 330 q 368 255 358 283 q 392 215 377 228 q 435 203 407 203 q 519 358 519 203 l 519 694 l 808 694 l 808 296 q 868 205 808 205 q 909 212 886 205 l 909 12 q 735 -16 836 -16 q 607 10 656 -16 q 534 90 558 35 l 532 90 z "},"ν":{"ha":803,"x_min":-32,"x_max":753,"o":"m 753 503 q 738 381 753 440 q 696 267 722 322 q 629 153 670 212 q 500 0 588 95 l 249 0 l -32 694 l 268 694 l 415 215 q 473 330 452 262 q 493 472 493 397 q 476 606 493 534 q 440 694 458 677 l 718 694 q 743 621 732 675 q 753 503 753 567 z "},"ξ":{"ha":703,"x_min":39,"x_max":697,"o":"m 697 -28 q 629 -210 697 -127 l 325 -210 q 381 -162 357 -190 q 404 -103 404 -135 q 376 -46 404 -66 q 282 -5 347 -25 q 93 96 147 34 q 39 256 39 157 q 101 430 39 352 q 272 546 164 507 q 186 597 219 562 q 153 676 153 633 q 292 823 153 772 l 292 828 l 94 828 l 94 1028 l 631 1028 l 631 839 q 458 772 517 813 q 398 681 398 730 q 420 633 398 655 q 479 606 441 612 q 604 612 531 606 l 604 396 q 525 399 584 399 l 497 399 q 376 370 420 399 q 332 292 332 341 q 362 223 332 250 q 456 182 393 197 q 643 99 588 148 q 697 -28 697 50 z "},"ο":{"ha":880,"x_min":39,"x_max":842,"o":"m 842 359 q 735 83 842 184 q 439 -17 629 -17 q 144 81 250 -17 q 39 351 39 179 q 88 543 39 462 q 229 668 138 625 q 440 711 321 711 q 654 666 564 711 q 793 540 745 621 q 842 359 842 459 m 549 358 q 440 500 549 500 q 332 351 332 500 q 441 195 332 195 q 549 358 549 195 z "},"ρ":{"ha":892,"x_min":69,"x_max":852,"o":"m 852 350 q 813 161 852 245 q 701 30 773 76 q 539 -17 629 -17 q 445 -4 493 -17 q 361 33 397 8 l 358 33 l 358 -268 l 69 -268 l 69 336 q 172 614 69 517 q 467 711 275 711 q 751 617 650 711 q 852 350 852 524 m 559 349 q 531 459 559 418 q 454 500 503 500 q 384 468 409 500 q 358 380 358 436 l 358 229 q 398 205 378 216 q 449 195 418 195 q 532 237 504 195 q 559 349 559 279 z "},"ς":{"ha":711,"x_min":39,"x_max":677,"o":"m 677 -45 q 659 -133 677 -89 q 610 -210 641 -178 l 315 -210 q 373 -153 352 -184 q 395 -93 395 -123 q 282 8 395 -27 q 103 122 167 45 q 39 302 39 200 q 90 510 39 418 q 241 656 142 601 q 453 711 340 711 q 646 679 586 711 l 646 454 q 514 500 591 500 q 383 450 435 500 q 332 325 332 399 q 363 240 332 273 q 485 179 395 208 q 631 93 584 148 q 677 -45 677 39 z "},"υ":{"ha":922,"x_min":1,"x_max":863,"o":"m 96 400 q 85 460 96 441 q 45 480 75 480 q 1 471 23 480 l 1 673 q 154 700 50 700 q 330 648 275 700 q 385 475 385 596 l 385 320 q 411 235 385 267 q 482 203 437 203 q 550 235 526 203 q 574 329 574 267 q 555 511 574 423 q 496 694 536 599 l 793 694 q 863 347 863 518 q 761 78 863 173 q 471 -17 659 -17 q 265 22 349 -17 q 138 134 181 61 q 96 310 96 206 l 96 400 z "},"χ":{"ha":789,"x_min":-35,"x_max":791,"o":"m 791 -304 q 669 -325 758 -325 q 516 -271 578 -325 q 406 -98 454 -216 l 370 -9 l 264 -311 l -35 -311 l 256 216 l 191 371 q 132 477 154 454 q 82 500 111 500 q 18 478 52 500 l 18 693 q 136 711 52 711 q 278 671 221 711 q 370 546 335 631 l 408 447 l 484 694 l 785 694 l 529 221 l 606 45 q 636 -24 623 5 q 664 -72 650 -53 q 694 -101 677 -92 q 734 -111 711 -111 q 768 -106 756 -111 q 791 -93 779 -102 l 791 -304 z "},"ψ":{"ha":1149,"x_min":64,"x_max":1084,"o":"m 1084 379 q 1040 168 1084 258 q 916 31 996 78 q 732 -17 836 -17 l 704 -17 l 704 -326 l 443 -326 l 443 -17 l 416 -17 q 232 31 313 -17 q 107 169 151 79 q 64 379 64 258 l 64 694 l 323 694 l 323 379 q 349 240 323 288 q 431 193 375 193 l 443 193 l 443 903 l 704 903 l 704 193 l 718 193 q 823 379 823 193 l 823 694 l 1084 694 l 1084 379 z "},"ω":{"ha":1183,"x_min":46,"x_max":1137,"o":"m 1137 345 q 1050 80 1137 177 q 814 -17 964 -17 q 679 16 739 -17 q 590 104 619 48 l 587 104 q 502 16 560 50 q 367 -17 444 -17 q 196 28 269 -17 q 85 156 123 73 q 46 346 46 239 q 136 694 46 514 l 415 694 q 337 515 366 608 q 309 347 309 421 q 331 242 309 281 q 387 203 353 203 q 445 233 428 203 q 461 321 461 264 l 461 509 l 722 509 l 722 321 q 740 232 722 261 q 796 203 758 203 q 853 243 831 203 q 875 347 875 283 q 846 516 875 422 q 768 694 817 610 l 1047 694 q 1137 345 1137 514 z "},"ϊ":{"ha":524,"x_min":-62,"x_max":538,"o":"m 507 9 q 353 -17 454 -17 q 164 50 232 -17 q 96 239 96 116 l 96 694 l 385 694 l 385 294 q 444 203 385 203 q 507 220 472 203 l 507 9 m 538 885 q 503 805 538 836 q 408 774 468 774 q 314 805 351 774 q 277 885 277 837 q 313 963 277 933 q 408 993 349 993 q 503 963 467 993 q 538 885 538 932 m 199 885 q 164 805 199 837 q 68 774 129 774 q -26 806 10 774 q -62 885 -62 838 q -26 963 -62 933 q 68 993 9 993 q 163 963 127 993 q 199 885 199 934 z "},"ϋ":{"ha":922,"x_min":1,"x_max":863,"o":"m 96 400 q 85 460 96 441 q 45 480 75 480 q 1 471 23 480 l 1 673 q 154 700 50 700 q 330 648 275 700 q 385 475 385 596 l 385 320 q 411 235 385 267 q 482 203 437 203 q 550 235 526 203 q 574 329 574 267 q 555 511 574 423 q 496 694 536 599 l 793 694 q 863 347 863 518 q 761 78 863 173 q 471 -17 659 -17 q 265 22 349 -17 q 138 134 181 61 q 96 310 96 206 l 96 400 m 742 885 q 707 805 742 836 q 612 774 671 774 q 518 805 555 774 q 481 885 481 837 q 517 963 481 933 q 612 993 553 993 q 706 963 671 993 q 742 885 742 932 m 402 885 q 367 805 402 837 q 271 774 332 774 q 177 806 214 774 q 141 885 141 838 q 177 963 141 933 q 271 993 213 993 q 366 963 330 993 q 402 885 402 934 z "},"ό":{"ha":880,"x_min":39,"x_max":842,"o":"m 842 359 q 735 83 842 184 q 439 -17 629 -17 q 144 81 250 -17 q 39 351 39 179 q 88 543 39 462 q 229 668 138 625 q 440 711 321 711 q 654 666 564 711 q 793 540 745 621 q 842 359 842 459 m 549 358 q 440 500 549 500 q 332 351 332 500 q 441 195 332 195 q 549 358 549 195 m 488 782 l 339 782 l 396 1000 l 639 1000 l 488 782 z "},"ύ":{"ha":922,"x_min":1,"x_max":863,"o":"m 96 400 q 85 460 96 441 q 45 480 75 480 q 1 471 23 480 l 1 673 q 154 700 50 700 q 330 648 275 700 q 385 475 385 596 l 385 320 q 411 235 385 267 q 482 203 437 203 q 550 235 526 203 q 574 329 574 267 q 555 511 574 423 q 496 694 536 599 l 793 694 q 863 347 863 518 q 761 78 863 173 q 471 -17 659 -17 q 265 22 349 -17 q 138 134 181 61 q 96 310 96 206 l 96 400 m 475 782 l 326 782 l 383 1000 l 626 1000 l 475 782 z "},"ώ":{"ha":1183,"x_min":46,"x_max":1137,"o":"m 1137 345 q 1050 80 1137 177 q 814 -17 964 -17 q 679 16 739 -17 q 590 104 619 48 l 587 104 q 502 16 560 50 q 367 -17 444 -17 q 196 28 269 -17 q 85 156 123 73 q 46 346 46 239 q 136 694 46 514 l 415 694 q 337 515 366 608 q 309 347 309 421 q 331 242 309 281 q 387 203 353 203 q 445 233 428 203 q 461 321 461 264 l 461 509 l 722 509 l 722 321 q 740 232 722 261 q 796 203 758 203 q 853 243 831 203 q 875 347 875 283 q 846 516 875 422 q 768 694 817 610 l 1047 694 q 1137 345 1137 514 m 654 782 l 505 782 l 562 1000 l 805 1000 l 654 782 z "},"Ё":{"ha":766,"x_min":96,"x_max":724,"o":"m 96 0 l 96 972 l 701 972 l 701 743 l 389 743 l 389 602 l 682 602 l 682 372 l 389 372 l 389 229 l 724 229 l 724 0 l 96 0 m 705 1174 q 670 1094 705 1124 q 575 1063 635 1063 q 481 1094 518 1063 q 444 1174 444 1126 q 480 1252 444 1222 q 575 1282 516 1282 q 670 1252 634 1282 q 705 1174 705 1221 m 366 1174 q 331 1094 366 1126 q 235 1063 296 1063 q 141 1095 177 1063 q 104 1174 104 1127 q 140 1252 104 1222 q 235 1282 176 1282 q 330 1252 294 1282 q 366 1174 366 1223 z "},"Ђ":{"ha":1108,"x_min":21,"x_max":1088,"o":"m 1088 293 q 1054 134 1088 203 q 954 28 1019 66 q 798 -9 889 -9 q 718 -4 760 -9 q 650 10 675 1 l 650 208 q 725 192 687 192 q 785 219 762 192 q 808 292 808 245 q 672 403 808 403 l 587 403 l 587 0 l 293 0 l 293 743 l 21 743 l 21 972 l 863 972 l 863 743 l 587 743 l 587 603 l 742 603 q 998 522 908 603 q 1088 293 1088 440 z "},"Ѓ":{"ha":751,"x_min":96,"x_max":724,"o":"m 389 743 l 389 0 l 96 0 l 96 972 l 724 972 l 724 743 l 389 743 m 479 1062 l 275 1062 l 478 1280 l 721 1280 l 479 1062 z "},"Є":{"ha":875,"x_min":41,"x_max":819,"o":"m 819 26 q 541 -17 699 -17 q 274 39 385 -17 q 102 204 162 94 q 41 464 41 313 q 182 850 41 711 q 575 989 323 989 q 819 958 701 989 l 819 704 q 719 743 778 728 q 603 757 660 757 q 442 715 503 757 q 366 591 382 673 l 719 591 l 719 370 l 368 370 q 443 254 384 293 q 600 215 502 215 q 819 271 708 215 l 819 26 z "},"Ѕ":{"ha":794,"x_min":56,"x_max":771,"o":"m 771 294 q 719 125 771 197 q 574 18 667 54 q 349 -17 480 -17 q 69 35 196 -17 l 69 301 q 204 229 130 256 q 342 201 278 201 q 416 219 390 201 q 443 269 443 236 q 430 311 443 293 q 390 345 416 329 q 290 387 363 360 q 56 679 56 477 q 163 904 56 820 q 450 989 270 989 q 544 985 501 989 q 622 975 587 981 q 720 951 656 968 l 720 704 q 478 771 597 771 q 399 753 429 771 q 370 703 370 734 q 394 652 370 672 q 494 600 418 632 q 708 467 646 539 q 771 294 771 394 z "},"Ї":{"ha":524,"x_min":-37,"x_max":564,"o":"m 96 0 l 96 972 l 389 972 l 389 0 l 96 0 m 564 1166 q 529 1086 564 1117 q 434 1055 494 1055 q 340 1087 377 1055 q 303 1166 303 1118 q 339 1244 303 1215 q 434 1274 375 1274 q 529 1244 493 1274 q 564 1166 564 1214 m 224 1166 q 190 1087 224 1118 q 94 1055 155 1055 q 0 1087 36 1055 q -37 1166 -37 1120 q -1 1244 -37 1215 q 94 1274 35 1274 q 189 1245 153 1274 q 224 1166 224 1215 z "},"Љ":{"ha":1497,"x_min":24,"x_max":1476,"o":"m 1476 346 q 1373 91 1476 182 q 1080 0 1270 0 l 682 0 l 682 734 l 529 734 q 466 318 495 446 q 398 123 437 191 q 299 21 359 55 q 160 -12 240 -12 q 24 3 81 -12 l 24 233 q 78 225 47 225 q 147 262 116 225 q 201 386 178 299 q 249 630 224 473 q 294 972 275 786 l 975 972 l 975 646 l 1097 646 q 1313 613 1229 646 q 1436 517 1396 581 q 1476 346 1476 454 m 1166 323 q 1135 408 1166 380 q 1039 436 1104 436 l 975 436 l 975 210 l 1032 210 q 1134 238 1101 210 q 1166 323 1166 266 z "},"Њ":{"ha":1540,"x_min":96,"x_max":1520,"o":"m 1520 342 q 1417 89 1520 178 q 1124 0 1314 0 l 725 0 l 725 380 l 389 380 l 389 0 l 96 0 l 96 972 l 389 972 l 389 627 l 725 627 l 725 972 l 1018 972 l 1018 642 l 1140 642 q 1428 570 1336 642 q 1520 342 1520 498 m 1210 319 q 1181 397 1210 372 q 1082 422 1153 422 l 1018 422 l 1018 212 l 1075 212 q 1180 239 1149 212 q 1210 319 1210 265 z "},"Ћ":{"ha":1189,"x_min":21,"x_max":1143,"o":"m 850 0 l 850 225 q 701 354 850 354 l 587 354 l 587 0 l 294 0 l 293 743 l 21 743 l 21 972 l 863 972 l 863 743 l 587 743 l 587 597 l 775 597 q 1050 511 956 597 q 1143 257 1143 424 l 1143 0 l 850 0 z "},"Ќ":{"ha":958,"x_min":96,"x_max":989,"o":"m 633 0 l 418 411 q 392 478 396 460 l 389 478 l 389 0 l 96 0 l 96 972 l 389 972 l 389 510 l 392 510 q 421 578 405 547 l 615 972 l 962 972 l 686 509 l 989 0 l 633 0 m 568 1062 l 364 1062 l 567 1280 l 810 1280 l 568 1062 z "},"Ў":{"ha":903,"x_min":0,"x_max":903,"o":"m 196 -17 q 75 5 119 -17 l 75 265 q 127 240 97 250 q 186 231 157 231 q 253 251 227 231 q 307 322 279 271 l 0 972 l 336 972 l 439 688 q 461 585 455 646 l 464 585 q 486 682 473 648 l 593 972 l 903 972 l 593 302 q 481 110 534 178 q 363 13 427 42 q 196 -17 300 -17 m 773 1317 q 680 1128 762 1195 q 459 1062 598 1062 q 299 1095 368 1062 q 191 1185 230 1127 q 151 1317 153 1244 l 340 1317 q 381 1233 349 1263 q 463 1202 412 1202 q 543 1233 511 1202 q 583 1317 575 1264 l 773 1317 z "},"Џ":{"ha":1114,"x_min":96,"x_max":1018,"o":"m 687 0 l 687 -273 l 424 -273 l 424 0 l 96 0 l 96 972 l 389 972 l 389 249 l 725 249 l 725 972 l 1018 972 l 1018 0 l 687 0 z "},"А":{"ha":1042,"x_min":9,"x_max":1023,"o":"m 705 0 l 663 179 l 372 179 l 326 0 l 9 0 l 345 972 l 708 972 l 1023 0 l 705 0 m 521 761 l 514 761 q 505 707 513 745 q 422 387 496 670 l 608 387 l 541 652 q 521 761 526 710 z "},"Б":{"ha":960,"x_min":96,"x_max":926,"o":"m 926 321 q 832 83 926 167 q 559 0 738 0 l 96 0 l 96 972 l 800 972 l 800 743 l 389 743 l 389 593 l 595 593 q 777 559 703 593 q 889 464 851 525 q 926 321 926 403 m 615 300 q 588 370 615 344 q 513 396 561 396 l 389 396 l 389 197 l 500 197 q 585 223 555 197 q 615 300 615 250 z "},"В":{"ha":960,"x_min":96,"x_max":926,"o":"m 926 298 q 826 78 926 155 q 539 0 726 0 l 96 0 l 96 972 l 509 972 q 896 737 896 972 q 871 644 896 686 q 797 570 847 602 q 688 526 747 538 l 688 524 q 812 483 757 515 q 897 400 867 450 q 926 298 926 351 m 585 686 q 443 777 585 777 l 389 777 l 389 593 l 473 593 q 553 619 522 593 q 585 686 585 645 m 615 300 q 585 369 615 342 q 504 396 554 396 l 389 396 l 389 197 l 486 197 q 581 225 546 197 q 615 300 615 252 z "},"Г":{"ha":751,"x_min":96,"x_max":724,"o":"m 389 743 l 389 0 l 96 0 l 96 972 l 724 972 l 724 743 l 389 743 z "},"Д":{"ha":1120,"x_min":10,"x_max":1086,"o":"m 822 -273 l 822 0 l 268 0 l 268 -273 l 10 -273 l 10 233 l 106 233 q 299 972 281 543 l 935 972 l 935 233 l 1086 233 l 1086 -273 l 822 -273 m 642 734 l 533 734 q 399 233 513 486 l 642 233 l 642 734 z "},"Е":{"ha":766,"x_min":96,"x_max":724,"o":"m 96 0 l 96 972 l 701 972 l 701 743 l 389 743 l 389 602 l 682 602 l 682 372 l 389 372 l 389 229 l 724 229 l 724 0 l 96 0 z "},"Ж":{"ha":1392,"x_min":-31,"x_max":1422,"o":"m 1080 0 l 862 406 q 838 461 844 440 l 836 461 l 836 0 l 556 0 l 556 461 l 553 461 q 530 406 546 435 l 312 0 l -31 0 l 282 509 l -4 972 l 330 972 l 542 550 l 553 522 l 556 522 l 556 972 l 836 972 l 836 522 l 838 522 l 850 550 l 1062 972 l 1396 972 l 1109 509 l 1422 0 l 1080 0 z "},"З":{"ha":798,"x_min":40,"x_max":764,"o":"m 764 278 q 654 58 764 134 q 340 -17 545 -17 q 171 -3 250 -17 q 40 36 93 11 l 40 268 q 168 214 97 233 q 309 195 238 195 q 467 290 467 195 q 421 364 467 338 q 292 390 375 390 l 151 390 l 151 603 l 285 603 q 402 625 362 603 q 441 694 441 647 q 409 758 441 737 q 309 778 376 778 q 86 717 205 778 l 86 935 q 382 989 227 989 q 644 924 553 989 q 736 741 736 859 q 683 588 736 650 q 533 507 630 526 l 533 504 q 702 430 640 491 q 764 278 764 368 z "},"И":{"ha":1128,"x_min":96,"x_max":1032,"o":"m 761 0 l 761 408 q 765 570 761 498 l 762 570 q 731 520 749 547 q 353 0 713 494 l 96 0 l 96 972 l 367 972 l 367 549 q 363 433 367 470 l 366 433 q 373 447 368 439 q 427 526 377 454 l 755 972 l 1032 972 l 1032 0 l 761 0 z "},"Й":{"ha":1128,"x_min":96,"x_max":1032,"o":"m 761 0 l 761 408 q 765 570 761 498 l 762 570 q 731 520 749 547 q 353 0 713 494 l 96 0 l 96 972 l 367 972 l 367 536 q 363 433 367 463 l 366 433 q 373 447 368 439 q 427 526 377 454 l 755 972 l 1032 972 l 1032 0 l 761 0 m 886 1317 q 792 1128 874 1195 q 572 1062 711 1062 q 412 1095 481 1062 q 304 1185 342 1127 q 263 1317 265 1244 l 452 1317 q 493 1233 462 1263 q 576 1202 525 1202 q 656 1233 624 1202 q 696 1317 688 1264 l 886 1317 z "},"К":{"ha":958,"x_min":96,"x_max":989,"o":"m 633 0 l 418 411 q 392 478 396 460 l 389 478 l 389 0 l 96 0 l 96 972 l 389 972 l 389 510 l 392 510 q 421 578 405 547 l 615 972 l 962 972 l 686 509 l 989 0 l 633 0 z "},"Л":{"ha":1071,"x_min":24,"x_max":975,"o":"m 529 734 q 466 318 495 446 q 398 123 437 191 q 299 21 359 55 q 160 -12 240 -12 q 24 3 81 -12 l 24 233 q 78 225 47 225 q 147 262 116 225 q 201 386 178 299 q 249 630 224 473 q 294 972 275 786 l 975 972 l 975 0 l 682 0 l 682 734 l 529 734 z "},"М":{"ha":1371,"x_min":96,"x_max":1275,"o":"m 986 0 l 986 533 q 991 699 986 608 l 993 743 l 985 743 q 951 585 963 629 l 808 0 l 533 0 l 383 578 q 351 743 377 600 l 343 743 q 353 458 353 515 l 353 0 l 96 0 l 96 972 l 534 972 l 668 444 q 681 378 673 428 q 690 301 688 328 l 694 301 q 718 447 702 363 l 843 972 l 1275 972 l 1275 0 l 986 0 z "},"Н":{"ha":1116,"x_min":96,"x_max":1018,"o":"m 725 0 l 725 363 l 389 363 l 389 0 l 96 0 l 96 972 l 389 972 l 389 612 l 725 612 l 725 972 l 1018 972 l 1018 0 l 725 0 z "},"О":{"ha":1063,"x_min":41,"x_max":1021,"o":"m 1021 489 q 958 227 1021 342 q 781 47 895 111 q 528 -17 668 -17 q 278 45 391 -17 q 104 219 166 107 q 41 473 41 332 q 104 741 41 622 q 281 924 168 859 q 541 989 395 989 q 790 927 680 989 q 961 750 901 865 q 1021 489 1021 635 m 710 481 q 664 670 710 601 q 538 739 618 739 q 401 673 450 739 q 353 485 353 606 q 401 300 353 366 q 533 233 450 233 q 625 263 584 233 q 688 349 665 293 q 710 481 710 404 z "},"П":{"ha":1114,"x_min":96,"x_max":1018,"o":"m 725 0 l 725 724 l 389 724 l 389 0 l 96 0 l 96 972 l 1018 972 l 1018 0 l 725 0 z "},"Р":{"ha":911,"x_min":96,"x_max":890,"o":"m 890 652 q 840 475 890 552 q 696 355 789 397 q 478 313 602 313 l 389 313 l 389 0 l 96 0 l 96 972 l 494 972 q 795 895 700 972 q 890 652 890 817 m 581 642 q 546 732 581 701 q 444 762 511 762 l 389 762 l 389 522 l 454 522 q 581 642 581 522 z "},"С":{"ha":875,"x_min":41,"x_max":819,"o":"m 819 26 q 541 -17 699 -17 q 273 42 385 -17 q 101 211 160 102 q 41 464 41 321 q 108 738 41 618 q 296 923 174 858 q 575 989 417 989 q 819 958 701 989 l 819 688 q 722 726 779 712 q 608 739 666 739 q 420 671 489 739 q 351 485 351 602 q 420 301 351 368 q 604 233 489 233 q 819 288 711 233 l 819 26 z "},"Т":{"ha":884,"x_min":21,"x_max":863,"o":"m 587 743 l 587 0 l 293 0 l 293 743 l 21 743 l 21 972 l 863 972 l 863 743 l 587 743 z "},"У":{"ha":903,"x_min":0,"x_max":903,"o":"m 196 -17 q 75 5 119 -17 l 75 265 q 127 240 97 250 q 186 231 157 231 q 253 251 227 231 q 307 322 279 271 l 0 972 l 336 972 l 439 688 q 461 585 455 646 l 464 585 q 486 682 473 648 l 593 972 l 903 972 l 593 302 q 481 110 534 178 q 363 13 427 42 q 196 -17 300 -17 z "},"Ф":{"ha":1292,"x_min":33,"x_max":1258,"o":"m 1258 492 q 1207 277 1258 368 q 1057 138 1156 186 q 822 89 959 89 l 791 89 l 791 -31 l 498 -31 l 498 89 l 468 89 q 235 138 333 89 q 85 278 137 187 q 33 492 33 369 q 145 780 33 677 q 461 882 256 882 l 498 882 l 498 1004 l 791 1004 l 791 882 l 829 882 q 1145 780 1033 882 q 1258 492 1258 677 m 949 484 q 910 622 949 571 q 803 672 871 672 l 791 672 l 791 298 l 799 298 q 909 347 869 298 q 949 484 949 396 m 498 672 l 488 672 q 381 622 420 672 q 343 484 343 572 q 382 347 343 395 q 492 298 422 298 l 498 298 l 498 672 z "},"Х":{"ha":975,"x_min":0,"x_max":975,"o":"m 631 0 l 510 267 q 495 316 498 292 q 489 355 491 340 l 486 355 q 477 313 482 339 q 461 261 471 286 l 349 0 l 0 0 l 292 485 l 26 972 l 380 972 l 475 715 q 498 621 488 680 l 501 621 q 526 717 512 687 l 636 972 l 962 972 l 689 490 l 975 0 l 631 0 z "},"Ц":{"ha":1217,"x_min":96,"x_max":1168,"o":"m 905 -253 l 905 0 l 96 0 l 96 972 l 389 972 l 389 249 l 725 249 l 725 972 l 1018 972 l 1018 249 l 1168 249 l 1168 -253 l 905 -253 z "},"Ч":{"ha":1063,"x_min":77,"x_max":966,"o":"m 673 0 l 673 316 q 546 287 620 299 q 401 275 471 275 q 77 596 77 275 l 77 972 l 370 972 l 370 628 q 490 518 370 518 q 673 547 563 518 l 673 972 l 966 972 l 966 0 l 673 0 z "},"Ш":{"ha":1438,"x_min":96,"x_max":1341,"o":"m 96 0 l 96 972 l 389 972 l 389 249 l 572 249 l 572 972 l 865 972 l 865 249 l 1048 249 l 1048 972 l 1341 972 l 1341 0 l 96 0 z "},"Щ":{"ha":1540,"x_min":96,"x_max":1492,"o":"m 1228 -273 l 1228 0 l 96 0 l 96 972 l 389 972 l 389 249 l 572 249 l 572 972 l 865 972 l 865 249 l 1048 249 l 1048 972 l 1341 972 l 1341 249 l 1492 249 l 1492 -273 l 1228 -273 z "},"Ъ":{"ha":1109,"x_min":21,"x_max":1089,"o":"m 1089 346 q 986 91 1089 182 q 693 0 883 0 l 293 0 l 293 743 l 21 743 l 21 972 l 587 972 l 587 646 l 710 646 q 925 613 842 646 q 1049 517 1009 581 q 1089 346 1089 454 m 779 323 q 748 408 779 380 q 652 436 717 436 l 587 436 l 587 210 l 644 210 q 747 238 714 210 q 779 323 779 267 z "},"Ы":{"ha":1373,"x_min":96,"x_max":1278,"o":"m 985 0 l 985 972 l 1278 972 l 1278 0 l 985 0 m 890 346 q 787 91 890 182 q 494 0 684 0 l 96 0 l 96 972 l 389 972 l 389 646 l 511 646 q 727 613 643 646 q 850 517 810 581 q 890 346 890 454 m 581 323 q 549 408 581 380 q 453 436 518 436 l 389 436 l 389 210 l 446 210 q 548 238 515 210 q 581 323 581 267 z "},"Ь":{"ha":911,"x_min":96,"x_max":890,"o":"m 890 346 q 787 91 890 182 q 494 0 684 0 l 96 0 l 96 972 l 389 972 l 389 646 l 511 646 q 727 613 643 646 q 850 517 810 581 q 890 346 890 454 m 581 323 q 549 408 581 380 q 453 436 518 436 l 389 436 l 389 210 l 446 210 q 548 238 515 210 q 581 323 581 267 z "},"Э":{"ha":875,"x_min":56,"x_max":833,"o":"m 833 496 q 771 224 833 342 q 595 45 709 106 q 325 -17 480 -17 q 191 -7 256 -17 q 56 26 126 2 l 56 269 q 273 215 164 215 q 433 252 376 215 q 509 370 490 290 l 156 370 l 156 591 l 513 591 q 433 717 490 677 q 278 757 376 757 q 56 708 150 757 l 56 951 q 321 989 199 989 q 703 863 573 989 q 833 496 833 737 z "},"Ю":{"ha":1508,"x_min":96,"x_max":1467,"o":"m 1467 489 q 1407 227 1467 342 q 1239 47 1347 111 q 994 -17 1131 -17 q 786 30 882 -17 q 626 163 690 76 q 539 364 561 250 l 389 364 l 389 0 l 96 0 l 96 972 l 389 972 l 389 604 l 543 604 q 706 885 581 781 q 1007 989 831 989 q 1246 926 1141 989 q 1410 749 1352 863 q 1467 489 1467 635 m 1156 481 q 1116 670 1156 601 q 1004 739 1076 739 q 884 671 928 739 q 840 485 840 604 q 883 299 840 365 q 1000 233 925 233 q 1114 299 1072 233 q 1156 481 1156 365 z "},"Я":{"ha":957,"x_min":8,"x_max":861,"o":"m 568 0 l 568 351 l 545 351 q 396 216 431 351 l 339 0 l 8 0 l 91 253 q 160 373 115 327 q 284 444 206 419 l 284 447 q 77 694 77 498 q 181 900 77 828 q 489 972 285 972 l 861 972 l 861 0 l 568 0 m 568 764 l 519 764 q 421 738 455 764 q 388 664 388 713 q 424 585 388 616 q 520 554 460 554 l 568 554 l 568 764 z "},"а":{"ha":779,"x_min":31,"x_max":718,"o":"m 454 0 l 454 106 l 452 106 q 240 -17 382 -17 q 86 41 142 -17 q 31 197 31 100 q 282 435 31 402 l 454 457 q 424 513 454 491 q 342 534 393 534 q 96 468 225 534 l 96 656 q 237 696 152 680 q 382 711 321 711 q 638 636 559 711 q 718 383 718 560 l 718 0 l 454 0 m 283 236 q 301 189 283 208 q 353 171 319 171 q 426 205 398 171 q 454 292 454 239 l 454 318 l 357 304 q 283 236 283 292 z "},"б":{"ha":880,"x_min":39,"x_max":842,"o":"m 842 353 q 792 159 842 243 q 649 29 742 75 q 431 -17 555 -17 q 139 97 239 -17 q 39 437 39 212 q 95 748 39 621 q 262 935 151 874 q 355 967 297 954 q 547 997 412 981 q 664 1014 640 1008 q 714 1030 688 1020 q 757 1053 741 1041 l 757 840 q 708 810 736 821 q 600 789 680 799 q 421 758 460 772 q 362 707 382 744 q 336 599 343 669 l 339 599 q 533 673 418 673 q 763 593 685 673 q 842 353 842 512 m 550 346 q 441 479 550 479 q 378 462 410 479 q 335 425 347 445 q 332 378 332 400 l 332 358 q 360 239 332 284 q 439 195 389 195 q 519 235 488 195 q 550 346 550 275 z "},"в":{"ha":846,"x_min":69,"x_max":804,"o":"m 804 214 q 738 54 804 108 q 541 0 671 0 l 69 0 l 69 694 l 518 694 q 718 653 654 694 q 782 526 782 612 q 762 454 782 486 q 709 402 743 423 q 639 374 676 380 q 758 321 712 366 q 804 214 804 276 m 485 485 q 467 528 485 515 q 411 541 449 541 l 358 541 l 358 427 l 412 427 q 467 443 448 427 q 485 485 485 460 m 505 222 q 487 265 505 250 q 433 281 468 281 l 358 281 l 358 158 l 425 158 q 505 222 505 158 z "},"г":{"ha":579,"x_min":69,"x_max":566,"o":"m 358 481 l 358 0 l 69 0 l 69 694 l 566 694 l 566 481 l 358 481 z "},"д":{"ha":935,"x_min":21,"x_max":914,"o":"m 683 -253 l 683 0 l 248 0 l 248 -253 l 21 -253 l 21 195 l 81 195 q 179 431 147 311 q 218 694 212 552 l 800 694 l 800 195 l 914 195 l 914 -253 l 683 -253 m 513 507 l 433 507 q 349 195 421 338 l 513 195 l 513 507 z "},"е":{"ha":778,"x_min":39,"x_max":747,"o":"m 318 265 q 370 195 326 220 q 486 170 414 170 q 677 208 587 170 l 677 25 q 422 -17 572 -17 q 140 76 241 -17 q 39 332 39 169 q 83 529 39 444 q 215 663 127 614 q 407 711 302 711 q 591 669 515 711 q 708 551 668 627 q 747 374 747 475 l 747 265 l 318 265 m 492 416 q 406 536 492 536 q 345 504 370 536 q 317 416 321 471 l 492 416 z "},"ж":{"ha":1183,"x_min":-6,"x_max":1191,"o":"m 882 0 l 732 349 l 730 349 l 730 0 l 454 0 l 454 349 l 452 349 l 303 0 l -6 0 l 194 368 l -4 694 l 297 694 l 452 359 l 454 359 l 454 694 l 730 694 l 730 359 l 732 359 l 886 694 l 1187 694 l 989 368 l 1191 0 l 882 0 z "},"з":{"ha":715,"x_min":56,"x_max":673,"o":"m 673 203 q 630 78 673 123 q 500 10 587 32 q 286 -12 414 -12 q 56 20 169 -12 l 56 199 q 245 160 156 160 q 344 173 315 160 q 374 215 374 185 q 348 264 374 250 q 249 278 321 278 l 115 278 l 115 432 l 252 432 q 334 446 311 432 q 358 492 358 459 q 333 530 358 519 q 250 542 308 542 q 82 511 170 542 l 82 679 q 318 711 204 711 q 578 668 498 711 q 659 526 659 625 q 613 420 659 463 q 481 363 568 377 l 481 361 q 623 312 573 354 q 673 203 673 271 z "},"и":{"ha":911,"x_min":69,"x_max":842,"o":"m 578 0 l 578 376 q 522 282 551 326 l 325 0 l 69 0 l 69 694 l 335 694 l 335 339 q 386 425 353 378 l 570 694 l 842 694 l 842 0 l 578 0 z "},"й":{"ha":911,"x_min":69,"x_max":842,"o":"m 578 0 l 578 376 q 522 282 551 326 l 325 0 l 69 0 l 69 694 l 335 694 l 335 339 q 386 425 353 378 l 570 694 l 842 694 l 842 0 l 578 0 m 777 1018 q 684 829 766 896 q 463 763 602 763 q 303 795 372 763 q 195 886 234 828 q 155 1018 157 945 l 344 1018 q 385 934 353 964 q 467 903 416 903 q 547 934 515 903 q 587 1018 579 965 l 777 1018 z "},"к":{"ha":823,"x_min":69,"x_max":838,"o":"m 515 0 l 361 357 l 358 357 l 358 0 l 69 0 l 69 694 l 358 694 l 358 368 l 361 368 l 501 694 l 827 694 l 639 376 l 838 0 l 515 0 z "},"л":{"ha":918,"x_min":14,"x_max":848,"o":"m 559 0 l 559 500 l 449 500 q 403 246 429 344 q 342 94 377 149 q 256 16 308 40 q 111 -8 205 -8 q 14 4 49 -8 l 14 183 q 57 176 33 176 q 133 227 104 176 q 185 390 161 277 q 233 694 209 503 l 848 694 l 848 0 l 559 0 z "},"м":{"ha":1135,"x_min":69,"x_max":1065,"o":"m 804 0 l 804 524 q 788 443 795 477 q 669 0 781 410 l 421 0 l 317 395 q 312 416 315 401 q 303 450 308 431 q 295 487 299 468 q 290 519 292 505 l 290 0 l 69 0 l 69 694 l 452 694 l 547 338 q 567 229 561 280 q 572 263 569 244 q 583 319 575 281 q 682 694 591 357 l 1065 694 l 1065 0 l 804 0 z "},"н":{"ha":878,"x_min":69,"x_max":808,"o":"m 519 0 l 519 271 l 358 271 l 358 0 l 69 0 l 69 694 l 358 694 l 358 458 l 519 458 l 519 694 l 808 694 l 808 0 l 519 0 z "},"о":{"ha":880,"x_min":39,"x_max":842,"o":"m 842 359 q 735 83 842 184 q 439 -17 629 -17 q 144 81 250 -17 q 39 351 39 179 q 88 543 39 462 q 229 668 138 625 q 440 711 321 711 q 654 666 564 711 q 793 540 745 621 q 842 359 842 459 m 549 358 q 440 500 549 500 q 332 351 332 500 q 441 195 332 195 q 549 358 549 195 z "},"п":{"ha":878,"x_min":69,"x_max":808,"o":"m 519 0 l 519 500 l 358 500 l 358 0 l 69 0 l 69 694 l 808 694 l 808 0 l 519 0 z "},"р":{"ha":892,"x_min":69,"x_max":852,"o":"m 852 368 q 814 167 852 254 q 705 31 775 79 q 546 -17 634 -17 q 361 72 424 -17 l 358 72 l 358 -319 l 69 -319 l 69 694 l 358 694 l 358 600 l 361 600 q 450 682 395 652 q 575 711 505 711 q 781 622 709 711 q 852 368 852 532 m 559 359 q 534 463 559 425 q 456 500 509 500 q 381 460 410 500 q 353 353 353 421 l 353 339 q 377 234 353 273 q 450 195 401 195 q 531 238 503 195 q 559 359 559 281 z "},"с":{"ha":688,"x_min":39,"x_max":642,"o":"m 642 20 q 554 -7 614 3 q 416 -17 494 -17 q 220 27 307 -17 q 86 152 134 72 q 39 332 39 232 q 89 536 39 451 q 233 666 140 621 q 450 711 327 711 q 572 703 518 711 q 642 682 626 694 l 642 457 q 579 487 620 474 q 504 500 538 500 q 375 459 419 500 q 332 346 332 419 q 375 234 332 274 q 493 195 418 195 q 642 233 574 195 l 642 20 z "},"т":{"ha":667,"x_min":21,"x_max":646,"o":"m 478 481 l 478 0 l 189 0 l 189 481 l 21 481 l 21 694 l 646 694 l 646 481 l 478 481 z "},"у":{"ha":798,"x_min":-14,"x_max":811,"o":"m 204 -326 q 117 -319 163 -326 q 33 -298 70 -312 l 33 -81 q 84 -104 50 -94 q 147 -115 117 -115 q 254 -52 228 -115 l 277 3 l -14 694 l 306 694 l 390 359 q 416 233 414 266 l 419 233 q 425 267 421 248 q 530 694 429 285 l 811 694 l 555 -20 q 413 -255 498 -184 q 204 -326 328 -326 z "},"ф":{"ha":1204,"x_min":35,"x_max":1169,"o":"m 1169 351 q 1124 166 1169 245 q 991 43 1078 87 q 783 0 903 0 l 739 0 l 739 -319 l 465 -319 l 465 0 l 421 0 q 215 43 302 0 q 81 166 127 87 q 35 351 35 245 q 79 533 35 456 q 209 652 123 610 q 415 694 294 694 l 465 694 l 465 1000 l 739 1000 l 739 694 l 789 694 q 1069 604 968 694 q 1169 351 1169 513 m 878 345 q 844 461 878 418 q 749 504 810 504 l 739 504 l 739 191 l 745 191 q 843 232 808 191 q 878 345 878 273 m 465 504 l 456 504 q 361 462 395 504 q 326 345 326 420 q 361 231 326 271 q 458 191 395 191 l 465 191 l 465 504 z "},"х":{"ha":863,"x_min":-3,"x_max":865,"o":"m 640 370 l 864 0 l 532 0 l 457 158 q 428 231 444 184 l 425 231 q 407 174 411 184 q 328 0 403 163 l -3 0 l 228 350 l 11 694 l 345 694 l 419 533 q 449 457 434 505 l 452 457 q 479 534 471 516 l 550 694 l 865 694 l 640 370 z "},"ц":{"ha":947,"x_min":69,"x_max":926,"o":"m 695 -253 l 695 0 l 69 0 l 69 694 l 358 694 l 358 195 l 519 195 l 519 694 l 808 694 l 808 195 l 926 195 l 926 -253 l 695 -253 z "},"ч":{"ha":856,"x_min":61,"x_max":786,"o":"m 497 0 l 497 214 q 292 157 396 157 q 121 217 181 157 q 61 383 61 277 l 61 694 l 334 694 l 334 440 q 352 384 334 404 q 404 364 370 364 q 497 395 450 364 l 497 694 l 786 694 l 786 0 l 497 0 z "},"ш":{"ha":1249,"x_min":69,"x_max":1179,"o":"m 69 0 l 69 694 l 351 694 l 351 195 l 483 195 l 483 694 l 765 694 l 765 195 l 897 195 l 897 694 l 1179 694 l 1179 0 l 69 0 z "},"щ":{"ha":1318,"x_min":69,"x_max":1297,"o":"m 1066 -253 l 1066 0 l 69 0 l 69 694 l 351 694 l 351 195 l 483 195 l 483 694 l 765 694 l 765 195 l 897 195 l 897 694 l 1179 694 l 1179 195 l 1297 195 l 1297 -253 l 1066 -253 z "},"ъ":{"ha":958,"x_min":14,"x_max":933,"o":"m 933 245 q 864 64 933 127 q 669 0 795 0 l 199 0 l 199 481 l 14 481 l 14 694 l 488 694 l 488 471 l 673 471 q 866 411 800 471 q 933 245 933 351 m 635 239 q 551 307 635 307 l 488 307 l 488 165 l 545 165 q 613 183 592 165 q 635 239 635 200 z "},"ы":{"ha":1234,"x_min":69,"x_max":1164,"o":"m 875 0 l 875 694 l 1164 694 l 1164 0 l 875 0 m 804 245 q 735 64 804 127 q 541 0 667 0 l 69 0 l 69 694 l 358 694 l 358 471 l 545 471 q 736 411 669 471 q 804 245 804 352 m 505 239 q 422 307 505 307 l 358 307 l 358 165 l 415 165 q 484 183 463 165 q 505 239 505 200 z "},"ь":{"ha":829,"x_min":69,"x_max":804,"o":"m 804 245 q 735 64 804 127 q 541 0 667 0 l 69 0 l 69 694 l 358 694 l 358 471 l 545 471 q 736 411 669 471 q 804 245 804 352 m 505 239 q 422 307 505 307 l 358 307 l 358 165 l 415 165 q 484 183 463 165 q 505 239 505 200 z "},"э":{"ha":685,"x_min":50,"x_max":646,"o":"m 646 346 q 599 161 646 245 q 466 30 552 77 q 265 -17 379 -17 q 162 -9 208 -17 q 50 26 116 -1 l 50 204 q 121 176 79 187 q 205 165 163 165 q 358 265 328 165 l 118 265 l 118 418 l 363 418 q 197 530 338 530 q 119 520 161 530 q 50 493 77 509 l 50 673 q 146 701 90 690 q 258 711 202 711 q 547 619 448 711 q 646 346 646 526 z "},"ю":{"ha":1303,"x_min":69,"x_max":1264,"o":"m 1264 359 q 1158 83 1264 184 q 861 -17 1052 -17 q 598 56 700 -17 q 469 261 496 129 l 358 261 l 358 0 l 69 0 l 69 694 l 358 694 l 358 458 l 475 458 q 610 645 507 579 q 863 711 712 711 q 1077 666 986 711 q 1216 540 1167 621 q 1264 359 1264 459 m 971 358 q 863 500 971 500 q 754 351 754 500 q 864 195 754 195 q 971 358 971 195 z "},"я":{"ha":868,"x_min":26,"x_max":799,"o":"m 510 0 l 510 237 l 493 237 q 437 216 460 237 q 395 143 413 195 l 342 0 l 26 0 l 103 174 q 167 264 129 233 q 264 311 205 296 q 131 371 175 328 q 86 492 86 413 q 168 645 86 595 q 412 694 249 694 l 799 694 l 799 0 l 510 0 m 510 530 l 471 530 q 395 512 416 530 q 374 460 374 494 q 473 387 374 387 l 510 387 l 510 530 z "},"ё":{"ha":778,"x_min":39,"x_max":747,"o":"m 318 265 q 370 195 326 220 q 486 170 414 170 q 677 208 587 170 l 677 25 q 422 -17 572 -17 q 140 76 241 -17 q 39 332 39 169 q 83 529 39 444 q 215 663 127 614 q 407 711 302 711 q 591 669 515 711 q 708 551 668 627 q 747 374 747 475 l 747 265 l 318 265 m 492 416 q 406 536 492 536 q 345 504 370 536 q 317 416 321 471 l 492 416 m 709 888 q 674 807 709 838 q 579 777 639 777 q 485 808 522 777 q 448 888 448 840 q 484 966 448 936 q 579 996 520 996 q 674 965 638 996 q 709 888 709 935 m 370 888 q 335 808 370 840 q 239 777 300 777 q 145 809 181 777 q 109 888 109 841 q 144 966 109 936 q 239 996 180 996 q 334 966 298 996 q 370 888 370 937 z "},"ђ":{"ha":857,"x_min":0,"x_max":819,"o":"m 361 579 q 451 662 399 634 q 565 690 504 690 q 758 577 697 690 q 819 232 819 464 q 783 -101 819 13 q 666 -271 746 -216 q 448 -326 585 -326 q 359 -307 397 -326 l 359 -106 q 420 -126 389 -126 q 488 -93 465 -126 q 522 14 511 -60 q 532 221 532 88 q 510 421 532 362 q 437 479 488 479 q 379 451 401 479 q 358 374 358 423 l 358 0 l 69 0 l 69 783 l 0 783 l 0 916 l 69 916 l 69 1028 l 358 1028 l 358 916 l 545 916 l 545 783 l 358 783 l 358 579 l 361 579 z "},"ѓ":{"ha":579,"x_min":69,"x_max":601,"o":"m 358 481 l 358 0 l 69 0 l 69 694 l 566 694 l 566 481 l 358 481 m 359 777 l 155 777 l 358 994 l 601 994 l 359 777 z "},"є":{"ha":688,"x_min":39,"x_max":635,"o":"m 635 26 q 525 -8 576 1 q 414 -17 473 -17 q 219 27 304 -17 q 86 152 133 71 q 39 332 39 232 q 89 536 39 451 q 231 667 138 622 q 447 711 324 711 q 635 679 547 711 l 635 492 q 571 518 613 507 q 489 530 529 530 q 379 503 419 530 q 323 418 338 475 l 567 418 l 567 265 l 326 265 q 479 165 357 165 q 557 176 515 165 q 635 207 599 186 l 635 26 z "},"ѕ":{"ha":671,"x_min":65,"x_max":633,"o":"m 633 231 q 544 48 633 113 q 293 -17 454 -17 q 177 -7 246 -17 q 65 16 109 2 l 65 218 q 279 161 193 161 q 364 205 364 161 q 345 236 364 224 q 241 275 325 248 q 107 353 149 304 q 65 478 65 401 q 151 649 65 586 q 392 711 237 711 q 585 685 483 711 l 585 490 q 491 521 542 509 q 406 533 440 533 q 360 524 377 533 q 343 497 343 514 q 361 465 343 477 q 435 436 380 453 q 587 356 541 405 q 633 231 633 307 z "},"ї":{"ha":422,"x_min":-93,"x_max":509,"o":"m 66 0 l 66 694 l 355 694 l 355 0 l 66 0 m 509 888 q 474 808 509 840 q 378 777 439 777 q 284 808 320 777 q 248 888 248 840 q 283 966 248 937 q 378 996 319 996 q 472 966 436 996 q 509 888 509 936 m 168 888 q 133 808 168 840 q 37 777 98 777 q -56 808 -18 777 q -93 888 -93 840 q -57 966 -93 936 q 37 996 -21 996 q 132 966 96 996 q 168 888 168 937 z "},"љ":{"ha":1320,"x_min":14,"x_max":1295,"o":"m 559 500 l 449 500 q 403 246 429 344 q 342 94 377 149 q 256 16 308 40 q 111 -8 205 -8 q 14 4 49 -8 l 14 183 q 57 176 33 176 q 133 227 104 176 q 185 390 161 277 q 233 694 209 503 l 848 694 l 848 471 l 1035 471 q 1227 411 1159 471 q 1295 245 1295 352 q 1226 64 1295 127 q 1031 0 1157 0 l 559 0 l 559 500 m 996 239 q 913 307 996 307 l 848 307 l 848 165 l 905 165 q 974 183 953 165 q 996 239 996 200 z "},"њ":{"ha":1279,"x_min":69,"x_max":1254,"o":"m 1254 243 q 1185 62 1254 125 q 990 0 1116 0 l 519 0 l 519 277 l 358 277 l 358 0 l 69 0 l 69 694 l 358 694 l 358 464 l 519 464 l 519 694 l 808 694 l 808 465 l 994 465 q 1187 407 1120 465 q 1254 243 1254 349 m 956 236 q 872 298 956 298 l 808 298 l 808 168 l 865 168 q 936 184 916 168 q 956 236 956 201 z "}}}
